<svg width="8" height="13" viewBox="0 0 8 13" fill="none" xmlns="http://www.w3.org/2000/svg">
<path d="M1.14645 1.35348C1.34171 1.15822 1.65829 1.15822 1.85355 1.35348L6.66924 6.16917C6.8645 6.36443 6.8645 6.68101 6.66924 6.87627C6.47398 7.07153 6.1574 7.07153 5.96213 6.87627L1.14645 2.06058C0.951184 1.86532 0.951184 1.54874 1.14645 1.35348Z" fill="#FD9480"/>
<path d="M1.14652 11.6923C0.95126 11.4971 0.95126 11.1805 1.14652 10.9852L5.95755 6.17421C6.15281 5.97895 6.46939 5.97895 6.66465 6.17421C6.85992 6.36948 6.85992 6.68606 6.66465 6.88132L1.85363 11.6923C1.65837 11.8876 1.34178 11.8876 1.14652 11.6923Z" fill="#FD9480"/>
<path fill-rule="evenodd" clip-rule="evenodd" d="M0.449701 0.452147C1.0493 -0.150716 2.02145 -0.150716 2.62105 0.452147L7.5503 5.40822C8.13316 5.99426 8.14944 6.93425 7.5991 7.54005C7.58183 7.55923 7.564 7.57808 7.5456 7.59658L2.62112 12.5479C2.02152 13.1507 1.04938 13.1507 0.449778 12.5479C-0.149823 11.945 -0.149823 10.9676 0.449778 10.3647L4.29352 6.50004L0.449701 2.63531C-0.1499 2.03245 -0.1499 1.05501 0.449701 0.452147Z" fill="#FD9480"/>
</svg>
