<svg width="27" height="34" viewBox="0 0 27 34" fill="none" xmlns="http://www.w3.org/2000/svg">
<path d="M22.3584 0H2.64154C1.18266 0 0 1.24535 0 2.78156V29.2183C0 30.7545 1.18266 31.9999 2.64154 31.9999H22.3584C23.8173 31.9999 25 30.7545 25 29.2183V2.78156C25 1.24535 23.8173 0 22.3584 0Z" transform="translate(1 1)" fill="#B8C9FF"/>
<path d="M22.3358 0.000103173H2.65669C2.30824 -0.00306153 1.96267 0.066608 1.63998 0.205076C1.31729 0.343543 1.0239 0.548057 0.776801 0.80677C0.529703 1.06548 0.333811 1.37325 0.200472 1.71225C0.0671331 2.05125 -0.00100311 2.41474 1.11592e-05 2.78166V5.9697C0.000995891 5.60412 0.0706066 5.24234 0.20484 4.90519C0.339073 4.56804 0.53528 4.26215 0.782176 4.00513C1.02907 3.74811 1.32179 3.54502 1.64349 3.40755C1.96518 3.27007 2.30952 3.20092 2.65669 3.20408H22.3358C23.0343 3.20408 23.7043 3.49629 24.1983 4.01644C24.6922 4.53659 24.9697 5.24207 24.9697 5.97767V2.78963C24.9717 2.42406 24.9051 2.06168 24.7736 1.72333C24.6421 1.38498 24.4484 1.07734 24.2036 0.818097C23.9588 0.558854 23.6678 0.353126 23.3472 0.212745C23.0267 0.072363 22.6829 9.71356e-05 22.3358 0.000103173Z" transform="translate(1 1)" fill="#D2DAFF"/>
<path d="M22.3584 0H2.64154C1.18266 0 0 1.24535 0 2.78156V29.2183C0 30.7545 1.18266 31.9999 2.64154 31.9999H22.3584C23.8173 31.9999 25 30.7545 25 29.2183V2.78156C25 1.24535 23.8173 0 22.3584 0Z" transform="translate(1 1)" stroke="#45413C" stroke-linecap="round" stroke-linejoin="round"/>
<path d="M17.7717 0H0.93854C0.420199 0 0 0.442473 0 0.98829V22.9538C0 23.4997 0.420199 23.9421 0.93854 23.9421H17.7717C18.2901 23.9421 18.7103 23.4997 18.7103 22.9538V0.98829C18.7103 0.442473 18.2901 0 17.7717 0Z" transform="translate(4.14111 5.80615)" fill="white"/>
<path d="M17.7793 5.35453e-10H0.931002C0.808106 -4.27645e-06 0.686425 0.0256137 0.572978 0.075377C0.459531 0.12514 0.356564 0.198064 0.270015 0.289941C0.183467 0.381818 0.11505 0.490831 0.0687123 0.61069C0.0223742 0.73055 -0.000968387 0.858884 3.07711e-05 0.98829V4.12053C3.07711e-05 3.86054 0.0981146 3.61119 0.272706 3.42734C0.447297 3.2435 0.684093 3.14021 0.931002 3.14021H17.7793C18.0262 3.14021 18.263 3.2435 18.4376 3.42734C18.6122 3.61119 18.7103 3.86054 18.7103 4.12053V0.98829C18.7113 0.858884 18.6879 0.73055 18.6416 0.61069C18.5953 0.490831 18.5268 0.381818 18.4403 0.289941C18.3538 0.198064 18.2508 0.12514 18.1373 0.075377C18.0239 0.0256137 17.9022 -4.27645e-06 17.7793 5.35453e-10Z" transform="translate(4.14111 5.80615)" fill="white"/>
<path d="M17.7717 0H0.93854C0.420199 0 0 0.442473 0 0.98829V22.9538C0 23.4997 0.420199 23.9421 0.93854 23.9421H17.7717C18.2901 23.9421 18.7103 23.4997 18.7103 22.9538V0.98829C18.7103 0.442473 18.2901 0 17.7717 0Z" transform="translate(4.14111 5.80615)" stroke="#45413C" stroke-linecap="round" stroke-linejoin="round"/>
<path d="M6.62279 1.59402C6.62279 1.17126 6.46331 0.765813 6.17942 0.466877C5.89553 0.167941 5.5105 0 5.10902 0C4.70754 0 4.32251 0.167941 4.03862 0.466877C3.75473 0.765813 3.59525 1.17126 3.59525 1.59402H0.931002C0.684093 1.59402 0.447297 1.6973 0.272706 1.88115C0.0981145 2.06499 3.07711e-05 2.31434 3.07711e-05 2.57434V4.12053C-0.000968387 4.24994 0.0223742 4.37828 0.0687123 4.49814C0.11505 4.61799 0.183468 4.72701 0.270016 4.81888C0.356564 4.91076 0.459532 4.98368 0.572978 5.03345C0.686425 5.08321 0.808105 5.10883 0.931002 5.10883H9.25676C9.37966 5.10883 9.50134 5.08321 9.61479 5.03345C9.72823 4.98368 9.8312 4.91076 9.91775 4.81888C10.0043 4.72701 10.0727 4.61799 10.1191 4.49814C10.1654 4.37828 10.1887 4.24994 10.1877 4.12053V2.57434C10.1879 2.31977 10.0939 2.07514 9.92585 1.89218C9.75775 1.70922 9.52866 1.6023 9.28704 1.59402H6.62279Z" transform="translate(8.38721 2.39453)" fill="#DAEDF7"/>
<path d="M9.28701 1.59402H6.62276C6.62276 1.17126 6.46328 0.765813 6.17939 0.466877C5.8955 0.167941 5.51047 0 5.10899 0C4.70751 0 4.32248 0.167941 4.03859 0.466877C3.7547 0.765813 3.59522 1.17126 3.59522 1.59402H0.930971C0.684062 1.59402 0.447266 1.6973 0.272675 1.88115C0.0980838 2.06499 0 2.31434 0 2.57434V4.16835C0.00977593 3.91533 0.11216 3.6761 0.285702 3.50078C0.459245 3.32547 0.690481 3.22768 0.930971 3.22788H3.59522C3.59522 2.79667 3.75789 2.38312 4.04746 2.0782C4.33702 1.77329 4.72976 1.60199 5.13927 1.60199C5.54877 1.60199 5.94151 1.77329 6.23107 2.0782C6.52064 2.38312 6.68332 2.79667 6.68332 3.22788H9.31728C9.55777 3.22768 9.78901 3.32547 9.96255 3.50078C10.1361 3.6761 10.2385 3.91533 10.2483 4.16835V2.57434C10.2483 2.44287 10.2233 2.31274 10.1746 2.19167C10.1259 2.07061 10.0546 1.96109 9.96496 1.86963C9.87528 1.77817 9.76905 1.70663 9.65258 1.65929C9.53611 1.61194 9.41179 1.58974 9.28701 1.59402Z" transform="translate(8.38721 2.39453)" fill="#E8F4FA"/>
<path d="M6.62279 1.59402C6.62279 1.17126 6.46331 0.765813 6.17942 0.466877C5.89553 0.167941 5.5105 0 5.10902 0C4.70754 0 4.32251 0.167941 4.03862 0.466877C3.75473 0.765813 3.59525 1.17126 3.59525 1.59402H0.931002C0.684093 1.59402 0.447297 1.6973 0.272706 1.88115C0.0981145 2.06499 3.07711e-05 2.31434 3.07711e-05 2.57434V4.12053C-0.000968387 4.24994 0.0223742 4.37828 0.0687123 4.49814C0.11505 4.61799 0.183468 4.72701 0.270016 4.81888C0.356564 4.91076 0.459532 4.98368 0.572979 5.03345C0.686425 5.08321 0.808105 5.10883 0.931002 5.10883H9.25676C9.37966 5.10883 9.50134 5.08321 9.61479 5.03345C9.72823 4.98368 9.8312 4.91076 9.91775 4.81888C10.0043 4.72701 10.0727 4.61799 10.1191 4.49814C10.1654 4.37828 10.1887 4.24994 10.1877 4.12053V2.57434C10.1879 2.31977 10.0939 2.07514 9.92585 1.89218C9.75775 1.70922 9.52866 1.6023 9.28704 1.59402H6.62279Z" transform="translate(8.38721 2.39453)" stroke="#45413C" stroke-linecap="round" stroke-linejoin="round"/>
<path d="M0 0H4.73055" transform="translate(6.97925 10.5166)" stroke="#45413C" stroke-linecap="round" stroke-linejoin="round"/>
<path d="M0 0H4.73055" transform="translate(6.97925 24.9102)" stroke="#45413C" stroke-linecap="round" stroke-linejoin="round"/>
<path d="M0 0H10.9824" transform="translate(6.97925 13.4731)" stroke="#45413C" stroke-linecap="round" stroke-linejoin="round"/>
<path d="M0 0H10.9824" transform="translate(6.97925 16.1196)" stroke="#45413C" stroke-linecap="round" stroke-linejoin="round"/>
<path d="M0 0H10.9824" transform="translate(6.97925 19.0049)" stroke="#45413C" stroke-linecap="round" stroke-linejoin="round"/>
</svg>
