<svg width="37" height="34" viewBox="0 0 37 34" fill="none" xmlns="http://www.w3.org/2000/svg">
<path d="M34.1143 9.38973L18.671 0.308621C18.3239 0.106441 17.9301 0 17.5293 0C17.1284 0 16.7347 0.106441 16.3875 0.308621L0.970668 9.38973C0.520829 9.65635 0.194408 10.0923 0.0632144 10.6017C-0.0679797 11.1112 0.0068002 11.6523 0.271102 12.1061C0.535404 12.5599 0.967577 12.8892 1.47255 13.0215C1.97752 13.1538 2.51393 13.0784 2.96377 12.8118L17.4831 4.23666L32.1344 12.8118C32.5821 13.0439 33.1009 13.094 33.5841 12.9518C34.0674 12.8095 34.4781 12.4858 34.7318 12.0473C34.9856 11.6087 35.063 11.0887 34.9481 10.5943C34.8332 10.0999 34.5348 9.66882 34.1143 9.38973Z" transform="translate(1 1)" fill="#FF6242"/>
<path d="M34.1143 9.38973L18.671 0.308621C18.3239 0.106441 17.9301 0 17.5293 0C17.1284 0 16.7347 0.106441 16.3875 0.308621L0.970668 9.38973C0.520829 9.65635 0.194408 10.0923 0.0632144 10.6017C-0.0679797 11.1112 0.0068002 11.6523 0.271102 12.1061C0.535404 12.5599 0.967577 12.8892 1.47255 13.0215C1.97752 13.1538 2.51393 13.0784 2.96377 12.8118L17.4831 4.23666L32.1344 12.8118C32.5821 13.0439 33.1009 13.094 33.5841 12.9518C34.0674 12.8095 34.4781 12.4858 34.7319 12.0473C34.9856 11.6087 35.063 11.0887 34.9481 10.5943C34.8332 10.0999 34.5348 9.66882 34.1143 9.38973Z" transform="translate(1 1)" stroke="#45413C" stroke-linecap="round" stroke-linejoin="round"/>
<path d="M27.2039 27.7626H0V8.00256L13.6085 0L27.2039 8.00256V27.7626Z" transform="translate(4.94055 5.23633)" fill="white"/>
<path d="M13.6085 0L0 8.00256V11.1983L13.6085 3.1957L27.2039 11.1983V8.00256L13.6085 0Z" transform="translate(4.94055 5.23633)" fill="#F0F0F0"/>
<path d="M27.2039 27.7626H0V8.00256L13.6085 0L27.2039 8.00256V27.7626Z" transform="translate(4.94055 5.23633)" stroke="#45413C" stroke-linecap="round" stroke-linejoin="round"/>
<path d="M1.24532 0H9.32547C9.65575 0 9.9725 0.141001 10.206 0.391985C10.4396 0.642968 10.5708 0.983375 10.5708 1.33832V16.0287H0V1.33832C0 0.983375 0.131204 0.642968 0.364748 0.391985C0.598292 0.141001 0.915044 0 1.24532 0Z" transform="translate(8.47913 16.9712)" fill="#FF6242"/>
<path d="M1.24532 0H9.32547C9.65575 0 9.9725 0.141001 10.206 0.391985C10.4396 0.642968 10.5708 0.983375 10.5708 1.33832V16.0287H0V1.33832C0 0.983375 0.131204 0.642968 0.364748 0.391985C0.598292 0.141001 0.915044 0 1.24532 0Z" transform="translate(8.47913 16.9712)" stroke="#45413C" stroke-linecap="round" stroke-linejoin="round"/>
<path d="M5.66252 0H1.13515C0.508223 0 0 0.512691 0 1.14513V5.71231C0 6.34475 0.508223 6.85744 1.13515 6.85744H5.66252C6.28945 6.85744 6.79767 6.34475 6.79767 5.71231V1.14513C6.79767 0.512691 6.28945 0 5.66252 0Z" transform="translate(21.9414 16.4209)" fill="#B8C9FF"/>
<path d="M5.64933 9.81141e-08H1.13515C0.835151 0.00345909 0.54841 0.125217 0.336268 0.339224C0.124126 0.553232 0.00342885 0.842494 0 1.14513V5.71231C0 6.01602 0.119595 6.30728 0.332476 6.52204C0.545357 6.73679 0.834087 6.85744 1.13515 6.85744H1.9403L5.90011 0.0532629C5.8211 0.0180935 5.73569 -4.86835e-05 5.64933 9.81141e-08Z" transform="translate(21.9414 16.4209)" fill="#D2DAFF"/>
<path d="M5.66252 0H1.13515C0.508223 0 0 0.512691 0 1.14513V5.71231C0 6.34475 0.508223 6.85744 1.13515 6.85744H5.66252C6.28945 6.85744 6.79767 6.34475 6.79767 5.71231V1.14513C6.79767 0.512691 6.28945 0 5.66252 0Z" transform="translate(21.9414 16.4209)" stroke="#45413C" stroke-linecap="round" stroke-linejoin="round"/>
</svg>
