<svg width="34" height="34" viewBox="0 0 34 34" fill="none" xmlns="http://www.w3.org/2000/svg">
<path d="M11.8939 12.939L0.199256 1.25192C0.127134 1.19467 0.071279 1.11952 0.0372615 1.03395C0.00324403 0.948385 -0.00774755 0.855396 0.0053827 0.764256C0.0185129 0.673117 0.0553061 0.587013 0.112094 0.514529C0.168881 0.442044 0.243679 0.385713 0.329027 0.351153L1.04659 0.0458091C1.24296 -0.0152697 1.45326 -0.0152697 1.64964 0.0458091L7.47408 1.24428L11.9168 5.68704L13.1306 11.4962C13.1706 11.7007 13.1521 11.9124 13.0771 12.1069L12.7871 12.8168C12.7529 12.9017 12.6968 12.976 12.6246 13.0323C12.5524 13.0885 12.4666 13.1247 12.3759 13.1371C12.2853 13.1495 12.1929 13.1377 12.1083 13.1029C12.0236 13.0681 11.9497 13.0115 11.8939 12.939Z" transform="translate(1 19.8584)" fill="#B8C9FF"/>
<path d="M9.48935 5.16829L10.3672 4.13775L7.47408 1.22172L1.64964 0.0232423C1.44787 -0.02069 1.23749 -0.00204947 1.04659 0.0766773L0.329027 0.359121C0.243679 0.393681 0.168881 0.450011 0.112094 0.522495C0.0553061 0.59498 0.0185129 0.681085 0.0053827 0.772225C-0.00774755 0.863364 0.00324403 0.956354 0.0372615 1.04192C0.071279 1.12749 0.127134 1.20264 0.199256 1.25989L0.962616 2.02325H1.05422C1.24513 1.94452 1.4555 1.92588 1.65727 1.96981L7.47408 3.13012L9.48935 5.16829Z" transform="translate(1 19.8804)" fill="#D2DAFF"/>
<path d="M5.13741 0.389312L4.7481 0L0 2.51909L2.44275 4.95421C2.81763 4.95609 3.19069 4.90206 3.54962 4.7939C4.38731 4.52623 5.16506 4.09846 5.8397 3.53436L5.13741 0.389312Z" transform="translate(7.75659 25.1558)" fill="#A1B7FF"/>
<path d="M11.8939 12.939L0.199256 1.25192C0.127134 1.19467 0.071279 1.11952 0.0372615 1.03395C0.00324403 0.948385 -0.00774755 0.855396 0.0053827 0.764256C0.0185129 0.673117 0.0553061 0.587013 0.112094 0.514529C0.168881 0.442044 0.243679 0.385713 0.329027 0.351153L1.04659 0.0458091C1.24296 -0.0152697 1.45326 -0.0152697 1.64964 0.0458091L7.47408 1.24428L11.9168 5.68704L13.1306 11.4962C13.1706 11.7007 13.1521 11.9124 13.0771 12.1069L12.7871 12.8168C12.7529 12.9017 12.6968 12.976 12.6246 13.0323C12.5524 13.0885 12.4666 13.1247 12.3759 13.1371C12.2853 13.1495 12.1929 13.1377 12.1083 13.1029C12.0236 13.0681 11.9497 13.0115 11.8939 12.939Z" transform="translate(1 19.8584)" stroke="#45413C" stroke-linecap="round" stroke-linejoin="round"/>
<path d="M1.0687 0H3.20611C3.48955 0 3.76138 0.112596 3.9618 0.313017C4.16222 0.513438 4.27482 0.785266 4.27482 1.0687V6.95421H0V1.0687C0 0.92836 0.0276419 0.78939 0.0813493 0.659728C0.135057 0.530067 0.213777 0.412255 0.313015 0.313017C0.412254 0.213779 0.530067 0.135058 0.659728 0.0813508C0.78939 0.0276433 0.928358 0 1.0687 0Z" transform="translate(29.3571 18.2544) rotate(45)" fill="#C0DCEB" stroke="#45413C" stroke-linecap="round" stroke-linejoin="round"/>
<path d="M1.0687 0H3.20611C3.48955 0 3.76138 0.112596 3.9618 0.313017C4.16222 0.513437 4.27482 0.785266 4.27482 1.0687V6.94658H0V1.0687C0 0.785266 0.112595 0.513437 0.313016 0.313017C0.513437 0.112596 0.785266 0 1.0687 0Z" transform="translate(12.7158 1.62402) rotate(45)" fill="#C0DCEB" stroke="#45413C" stroke-linecap="round" stroke-linejoin="round"/>
<path d="M24.3024 26.4684L17.1269 17.3081L9.56959 9.74319L0.409271 2.5676C0.261737 2.45192 0.147231 2.29946 0.0772485 2.12553C0.00726573 1.95161 -0.0157312 1.76233 0.0105658 1.5767C0.0368628 1.39108 0.111528 1.21563 0.227067 1.06799C0.342606 0.920342 0.494953 0.805689 0.668813 0.735537L2.12683 0.155383C2.51862 -0.0050244 2.94997 -0.042302 3.36347 0.0485125L15.2566 2.5905L24.3177 11.6669L26.8292 23.5066C26.9078 23.922 26.8654 24.3512 26.707 24.7432L26.1192 26.2012C26.0487 26.3724 25.9348 26.5223 25.7889 26.6362C25.643 26.7501 25.4699 26.8241 25.2868 26.8511C25.1036 26.878 24.9166 26.8569 24.744 26.7898C24.5715 26.7227 24.4193 26.612 24.3024 26.4684Z" transform="translate(3.90454 3.19873)" fill="#B8C9FF"/>
<path d="M7.06108 0L7.74811 0.67939L8.6107 4.7481L2.71756 9.09162L0.564886 6.35116L0 5.7939L7.06108 0Z" transform="translate(20.4741 14.1787)" fill="#A1B7FF"/>
<path d="M15.6917 3.01314L14.2872 4.70016L3.37111 2.41008C2.95511 2.31865 2.52114 2.35592 2.12683 2.51695L0.943622 2.99024L0.40927 2.57039C0.261737 2.4547 0.147231 2.30225 0.0772485 2.12832C0.00726573 1.95439 -0.0157312 1.76511 0.0105658 1.57949C0.0368628 1.39386 0.111528 1.21842 0.227067 1.07077C0.342606 0.923128 0.494953 0.808474 0.668813 0.738322L2.12683 0.150535C2.52293 -0.00292388 2.95464 -0.0400031 3.37111 0.0436642L15.2261 2.53222L15.6917 3.01314Z" transform="translate(3.93518 3.24951)" fill="#D2DAFF"/>
<path d="M24.3024 26.4684L17.1269 17.3081L9.56959 9.74319L0.409271 2.5676C0.261737 2.45192 0.147231 2.29946 0.0772485 2.12553C0.00726573 1.95161 -0.0157312 1.76233 0.0105658 1.5767C0.0368628 1.39108 0.111528 1.21563 0.227067 1.06799C0.342606 0.920342 0.494953 0.805688 0.668813 0.735537L2.12683 0.155383C2.51862 -0.0050244 2.94997 -0.042302 3.36347 0.0485125L15.2566 2.5905L24.3177 11.6669L26.8292 23.5066C26.9078 23.922 26.8654 24.3512 26.707 24.7432L26.1192 26.2012C26.0487 26.3724 25.9348 26.5223 25.7889 26.6362C25.643 26.7501 25.4699 26.8241 25.2868 26.8511C25.1036 26.878 24.9166 26.8569 24.744 26.7898C24.5715 26.7227 24.4193 26.612 24.3024 26.4684Z" transform="translate(3.90454 3.19873)" stroke="#45413C" stroke-linecap="round" stroke-linejoin="round"/>
<path d="M0.971899 24.2339L14.8193 7.57733C15.1592 7.16943 15.5461 6.80303 15.9719 6.48573C19.3612 3.55442 24.4758 1.48572 26.7887 3.7987C27.1864 4.20542 27.4729 4.70747 27.6208 5.25672C27.972 3.54679 27.7964 1.98953 26.7887 0.981899C24.4987 -1.30818 19.3612 0.745257 15.9719 3.67656C15.5445 3.98897 15.1573 4.35306 14.8193 4.76053L0.971899 21.44C0.502558 21.9876 0.188471 22.651 0.0622827 23.3612C-0.0639056 24.0713 0.00241142 24.8023 0.25434 25.4781C0.422296 25.0262 0.664845 24.6056 0.971899 24.2339Z" transform="translate(5.21204 1.01318)" fill="white"/>
<path d="M24.1082 11.8198C27.0396 8.43049 29.1159 3.31598 26.7953 0.995362C24.4747 -1.32525 19.3678 0.75872 15.9785 3.69002C15.551 4.00243 15.1638 4.36652 14.8258 4.77399L0.978437 21.4534C0.333771 22.1826 -0.0150387 23.1263 0.000497532 24.0995C0.0160338 25.0726 0.394793 26.0048 1.06241 26.713C1.77046 27.38 2.70182 27.7591 3.67447 27.776C4.64711 27.793 5.59111 27.4466 6.32196 26.8046L23.0243 12.9649C23.4296 12.6274 23.7935 12.243 24.1082 11.8198Z" transform="translate(5.20569 1)" fill="#E8F4FA"/>
<path d="M24.1083 11.8198C27.0396 8.43049 29.1159 3.31598 26.7953 0.995362C24.4747 -1.32525 19.3678 0.75872 15.9785 3.69002C15.551 4.00243 15.1638 4.36652 14.8258 4.77399L0.978437 21.4534C0.333771 22.1826 -0.0150387 23.1263 0.000497532 24.0995C0.0160338 25.0726 0.394793 26.0048 1.06241 26.713C1.77046 27.38 2.70182 27.7591 3.67447 27.776C4.64711 27.793 5.59111 27.4466 6.32196 26.8046L23.0243 12.9649C23.4296 12.6274 23.7935 12.243 24.1083 11.8198Z" transform="translate(5.20569 1)" stroke="#45413C" stroke-linecap="round" stroke-linejoin="round"/>
<path d="M5.16472 1.60672C4.52575 0.984324 3.74882 0.521638 2.8972 0.256335C2.04558 -0.00896795 1.14334 -0.0693875 0.263942 0.0799965L0.00439959 2.37008C-0.00628544 2.45283 0.00255678 2.53694 0.0302202 2.61566C0.0578836 2.69438 0.103599 2.76553 0.163703 2.82341C0.223807 2.88129 0.29663 2.92428 0.376339 2.94896C0.456048 2.97363 0.54043 2.9793 0.622722 2.9655C1.38608 2.83573 2.63036 2.84336 3.27158 3.48458C3.9128 4.12581 3.92807 5.40062 3.79067 6.14108C3.77687 6.22337 3.78253 6.30775 3.80721 6.38746C3.83188 6.46717 3.87488 6.53999 3.93276 6.60009C3.99063 6.6602 4.06178 6.70591 4.14051 6.73358C4.21923 6.76124 4.30333 6.77008 4.38609 6.7594L6.67617 6.49986C6.8232 5.62288 6.76309 4.72367 6.50065 3.87406C6.23822 3.02446 5.78072 2.248 5.16472 1.60672Z" transform="translate(23.7903 3.43457)" fill="#B8C9FF"/>
<path d="M0.263942 0.0812941L0.00439959 2.37137C-0.00628544 2.45413 0.00255678 2.53823 0.0302202 2.61696C0.0578836 2.69568 0.103599 2.76683 0.163703 2.82471C0.223807 2.88258 0.29663 2.92558 0.376339 2.95026C0.456048 2.97493 0.54043 2.98059 0.622722 2.9668C1.05924 2.89508 1.5034 2.88224 1.94334 2.92863L5.08838 1.51641C4.44828 0.923018 3.68018 0.484924 2.84357 0.23606C2.00697 -0.012804 1.1243 -0.0657596 0.263942 0.0812941Z" transform="translate(23.7903 3.41797)" fill="#D2DAFF"/>
<path d="M5.16472 1.60672C4.52575 0.984324 3.74882 0.521638 2.8972 0.256335C2.04558 -0.00896795 1.14334 -0.0693875 0.263942 0.0799965L0.00439959 2.37008C-0.00628544 2.45283 0.00255678 2.53694 0.0302202 2.61566C0.0578836 2.69438 0.103599 2.76553 0.163703 2.82341C0.223807 2.88129 0.29663 2.92428 0.376339 2.94896C0.456048 2.97363 0.54043 2.9793 0.622722 2.9655C1.38608 2.83573 2.63036 2.84336 3.27158 3.48458C3.9128 4.12581 3.92807 5.40062 3.79067 6.14108C3.77687 6.22337 3.78253 6.30775 3.80721 6.38746C3.83188 6.46717 3.87488 6.53999 3.93276 6.60009C3.99063 6.6602 4.06178 6.70591 4.14051 6.73358C4.21923 6.76124 4.30333 6.77008 4.38609 6.7594L6.67617 6.49986C6.8232 5.62288 6.76309 4.72367 6.50065 3.87406C6.23822 3.02446 5.78072 2.248 5.16472 1.60672V1.60672Z" transform="translate(23.7903 3.43457)" stroke="#45413C" stroke-linecap="round" stroke-linejoin="round"/>
<path d="M8.12979 9.39746C9.00486 8.27007 9.44943 6.86768 9.38367 5.44204C9.31792 4.0164 8.74615 2.66088 7.77101 1.61882C6.73076 0.642525 5.37562 0.0704957 3.95045 0.00609676C2.52527 -0.0583021 1.12406 0.389177 0 1.26768" transform="translate(21.1838 3.42236)" stroke="#45413C" stroke-linecap="round" stroke-linejoin="round"/>
<path d="M0.317533 6.00323C0.216903 5.9032 0.137044 5.78426 0.082549 5.65325C0.0280544 5.52225 0 5.38176 0 5.23987C0 5.09798 0.0280544 4.95749 0.082549 4.82649C0.137044 4.69548 0.216903 4.57654 0.317533 4.47651L4.47785 0.316195C4.57809 0.215949 4.6971 0.136429 4.82808 0.0821763C4.95906 0.0279236 5.09944 1.05626e-09 5.24121 0C5.38298 -1.05626e-09 5.52336 0.0279236 5.65434 0.0821763C5.78531 0.136429 5.90432 0.215949 6.00457 0.316195C6.10481 0.416441 6.18433 0.53545 6.23858 0.666427C6.29284 0.797405 6.32076 0.937786 6.32076 1.07956C6.32076 1.22132 6.29284 1.36171 6.23858 1.49268C6.18433 1.62366 6.10481 1.74267 6.00457 1.84291L1.84425 6.00323C1.74422 6.10386 1.62528 6.18372 1.49428 6.23821C1.36327 6.29271 1.22278 6.32076 1.08089 6.32076C0.939005 6.32076 0.798516 6.29271 0.667509 6.23821C0.536502 6.18372 0.417563 6.10386 0.317533 6.00323Z" transform="translate(5.96582 21.71)" fill="#B8C9FF" stroke="#45413C" stroke-linecap="round" stroke-linejoin="round"/>
</svg>
