<svg width="44" height="32" viewBox="0 0 44 32" fill="none" xmlns="http://www.w3.org/2000/svg">
<path d="M0 0H41.84V3.55C41.84 4.12817 41.6103 4.68266 41.2015 5.09149C40.7927 5.50032 40.2382 5.73 39.66 5.73H2.18C1.60183 5.73 1.04734 5.50032 0.638507 5.09149C0.229678 4.68266 0 4.12817 0 3.55V0Z" transform="translate(1 24.6323)" fill="#E4FFD1" stroke="#45413C" stroke-linecap="round" stroke-linejoin="round"/>
<path d="M0 0H41.84V3.55C41.84 4.12817 41.6103 4.68266 41.2015 5.09149C40.7927 5.50032 40.2382 5.73 39.66 5.73H2.18C1.60183 5.73 1.04734 5.50032 0.638507 5.09149C0.229678 4.68266 0 4.12817 0 3.55V0Z" transform="translate(1 21.7725)" fill="#E4FFD1" stroke="#45413C" stroke-linecap="round" stroke-linejoin="round"/>
<path d="M0 0H11.18V6.21C11.18 6.35587 11.1221 6.49576 11.0189 6.59891C10.9158 6.70205 10.7759 6.76 10.63 6.76H0.59C0.444131 6.76 0.304237 6.70205 0.201092 6.59891C0.0979468 6.49576 0.0400009 6.35587 0.0400009 6.21V0H0Z" transform="translate(16.33 24.6323)" fill="#DEBB7E" stroke="#45413C" stroke-linecap="round" stroke-linejoin="round"/>
<path d="M39.66 0H2.18C0.97602 0 0 0.97602 0 2.18V20.38C0 21.584 0.97602 22.56 2.18 22.56H39.66C40.864 22.56 41.84 21.584 41.84 20.38V2.18C41.84 0.97602 40.864 0 39.66 0Z" transform="translate(1 2.07227)" fill="#F0FFE5"/>
<path d="M39.66 0H2.18C1.60091 0.00264427 1.04644 0.234543 0.637897 0.644961C0.229352 1.05538 -6.03706e-06 1.6109 1.1918e-10 2.19V5.97C0.00263039 5.39264 0.233153 4.83967 0.641413 4.43141C1.04967 4.02315 1.60264 3.79263 2.18 3.79H39.66C40.2374 3.79263 40.7903 4.02315 41.1986 4.43141C41.6068 4.83967 41.8374 5.39264 41.84 5.97V2.19C41.84 1.6109 41.6106 1.05538 41.2021 0.644961C40.7936 0.234543 40.2391 0.00264427 39.66 0Z" transform="translate(1 2.07227)" fill="white"/>
<path d="M39.66 0H2.18C0.97602 0 0 0.97602 0 2.18V20.38C0 21.584 0.97602 22.56 2.18 22.56H39.66C40.864 22.56 41.84 21.584 41.84 20.38V2.18C41.84 0.97602 40.864 0 39.66 0Z" transform="translate(1 2.07227)" stroke="#45413C" stroke-linecap="round" stroke-linejoin="round"/>
<path d="M0.59 0.00161735H10.59C10.6622 0.00161735 10.7337 0.0158436 10.8005 0.0434837C10.8672 0.0711237 10.9278 0.111636 10.9789 0.162708C11.03 0.21378 11.0705 0.274413 11.0981 0.341142C11.1258 0.407871 11.14 0.479391 11.14 0.551618V23.6316H0V0.501617C0.0127366 0.357396 0.0818278 0.224013 0.192282 0.130408C0.302736 0.0368032 0.445643 -0.0094736 0.59 0.00161735Z" transform="translate(16.33 1.00098)" fill="#F0D5A8"/>
<path d="M10.5901 0.00233302H0.540094C0.46833 0.00232072 0.397285 0.0166122 0.331109 0.0443729C0.264933 0.0721336 0.204952 0.112807 0.154676 0.164014C0.104399 0.215222 0.0648349 0.275937 0.038293 0.342612C0.0117511 0.409286 -0.00123635 0.480582 9.25983e-05 0.552333V3.92233C9.25983e-05 3.77912 0.056986 3.64176 0.158256 3.5405C0.259525 3.43923 0.396877 3.38233 0.540094 3.38233H10.6401C10.7833 3.38233 10.9207 3.43923 11.0219 3.5405C11.1232 3.64176 11.1801 3.77912 11.1801 3.92233V0.552333C11.1818 0.476173 11.1674 0.400505 11.1379 0.330304C11.1083 0.260102 11.0642 0.196953 11.0084 0.145007C10.9527 0.0930618 10.8866 0.0534941 10.8145 0.0289043C10.7424 0.00431451 10.6659 -0.00474059 10.5901 0.00233302Z" transform="translate(16.3799 1)" fill="#F7E5C6"/>
<path d="M0.59 0.00161735H10.59C10.6622 0.00161735 10.7337 0.0158436 10.8005 0.0434837C10.8672 0.0711237 10.9278 0.111636 10.9789 0.162708C11.03 0.21378 11.0705 0.274413 11.0981 0.341142C11.1258 0.407871 11.14 0.479391 11.14 0.551618V23.6316H0V0.501617C0.0127366 0.357396 0.0818278 0.224013 0.192282 0.130408C0.302736 0.0368032 0.445643 -0.0094736 0.59 0.00161735Z" transform="translate(16.33 1.00098)" stroke="#45413C" stroke-linecap="round" stroke-linejoin="round"/>
<path d="M0 0H10.05C10.1931 0 10.3349 0.0281939 10.4671 0.0829716C10.5994 0.137749 10.7195 0.218038 10.8207 0.319254C10.922 0.42047 11.0023 0.540631 11.057 0.672875C11.1118 0.80512 11.14 0.946859 11.14 1.09V13.73C11.14 13.8731 11.1118 14.0149 11.057 14.1471C11.0023 14.2794 10.922 14.3995 10.8207 14.5007C10.7195 14.602 10.5994 14.6823 10.4671 14.737C10.3349 14.7918 10.1931 14.82 10.05 14.82H0V0Z" transform="translate(27.51 5.94238)" fill="#C8FFA1" stroke="#45413C" stroke-linecap="round" stroke-linejoin="round"/>
<path d="M0 0H10.05C10.3391 0 10.6163 0.114839 10.8207 0.319254C11.0252 0.523669 11.14 0.800914 11.14 1.09V13.73C11.14 14.0191 11.0252 14.2963 10.8207 14.5007C10.6163 14.7052 10.3391 14.82 10.05 14.82H0V0Z" transform="translate(16.33 20.7627) rotate(180)" fill="#C8FFA1" stroke="#45413C" stroke-linecap="round" stroke-linejoin="round"/>
<path d="M2.15051 6.6407V4.9807L1.43051 4.7507C1.17061 4.66435 0.922136 4.54683 0.690513 4.4007C0.481966 4.26033 0.31043 4.07164 0.190513 3.8507C0.0601422 3.5902 -0.00505681 3.30195 0.000513488 3.0107C-0.00483823 2.62446 0.0954388 2.2441 0.290513 1.9107C0.477308 1.58729 0.742001 1.31573 1.06051 1.1207C1.39578 0.92827 1.76658 0.805803 2.15051 0.760701V0.4707C2.14418 0.384149 2.14418 0.297251 2.15051 0.2107C2.15688 0.154409 2.18146 0.101739 2.22051 0.0607001C2.27388 0.0172082 2.34185 -0.00425408 2.41051 0.000700632C2.53051 0.000700632 2.61051 0.000701241 2.63051 0.110701C2.66903 0.22664 2.68598 0.348653 2.68051 0.4707V0.770701C3.08613 0.786858 3.48566 0.874891 3.86051 1.0307C4.01684 1.07809 4.15463 1.17277 4.25492 1.30171C4.35521 1.43066 4.41306 1.58752 4.42051 1.7507C4.4254 1.94314 4.36159 2.13104 4.24051 2.2807C4.18026 2.34809 4.1062 2.40173 4.02338 2.43796C3.94056 2.4742 3.8509 2.49219 3.76051 2.4907C3.57863 2.47887 3.39976 2.43837 3.23051 2.3707C3.05255 2.30276 2.86833 2.25251 2.68051 2.2207V3.5507C3.07075 3.65702 3.45195 3.79411 3.82051 3.9607C4.17253 4.11094 4.46929 4.36667 4.66988 4.69263C4.87047 5.01859 4.96503 5.39875 4.94051 5.7807C4.94792 6.08933 4.88998 6.39604 4.77051 6.6807C4.6579 6.94572 4.49097 7.18418 4.28051 7.3807C4.06804 7.58332 3.82074 7.74592 3.55051 7.8607C3.27159 7.97049 2.97881 8.04116 2.68051 8.0707V8.3907C2.68051 8.4907 2.68051 8.5707 2.68051 8.6307C2.6728 8.69157 2.64459 8.74801 2.60051 8.7907C2.57665 8.81372 2.54845 8.83177 2.51755 8.84379C2.48664 8.8558 2.45366 8.86155 2.42051 8.8607C2.30051 8.8607 2.22051 8.8607 2.19051 8.7407C2.17148 8.62481 2.17148 8.50659 2.19051 8.3907V8.0807C1.85424 8.07093 1.51955 8.03076 1.19051 7.9607C0.88928 7.90923 0.602735 7.79325 0.350513 7.6207C0.242531 7.55263 0.153712 7.45811 0.0924639 7.34612C0.0312161 7.23412 -0.000432504 7.10835 0.000513488 6.9807C-0.00647274 6.79702 0.058051 6.61778 0.180513 6.4807C0.23943 6.41167 0.313239 6.35691 0.396381 6.32054C0.479523 6.28417 0.569833 6.26713 0.660513 6.2707C0.911581 6.29325 1.15774 6.35395 1.39051 6.4507C1.63702 6.53875 1.89157 6.60239 2.15051 6.6407ZM2.15051 3.3607V2.2207C2.00581 2.25716 1.87418 2.33336 1.77051 2.4407C1.67207 2.54648 1.61832 2.68622 1.62051 2.8307C1.61849 2.88723 1.62911 2.9435 1.6516 2.9954C1.67409 3.0473 1.70788 3.09352 1.75051 3.1307C1.8715 3.21963 2.00677 3.28727 2.15051 3.3307V3.3607ZM2.70051 5.1407V6.6007C2.886 6.56129 3.05209 6.4588 3.17051 6.3107C3.28865 6.16717 3.35238 5.98658 3.35051 5.8007C3.34051 5.5107 3.12051 5.3307 2.70051 5.1407Z" transform="translate(8.21948 9.17188)" fill="#45413C"/>
<path d="M4.78 2.39C4.78 2.8627 4.63983 3.32478 4.37722 3.71781C4.1146 4.11085 3.74133 4.41718 3.30461 4.59807C2.8679 4.77897 2.38735 4.8263 1.92374 4.73408C1.46012 4.64186 1.03427 4.41423 0.700019 4.07999C0.365771 3.74574 0.138143 3.31988 0.0459241 2.85627C-0.0462946 2.39265 0.00103605 1.9121 0.181929 1.47539C0.362823 1.03867 0.669156 0.665405 1.06219 0.402788C1.45522 0.140172 1.9173 0 2.39 0C3.02387 0 3.63178 0.251804 4.07999 0.700016C4.5282 1.14823 4.78 1.75613 4.78 2.39Z" transform="translate(30.6899 10.9624)" fill="#6DD627" stroke="#45413C" stroke-linecap="round" stroke-linejoin="round"/>
</svg>
