<svg width="31" height="44" viewBox="0 0 31 44" fill="none" xmlns="http://www.w3.org/2000/svg">
<rect width="29" height="42" fill="black" fill-opacity="0" transform="translate(1 1)"/>
<path d="M12.0029 11.1237C12.0029 11.1237 11.3232 8.84634 13.0766 5.0573C14.83 1.26826 18.0511 0.403045 19.8932 1.35776C20.4665 1.64746 20.9375 2.10827 21.2424 2.67762C21.5473 3.24696 21.6712 3.89725 21.5973 4.54016C21.5973 4.54016 25.0746 3.78434 25.5967 6.60872C26.1187 9.43309 24.3653 10.4773 22.1096 10.5867C20.8293 10.6248 19.5985 11.0939 18.6126 11.9193L12.0029 11.1237Z" fill="#FCC2C1"/>
<path d="M21.5977 4.58007C21.6715 3.93716 21.5476 3.28687 21.2427 2.71753C20.9379 2.14818 20.4668 1.68737 19.8935 1.39767C18.0909 0.462845 14.8993 1.39767 13.1853 4.86847C14.3871 3.71486 15.7858 2.96898 17.1255 3.35684C19.4404 4.04304 19.2828 5.39556 19.2828 5.39556C20.7228 5.05475 22.2379 5.30134 23.4988 6.08176C24.4811 6.6927 25.1881 7.66697 25.4689 8.79674C25.7266 8.11072 25.7746 7.36249 25.6068 6.64863C25.0749 3.82425 21.5977 4.58007 21.5977 4.58007Z" fill="#FFF5F5"/>
<path d="M12.0029 11.1237C12.0029 11.1237 11.3232 8.84634 13.0766 5.0573C14.83 1.26826 18.0511 0.403045 19.8932 1.35776C20.4665 1.64746 20.9375 2.10827 21.2424 2.67762C21.5473 3.24696 21.6712 3.89725 21.5973 4.54016C21.5973 4.54016 25.0746 3.78434 25.5967 6.60872C26.1187 9.43309 24.3653 10.4773 22.1096 10.5867C20.8293 10.6248 19.5985 11.0939 18.6126 11.9193L12.0029 11.1237Z" stroke="#45413C" stroke-linecap="round" stroke-linejoin="round"/>
<path d="M20.7601 12.7648C20.7601 14.4157 18.4058 16.5439 15.4999 16.5439C12.594 16.5439 10.2397 14.4157 10.2397 12.7648C10.2397 11.1139 12.594 10.5371 15.4999 10.5371C18.4058 10.5371 20.7601 11.1239 20.7601 12.7648Z" fill="#FFB0B1" stroke="#45413C" stroke-linecap="round" stroke-linejoin="round"/>
<path d="M28.5224 40.9589C28.949 40.8338 29.3237 40.5722 29.5902 40.2135C29.8567 39.8547 30.0005 39.4183 30 38.9699L29.3794 25.8624C29.0543 18.9407 22.9372 13.5405 15.5 13.5405C8.06284 13.5405 1.9555 18.9407 1.63044 25.7828L1 38.8903C1.00008 39.34 1.14532 39.7774 1.41372 40.1363C1.68211 40.4952 2.05905 40.7561 2.48743 40.8793C10.9399 43.6795 20.0533 43.7073 28.5224 40.9589Z" fill="#FCC2C1"/>
<path d="M29.5272 28.9055L29.3794 25.7828C29.0543 18.9407 22.9371 13.5405 15.5 13.5405C8.06283 13.5405 1.95549 18.9407 1.63042 25.7828L1.48267 28.9055C2.36921 22.5805 8.4667 17.7473 15.5 17.7473C22.5333 17.7473 28.6406 22.5805 29.5272 28.9055Z" fill="#FFF5F5"/>
<path d="M28.5224 40.9589C28.949 40.8338 29.3237 40.5722 29.5902 40.2135C29.8567 39.8547 30.0005 39.4183 30 38.9699L29.3794 25.8624C29.0543 18.9407 22.9372 13.5405 15.5 13.5405C8.06284 13.5405 1.9555 18.9407 1.63044 25.7828L1 38.8903C1.00008 39.34 1.14532 39.7774 1.41372 40.1363C1.68211 40.4952 2.05905 40.7561 2.48743 40.8793C10.9399 43.6795 20.0533 43.7073 28.5224 40.9589V40.9589Z" stroke="#45413C" stroke-linecap="round" stroke-linejoin="round"/>
<path d="M11.7568 18.692C11.7568 15.8478 13.4314 13.5405 15.5 13.5405C17.5687 13.5405 19.2531 15.8478 19.2531 18.692" stroke="#45413C" stroke-linecap="round" stroke-linejoin="round"/>
<path d="M21.5977 4.58008C19.951 4.86465 18.4404 5.6813 17.293 6.90721L21.5977 4.58008Z" fill="#543F3F"/>
<path d="M21.5977 4.58008C19.951 4.86465 18.4404 5.6813 17.293 6.90721" stroke="#45413C" stroke-linecap="round" stroke-linejoin="round"/>
<rect width="10.0727" height="18.1766" fill="black" fill-opacity="0" transform="translate(10.4858 20.9836)"/>
<path d="M14.8595 34.6435V31.2324L13.4016 30.755C12.8706 30.5823 12.3665 30.3345 11.9043 30.0191C11.4919 29.7291 11.1542 29.3438 10.9193 28.8953C10.6475 28.3645 10.5152 27.7721 10.5351 27.1748C10.524 26.3964 10.7179 25.629 11.0969 24.951C11.476 24.273 12.0265 23.7089 12.6924 23.3162C13.3629 22.9125 14.1125 22.6614 14.889 22.5802V21.9537C14.889 21.715 14.889 21.536 14.889 21.4167C14.8937 21.3524 14.9116 21.2898 14.9414 21.2327C14.9712 21.1757 15.0124 21.1256 15.0624 21.0854C15.1123 21.0452 15.17 21.016 15.2317 20.9994C15.2934 20.9828 15.3578 20.9793 15.421 20.989C15.6672 20.989 15.815 21.0686 15.8741 21.2178C15.9467 21.4558 15.9767 21.705 15.9627 21.9537V22.5802C16.7872 22.6043 17.5995 22.7866 18.3564 23.1173C18.6089 23.1877 18.8397 23.3213 19.0274 23.5057C19.2152 23.6901 19.3537 23.9194 19.4304 24.1723C19.507 24.4251 19.5191 24.6934 19.4657 24.9523C19.4123 25.2112 19.295 25.4523 19.1248 25.6532C19.0061 25.7997 18.8553 25.9163 18.6844 25.994C18.5134 26.0716 18.327 26.1082 18.1397 26.1008C17.7729 26.0779 17.4128 25.9903 17.0759 25.8422C16.715 25.6969 16.3379 25.5967 15.9529 25.5439V28.2688C16.7464 28.4873 17.5233 28.7632 18.2776 29.0942C18.9124 29.3907 19.4617 29.846 19.8734 30.4169C20.3593 31.124 20.5984 31.9742 20.5531 32.8335C20.5602 33.4648 20.4396 34.0909 20.1985 34.6734C19.9745 35.2188 19.6388 35.7102 19.2134 36.1154C18.7861 36.5363 18.2851 36.8735 17.7358 37.1099C17.1734 37.3554 16.5739 37.5033 15.9627 37.5475V38.2038C15.9627 38.4127 15.9627 38.5718 15.9627 38.7011C15.9464 38.8227 15.895 38.9368 15.815 39.0293C15.7648 39.0758 15.7057 39.1113 15.6412 39.1335C15.5768 39.1558 15.5085 39.1643 15.4407 39.1585C15.1944 39.1585 15.0466 39.079 14.9777 38.9199C14.91 38.6876 14.88 38.4458 14.889 38.2038V37.5673C14.227 37.5484 13.5679 37.4719 12.9189 37.3386C12.3045 37.2229 11.7207 36.979 11.2049 36.6226C10.985 36.4853 10.8036 36.2935 10.6777 36.0655C10.5518 35.8375 10.4858 35.5808 10.4858 35.3198C10.4853 34.9531 10.6186 34.5991 10.8602 34.3253C10.9836 34.1866 11.136 34.0771 11.3063 34.0049C11.4766 33.9327 11.6607 33.8995 11.8452 33.9076C12.3494 33.9525 12.8441 34.0732 13.3129 34.2656C13.8148 34.4428 14.3329 34.5694 14.8595 34.6435ZM14.8595 27.9207V25.5836C14.5653 25.6588 14.2986 25.8175 14.0911 26.0411C13.8912 26.2524 13.7815 26.5346 13.7858 26.8268C13.7814 26.9446 13.8029 27.0619 13.8489 27.1702C13.8949 27.2786 13.9642 27.3753 14.0517 27.4533C14.2934 27.6532 14.5664 27.8112 14.8595 27.9207ZM15.9529 31.5705V34.554C16.3401 34.477 16.6884 34.266 16.9379 33.9573C17.1735 33.658 17.2988 33.2854 17.2926 32.9031C17.263 32.3164 16.8296 31.8689 15.9529 31.5705Z" fill="#45413C"/>
</svg>
