<svg width="31" height="44" viewBox="0 0 31 44" fill="none" xmlns="http://www.w3.org/2000/svg">
<path d="M0.131593 10.1797C0.131593 10.1797 -0.558407 7.88974 1.22159 4.07974C3.00159 0.269743 6.27159 -0.600257 8.14159 0.359743C8.72356 0.651041 9.20177 1.1144 9.51128 1.6869C9.82078 2.25939 9.94658 2.91328 9.87159 3.55974C9.87159 3.55974 13.4016 2.79974 13.9316 5.63974C14.4616 8.47974 12.6816 9.52974 10.3916 9.63974C9.09194 9.67805 7.84239 10.1497 6.84159 10.9797L0.131593 10.1797Z" transform="translate(12.0385 1)" fill="#F0D5A8"/>
<path d="M8.54 3.54267C8.61499 2.89621 8.48919 2.24232 8.17969 1.66983C7.87018 1.09733 7.39197 0.633972 6.81 0.342674C4.98 -0.597326 1.74 0.342674 0 3.83267C1.22 2.67267 2.64 1.92267 4 2.31267C6.35 3.00267 6.19 4.36267 6.19 4.36267C7.65186 4.01998 9.1899 4.26793 10.47 5.05267C11.4672 5.66699 12.1849 6.64665 12.47 7.78267C12.7315 7.09286 12.7803 6.34048 12.61 5.62267C12.07 2.78267 8.54 3.54267 8.54 3.54267Z" transform="translate(13.37 1.05713)" fill="#F7E5C6"/>
<path d="M0.131593 10.1797C0.131593 10.1797 -0.558407 7.88974 1.22159 4.07974C3.00159 0.269743 6.27159 -0.600257 8.14159 0.359743C8.72356 0.651041 9.20177 1.1144 9.51128 1.6869C9.82078 2.25939 9.94658 2.91328 9.87159 3.55974C9.87159 3.55974 13.4016 2.79974 13.9316 5.63974C14.4616 8.47974 12.6816 9.52974 10.3916 9.63974C9.09194 9.67805 7.84239 10.1497 6.84159 10.9797L0.131593 10.1797Z" transform="translate(12.0385 1)" stroke="#45413C" stroke-linecap="round" stroke-linejoin="round"/>
<path d="M10.68 2.24C10.68 3.9 8.29 6.04 5.34 6.04C2.39 6.04 0 3.9 0 2.24C0 0.58 2.39 0 5.34 0C8.29 0 10.68 0.59 10.68 2.24Z" transform="translate(10.38 10.5898)" fill="#BF8256" stroke="#45413C" stroke-linecap="round" stroke-linejoin="round"/>
<path d="M27.94 27.57C28.373 27.4443 28.7535 27.1812 29.024 26.8205C29.2945 26.4598 29.4405 26.0209 29.44 25.57L28.81 12.39C28.48 5.43 22.27 0 14.72 0C7.17 0 0.97 5.43 0.64 12.31L0 25.49C8.15197e-05 25.9422 0.147523 26.382 0.419992 26.7429C0.692462 27.1038 1.07512 27.3661 1.51 27.49C10.0907 30.3057 19.3424 30.3337 27.94 27.57Z" transform="translate(1 13.6099)" fill="#F0D5A8"/>
<path d="M28.47 15.45L28.32 12.31C27.99 5.43 21.78 0 14.23 0C6.68 0 0.48 5.43 0.15 12.31L0 15.45C0.9 9.09 7.09 4.23 14.23 4.23C21.37 4.23 27.57 9.09 28.47 15.45Z" transform="translate(1.48999 13.6099)" fill="#F7E5C6"/>
<path d="M27.94 27.57C28.373 27.4443 28.7535 27.1812 29.024 26.8205C29.2945 26.4598 29.4405 26.0209 29.44 25.57L28.81 12.39C28.48 5.43 22.27 0 14.72 0C7.17 0 0.97 5.43 0.64 12.31L0 25.49C8.15197e-05 25.9422 0.147523 26.382 0.419992 26.7429C0.692462 27.1038 1.07512 27.3661 1.51 27.49C10.0907 30.3057 19.3424 30.3337 27.94 27.57V27.57Z" transform="translate(1 13.6099)" stroke="#45413C" stroke-linecap="round" stroke-linejoin="round"/>
<path d="M0 5.18C0 2.32 1.7 0 3.8 0C5.9 0 7.61 2.32 7.61 5.18" transform="translate(11.92 13.6099)" stroke="#45413C" stroke-linecap="round" stroke-linejoin="round"/>
<path d="M4.37 0C2.69836 0.28615 1.16481 1.10732 0 2.34L4.37 0Z" transform="translate(17.54 4.59961)" fill="#FF87AF"/>
<path d="M4.37 0C2.69836 0.28615 1.16481 1.10732 0 2.34" transform="translate(17.54 4.59961)" stroke="#45413C" stroke-linecap="round" stroke-linejoin="round"/>
<path d="M4.44 13.7354V10.3054L2.96 9.82544C2.42095 9.65174 1.9092 9.4026 1.44 9.08544C1.02136 8.79387 0.678493 8.40643 0.440002 7.95544C0.164064 7.42166 0.0297769 6.82598 0.0500009 6.22543C0.0387514 5.4427 0.235582 4.67103 0.620365 3.98931C1.00515 3.3076 1.56408 2.7403 2.24 2.34544C2.92069 1.93957 3.68171 1.68703 4.47 1.60544V0.975435C4.47 0.735435 4.47 0.555436 4.47 0.435436C4.47477 0.370779 4.49286 0.307808 4.52314 0.250482C4.55342 0.193156 4.59524 0.142715 4.64595 0.102329C4.69667 0.0619432 4.75519 0.0324863 4.81785 0.0158115C4.8805 -0.000863289 4.94592 -0.00439585 5.01 0.00543555C5.26 0.00543555 5.41 0.0854351 5.47 0.235435C5.54368 0.474805 5.57416 0.725382 5.56 0.975435V1.60544C6.39692 1.62967 7.22159 1.81293 7.99 2.14543C8.24631 2.21623 8.4806 2.35057 8.67118 2.536C8.86176 2.72144 9.00245 2.95197 9.08023 3.20625C9.15801 3.46052 9.17035 3.73032 9.11613 3.99063C9.0619 4.25095 8.94285 4.49337 8.77 4.69544C8.64948 4.84268 8.49645 4.95996 8.32293 5.03804C8.14941 5.11613 7.96014 5.15289 7.77 5.14543C7.3976 5.12239 7.03209 5.0344 6.69 4.88543C6.32364 4.73936 5.9408 4.63861 5.55 4.58544V7.32544C6.35554 7.54518 7.14424 7.82257 7.91 8.15544C8.55443 8.45361 9.11205 8.91141 9.53 9.48544C10.0232 10.1965 10.266 11.0513 10.22 11.9154C10.2273 12.5502 10.1048 13.1797 9.86 13.7654C9.63264 14.3139 9.29185 14.808 8.86 15.2154C8.42615 15.6387 7.91755 15.9777 7.36 16.2154C6.78902 16.4623 6.18048 16.6111 5.56 16.6554V17.3154C5.56 17.5254 5.56 17.6854 5.56 17.8154C5.54341 17.9378 5.49125 18.0525 5.41 18.1454C5.35909 18.1922 5.29903 18.2279 5.23363 18.2503C5.16822 18.2726 5.09889 18.2812 5.03 18.2754C4.78 18.2754 4.63 18.1954 4.56 18.0354C4.49124 17.8019 4.46085 17.5587 4.47 17.3154V16.6754C3.79796 16.6564 3.12881 16.5795 2.47 16.4454C1.84622 16.3291 1.25359 16.0839 0.730001 15.7254C0.506772 15.5874 0.322531 15.3946 0.194769 15.1653C0.067006 14.936 -3.74162e-05 14.6779 1.61595e-06 14.4154C-0.000539306 14.0467 0.134738 13.6907 0.380003 13.4154C0.505338 13.2759 0.66001 13.1659 0.83291 13.0933C1.00581 13.0207 1.19265 12.9873 1.38 12.9954C1.89182 13.0406 2.39403 13.1619 2.87 13.3554C3.3795 13.5337 3.9054 13.6609 4.44 13.7354ZM4.44 6.97543V4.62544C4.14135 4.70099 3.87064 4.86064 3.66 5.08544C3.45704 5.29791 3.34571 5.58163 3.35 5.87544C3.34552 5.99389 3.36742 6.11186 3.41411 6.22082C3.46081 6.32977 3.53113 6.42699 3.62 6.50544C3.86538 6.70649 4.14249 6.86533 4.44 6.97543ZM5.55 10.6454V13.6454C5.94303 13.568 6.29671 13.3558 6.55 13.0454C6.78911 12.7444 6.91635 12.3698 6.91 11.9854C6.88 11.3954 6.44 10.9454 5.55 10.6454Z" transform="translate(10.63 21.0942)" fill="#45413C"/>
</svg>
