<svg width="44" height="33" viewBox="0 0 44 33" fill="none" xmlns="http://www.w3.org/2000/svg">
<rect width="41.84" height="31" fill="black" fill-opacity="0" transform="translate(1 1)"/>
<rect width="41.84" height="31" fill="black" fill-opacity="0" transform="translate(1 1)"/>
<path d="M1 24.6323H42.84V28.1823C42.84 28.7605 42.6103 29.315 42.2015 29.7238C41.7927 30.1326 41.2382 30.3623 40.66 30.3623H3.18C2.60183 30.3623 2.04734 30.1326 1.63851 29.7238C1.22968 29.315 1 28.7605 1 28.1823V24.6323Z" fill="#D2DAFF" stroke="#313A5E" stroke-linecap="round" stroke-linejoin="round"/>
<path d="M1 21.7722H42.84V25.3222C42.84 25.9004 42.6103 26.4549 42.2015 26.8637C41.7927 27.2725 41.2382 27.5022 40.66 27.5022H3.18C2.60183 27.5022 2.04734 27.2725 1.63851 26.8637C1.22968 26.4549 1 25.9004 1 25.3222V21.7722Z" fill="#D2DAFF" stroke="#313A5E" stroke-linecap="round" stroke-linejoin="round"/>
<path d="M16 25H27V31.4305C27 31.5815 26.943 31.7264 26.8415 31.8332C26.74 31.94 26.6024 32 26.4589 32H16.5805C16.437 32 16.2993 31.94 16.1979 31.8332C16.0964 31.7264 16.0394 31.5815 16.0394 31.4305V25H16Z" fill="#FFB0B1" stroke="#45413C" stroke-linecap="round" stroke-linejoin="round"/>
<path d="M40.66 2.07227H3.18C1.97602 2.07227 1 3.04829 1 4.25227V22.4523C1 23.6562 1.97602 24.6323 3.18 24.6323H40.66C41.864 24.6323 42.84 23.6562 42.84 22.4523V4.25227C42.84 3.04829 41.864 2.07227 40.66 2.07227Z" fill="#D2DAFF"/>
<path d="M40.66 2.07227H3.18C2.60091 2.07491 2.04644 2.30681 1.6379 2.71723C1.22935 3.12765 0.999994 3.68317 1 4.26227V8.04227C1.00263 7.4649 1.23315 6.91194 1.64141 6.50368C2.04967 6.09542 2.60264 5.8649 3.18 5.86227H40.66C41.2374 5.8649 41.7903 6.09542 42.1986 6.50368C42.6068 6.91194 42.8374 7.4649 42.84 8.04227V4.26227C42.84 3.68317 42.6106 3.12765 42.2021 2.71723C41.7936 2.30681 41.2391 2.07491 40.66 2.07227Z" fill="white"/>
<path d="M40.66 2.07227H3.18C1.97602 2.07227 1 3.04829 1 4.25227V22.4523C1 23.6562 1.97602 24.6323 3.18 24.6323H40.66C41.864 24.6323 42.84 23.6562 42.84 22.4523V4.25227C42.84 3.04829 41.864 2.07227 40.66 2.07227Z" stroke="#2B324C" stroke-linecap="round" stroke-linejoin="round"/>
<path d="M16.9201 1.00235H26.9201C26.9923 1.00235 27.0638 1.01658 27.1306 1.04422C27.1973 1.07186 27.2579 1.11237 27.309 1.16344C27.3601 1.21451 27.4006 1.27514 27.4282 1.34187C27.4559 1.4086 27.4701 1.48012 27.4701 1.55235V24.6324H16.3301V1.50235C16.3428 1.35813 16.4119 1.22475 16.5224 1.13114C16.6328 1.03754 16.7757 0.991259 16.9201 1.00235Z" fill="#FCC2C1"/>
<path d="M26.4194 1.00238H16.5314C16.4608 1.00237 16.3909 1.01694 16.3258 1.04525C16.2607 1.07356 16.2016 1.11504 16.1522 1.16726C16.1027 1.21948 16.0638 1.2814 16.0377 1.3494C16.0116 1.41739 15.9988 1.4901 16.0001 1.56327V5C16.0001 4.85395 16.0561 4.71388 16.1557 4.6106C16.2553 4.50733 16.3905 4.44931 16.5314 4.44931H26.4686C26.6095 4.44931 26.7446 4.50733 26.8442 4.6106C26.9439 4.71388 26.9999 4.85395 26.9999 5V1.56327C27.0016 1.4856 26.9874 1.40844 26.9583 1.33684C26.9292 1.26525 26.8858 1.20085 26.831 1.14788C26.7762 1.0949 26.7111 1.05455 26.6402 1.02948C26.5693 1.0044 26.494 0.995166 26.4194 1.00238Z" fill="#FFF5F5"/>
<path d="M27 6H37.8259C37.98 6 38.1327 6.02854 38.2752 6.08398C38.4176 6.13942 38.5471 6.22069 38.6561 6.32313C38.7651 6.42558 38.8516 6.5472 38.9106 6.68105C38.9696 6.8149 39 6.95836 39 7.10324V19.8968C39 20.0416 38.9696 20.1851 38.9106 20.319C38.8516 20.4528 38.7651 20.5744 38.6561 20.6769C38.5471 20.7793 38.4176 20.8606 38.2752 20.916C38.1327 20.9715 37.98 21 37.8259 21H27V6Z" fill="#B8C9FF" stroke="#2B324C" stroke-linecap="round" stroke-linejoin="round"/>
<path d="M16 21H6.0763C5.79085 21 5.51709 20.8838 5.31524 20.6769C5.1134 20.47 5 20.1894 5 19.8968L5 7.10324C5 6.81064 5.1134 6.53003 5.31524 6.32313C5.51709 6.11623 5.79085 6 6.0763 6L16 6L16 21Z" fill="#B8C9FF" stroke="#2B324C" stroke-linecap="round" stroke-linejoin="round"/>
<path d="M16.5826 1.00164H26.4569C26.5282 1.00164 26.5989 1.01609 26.6647 1.04416C26.7306 1.07223 26.7905 1.11338 26.8409 1.16524C26.8914 1.21711 26.9314 1.27869 26.9587 1.34646C26.986 1.41423 27 1.48686 27 1.56022V25H16V1.50944C16.0126 1.36297 16.0808 1.22751 16.1899 1.13244C16.2989 1.03738 16.44 0.990379 16.5826 1.00164Z" stroke="#45413C" stroke-linecap="round" stroke-linejoin="round"/>
<rect width="4.94431" height="8.86078" fill="black" fill-opacity="0" transform="translate(8.21948 9.17163)"/>
<path d="M10.37 15.8123V14.1523L9.65 13.9223C9.3901 13.836 9.14162 13.7185 8.91 13.5723C8.70145 13.432 8.52991 13.2433 8.41 13.0223C8.27962 12.7618 8.21443 12.4736 8.22 12.1823C8.21464 11.7961 8.31492 11.4157 8.51 11.0823C8.69679 10.7589 8.96148 10.4874 9.28 10.2923C9.61527 10.0999 9.98607 9.97743 10.37 9.93233V9.64233C10.3637 9.55578 10.3637 9.46888 10.37 9.38233C10.3764 9.32604 10.4009 9.27337 10.44 9.23233C10.4934 9.18884 10.5613 9.16738 10.63 9.17233C10.75 9.17233 10.83 9.17233 10.85 9.28233C10.8885 9.39827 10.9055 9.52028 10.9 9.64233V9.94233C11.3056 9.95849 11.7051 10.0465 12.08 10.2023C12.2363 10.2497 12.3741 10.3444 12.4744 10.4733C12.5747 10.6023 12.6325 10.7591 12.64 10.9223C12.6449 11.1148 12.5811 11.3027 12.46 11.4523C12.3997 11.5197 12.3257 11.5734 12.2429 11.6096C12.16 11.6458 12.0704 11.6638 11.98 11.6623C11.7981 11.6505 11.6192 11.61 11.45 11.5423C11.272 11.4744 11.0878 11.4241 10.9 11.3923V12.7223C11.2902 12.8286 11.6714 12.9657 12.04 13.1323C12.392 13.2826 12.6888 13.5383 12.8894 13.8643C13.09 14.1902 13.1845 14.5704 13.16 14.9523C13.1674 15.261 13.1095 15.5677 12.99 15.8523C12.8774 16.1173 12.7105 16.3558 12.5 16.5523C12.2875 16.7549 12.0402 16.9176 11.77 17.0323C11.4911 17.1421 11.1983 17.2128 10.9 17.2423V17.5623C10.9 17.6623 10.9 17.7423 10.9 17.8023C10.8923 17.8632 10.8641 17.9196 10.82 17.9623C10.7961 17.9854 10.7679 18.0034 10.737 18.0154C10.7061 18.0274 10.6731 18.0332 10.64 18.0323C10.52 18.0323 10.44 18.0323 10.41 17.9123C10.391 17.7964 10.391 17.6782 10.41 17.5623V17.2523C10.0737 17.2426 9.73903 17.2024 9.41 17.1323C9.10876 17.0809 8.82222 16.9649 8.57 16.7923C8.46201 16.7243 8.37319 16.6297 8.31195 16.5177C8.2507 16.4058 8.21905 16.28 8.22 16.1523C8.21301 15.9686 8.27753 15.7894 8.4 15.6523C8.45891 15.5833 8.53272 15.5285 8.61586 15.4922C8.69901 15.4558 8.78932 15.4388 8.88 15.4423C9.13106 15.4649 9.37722 15.5256 9.61 15.6223C9.8565 15.7104 10.1111 15.774 10.37 15.8123ZM10.37 12.5323V11.3923C10.2253 11.4288 10.0937 11.505 9.99 11.6123C9.89155 11.7181 9.83781 11.8578 9.84 12.0023C9.83797 12.0589 9.84859 12.1151 9.87108 12.167C9.89357 12.2189 9.92736 12.2652 9.97 12.3023C10.091 12.3913 10.2263 12.4589 10.37 12.5023V12.5323ZM10.92 14.3123V15.7723C11.1055 15.7329 11.2716 15.6304 11.39 15.4823C11.5081 15.3388 11.5719 15.1582 11.57 14.9723C11.56 14.6823 11.34 14.5023 10.92 14.3123Z" fill="#313A5E"/>
<path d="M35.4699 13.3524C35.4699 13.8251 35.3298 14.2872 35.0672 14.6802C34.8045 15.0732 34.4313 15.3796 33.9946 15.5605C33.5578 15.7414 33.0773 15.7887 32.6137 15.6965C32.1501 15.6043 31.7242 15.3766 31.39 15.0424C31.0557 14.7081 30.8281 14.2823 30.7359 13.8187C30.6436 13.3551 30.691 12.8745 30.8719 12.4378C31.0528 12.0011 31.3591 11.6278 31.7521 11.3652C32.1452 11.1026 32.6072 10.9624 33.0799 10.9624C33.7138 10.9624 34.3217 11.2142 34.7699 11.6624C35.2181 12.1106 35.4699 12.7185 35.4699 13.3524Z" fill="#6665F4" stroke="#2B324C" stroke-linecap="round" stroke-linejoin="round"/>
</svg>
