<svg width="38" height="44" viewBox="0 0 38 44" fill="none" xmlns="http://www.w3.org/2000/svg">
<path d="M36 2.06C36 6.9 27.94 10.83 18 10.83C8.06 10.83 0 6.9 0 2.06V0H36V2.06Z" transform="translate(1 32.4697)" fill="#DEBB7E" stroke="#45413C" stroke-linecap="round" stroke-linejoin="round"/>
<path d="M18 18.36C27.9411 18.36 36 14.25 36 9.18C36 4.11003 27.9411 0 18 0C8.05887 0 0 4.11003 0 9.18C0 14.25 8.05887 18.36 18 18.36Z" transform="translate(1 23.0498)" fill="#F0D5A8"/>
<path d="M18 3.26C26.85 3.26 34.19 6.52 35.7 10.81C35.8938 10.2882 35.9953 9.73662 36 9.18C36 4.11 27.94 0 18 0C8.06 0 0 4.11 0 9.18C0.004731 9.73662 0.106244 10.2882 0.3 10.81C1.81 6.52 9.15 3.26 18 3.26Z" transform="translate(1 23.0498)" fill="#F7E5C6"/>
<path d="M18 18.36C27.9411 18.36 36 14.25 36 9.18C36 4.11003 27.9411 0 18 0C8.05887 0 0 4.11003 0 9.18C0 14.25 8.05887 18.36 18 18.36Z" transform="translate(1 23.0498)" stroke="#45413C" stroke-linecap="round" stroke-linejoin="round"/>
<path d="M0.908237 9.9C0.595736 9.61908 0.352033 9.27005 0.195974 8.87991C0.039914 8.48976 -0.0243201 8.06894 0.00823713 7.65C0.00823713 6.04 1.80824 4.5 1.80824 2.7C1.74137 1.73838 1.43171 0.809421 0.908237 0" transform="translate(14.0918 1)" stroke="#45413C" stroke-linecap="round" stroke-linejoin="round"/>
<path d="M0.908237 9.9C0.595736 9.61908 0.352033 9.27005 0.195974 8.87991C0.039914 8.48976 -0.0243201 8.06894 0.00823713 7.65C0.00823713 6.04 1.80824 4.5 1.80824 2.7C1.74137 1.73838 1.43171 0.809421 0.908237 0" transform="translate(18.0918 1)" stroke="#45413C" stroke-linecap="round" stroke-linejoin="round"/>
<path d="M0.908237 9.9C0.595736 9.61908 0.352035 9.27005 0.195975 8.87991C0.0399158 8.48976 -0.0243203 8.06894 0.00823699 7.65C0.00823699 6.04 1.85824 4.5 1.85824 2.7C1.79137 1.73838 1.48171 0.809421 0.958238 0" transform="translate(22.1417 1)" stroke="#45413C" stroke-linecap="round" stroke-linejoin="round"/>
<path d="M12.8 1.57C12.8 2.69 9.93 3.57 6.4 3.57C2.87 3.57 0 2.66 0 1.57V0H12.8V1.57Z" transform="translate(12.6 31.6299)" fill="#E0E0E0" stroke="#45413C" stroke-linecap="round" stroke-linejoin="round"/>
<path d="M29 0C29 5 27.74 12.33 20.3 14.5C18.403 14.9677 16.4536 15.1895 14.5 15.16C12.5464 15.1895 10.597 14.9677 8.7 14.5C1.26 12.33 0 5 0 0H29Z" transform="translate(4.5 17.73)" fill="#F0F0F0"/>
<path d="M14.502 8.6C19.0962 8.48576 23.6596 7.81418 28.092 6.6C28.7248 4.45814 29.0316 2.2332 29.002 0H0.00195843C-0.0276732 2.2332 0.279098 4.45814 0.911958 6.6C5.34433 7.81418 9.90771 8.48576 14.502 8.6Z" transform="translate(4.49805 17.71)" fill="white"/>
<path d="M29 0C29 5 27.74 12.33 20.3 14.5C18.403 14.9677 16.4536 15.1895 14.5 15.16C12.5464 15.1895 10.597 14.9677 8.7 14.5C1.26 12.33 0 5 0 0H29Z" transform="translate(4.5 17.73)" stroke="#45413C" stroke-linecap="round" stroke-linejoin="round"/>
<path d="M14.5 10C22.5081 10 29 7.76142 29 5C29 2.23858 22.5081 0 14.5 0C6.49187 0 0 2.23858 0 5C0 7.76142 6.49187 10 14.5 10Z" transform="translate(4.5 12.73)" fill="#E0E0E0"/>
<path d="M14.5 2C21.5 2 27.37 3.71 28.71 6C28.8933 5.69812 28.9933 5.35309 29 5C29 2.23 22.51 0 14.5 0C6.49 0 0 2.23 0 5C0.00668276 5.35309 0.10674 5.69812 0.29 6C1.63 3.71 7.5 2 14.5 2Z" transform="translate(4.5 12.73)" fill="#F0F0F0"/>
<path d="M14.5 10C22.5081 10 29 7.76142 29 5C29 2.23858 22.5081 0 14.5 0C6.49187 0 0 2.23858 0 5C0 7.76142 6.49187 10 14.5 10Z" transform="translate(4.5 12.73)" stroke="#45413C" stroke-linecap="round" stroke-linejoin="round"/>
<path d="M13.57 6.5C21.0645 6.5 27.14 5.04493 27.14 3.25C27.14 1.45507 21.0645 0 13.57 0C6.0755 0 0 1.45507 0 3.25C0 5.04493 6.0755 6.5 13.57 6.5Z" transform="translate(5.42993 16.23)" fill="#9CEB60"/>
<path d="M13.56 2.5C17.5152 2.38167 21.4536 3.06189 25.14 4.5C25.8659 4.18657 26.5402 3.76513 27.14 3.25C25.08 1.35 19.79 0 13.57 0C7.35 0 2.06 1.35 0 3.25C0.599822 3.76513 1.27412 4.18657 2 4.5C5.68013 3.06454 9.61151 2.38437 13.56 2.5Z" transform="translate(5.43994 16.23)" fill="#C8FFA1"/>
<path d="M13.57 6.5C21.0645 6.5 27.14 5.04493 27.14 3.25C27.14 1.45507 21.0645 0 13.57 0C6.0755 0 0 1.45507 0 3.25C0 5.04493 6.0755 6.5 13.57 6.5Z" transform="translate(5.42993 16.23)" stroke="#45413C" stroke-linecap="round" stroke-linejoin="round"/>
</svg>
