<svg width="38" height="44" viewBox="0 0 38 44" fill="none" xmlns="http://www.w3.org/2000/svg">
<rect width="36" height="42.3" fill="black" fill-opacity="0" transform="translate(1 1)"/>
<rect width="36" height="42.3" fill="black" fill-opacity="0" transform="translate(1 1)"/>
<path d="M37 34.53C37 39.37 28.94 43.3 19 43.3C9.06 43.3 1 39.37 1 34.53V32.47H37V34.53Z" fill="#FFB0B1" stroke="#45413C" stroke-linecap="round" stroke-linejoin="round"/>
<path d="M19 41.41C28.9411 41.41 37 37.3 37 32.23C37 27.1601 28.9411 23.05 19 23.05C9.05887 23.05 1 27.1601 1 32.23C1 37.3 9.05887 41.41 19 41.41Z" fill="#FCC2C1"/>
<path d="M19 26.31C27.85 26.31 35.19 29.5701 36.7 33.8601C36.8938 33.3382 36.9953 32.7867 37 32.23C37 27.16 28.94 23.05 19 23.05C9.06 23.05 1 27.16 1 32.23C1.00473 32.7867 1.10624 33.3382 1.3 33.8601C2.81 29.5701 10.15 26.31 19 26.31Z" fill="#FFF5F5"/>
<path d="M19 41.41C28.9411 41.41 37 37.3 37 32.23C37 27.1601 28.9411 23.05 19 23.05C9.05887 23.05 1 27.1601 1 32.23C1 37.3 9.05887 41.41 19 41.41Z" stroke="#45413C" stroke-linecap="round" stroke-linejoin="round"/>
<path d="M15 10.9C14.6875 10.6191 14.4438 10.2701 14.2878 9.87991C14.1317 9.48976 14.0675 9.06894 14.1 8.65C14.1 7.04 15.9 5.5 15.9 3.7C15.8332 2.73838 15.5235 1.80942 15 1" stroke="#2B324C" stroke-linecap="round" stroke-linejoin="round"/>
<path d="M19 10.9C18.6875 10.6191 18.4438 10.2701 18.2878 9.87991C18.1317 9.48976 18.0675 9.06894 18.1 8.65C18.1 7.04 19.9 5.5 19.9 3.7C19.8332 2.73838 19.5235 1.80942 19 1" stroke="#2B324C" stroke-linecap="round" stroke-linejoin="round"/>
<path d="M23.0501 10.9C22.7376 10.6191 22.4939 10.2701 22.3378 9.87991C22.1818 9.48976 22.1175 9.06894 22.1501 8.65C22.1501 7.04 24.0001 5.5 24.0001 3.7C23.9332 2.73838 23.6236 1.80942 23.1001 1" stroke="#2B324C" stroke-linecap="round" stroke-linejoin="round"/>
<path d="M25.4001 33.1999C25.4001 34.3199 22.5301 35.1999 19.0001 35.1999C15.4701 35.1999 12.6001 34.2899 12.6001 33.1999V31.6299H25.4001V33.1999Z" fill="#E0E0E0" stroke="#2B324C" stroke-linecap="round" stroke-linejoin="round"/>
<path d="M33.5 17.73C33.5 22.73 32.24 30.06 24.8 32.23C22.903 32.6977 20.9536 32.9195 19 32.89C17.0464 32.9195 15.097 32.6977 13.2 32.23C5.76 30.06 4.5 22.73 4.5 17.73H33.5Z" fill="#F0F0F0"/>
<path d="M19 26.31C23.5943 26.1957 28.1576 25.5241 32.59 24.31C33.2229 22.1681 33.5296 19.9432 33.5 17.71H4.50001C4.47037 19.9432 4.77715 22.1681 5.41001 24.31C9.84237 25.5241 14.4058 26.1957 19 26.31Z" fill="white"/>
<path d="M33.5 17.73C33.5 22.73 32.24 30.06 24.8 32.23C22.903 32.6977 20.9536 32.9195 19 32.89C17.0464 32.9195 15.097 32.6977 13.2 32.23C5.76 30.06 4.5 22.73 4.5 17.73H33.5Z" stroke="#2B324C" stroke-linecap="round" stroke-linejoin="round"/>
<path d="M19 22.73C27.0081 22.73 33.5 20.4914 33.5 17.73C33.5 14.9686 27.0081 12.73 19 12.73C10.9919 12.73 4.5 14.9686 4.5 17.73C4.5 20.4914 10.9919 22.73 19 22.73Z" fill="#E0E0E0"/>
<path d="M19 14.73C26 14.73 31.87 16.44 33.21 18.73C33.3933 18.4281 33.4933 18.0831 33.5 17.73C33.5 14.96 27.01 12.73 19 12.73C10.99 12.73 4.5 14.96 4.5 17.73C4.50668 18.0831 4.60674 18.4281 4.79 18.73C6.13 16.44 12 14.73 19 14.73Z" fill="#F0F0F0"/>
<path d="M19 22.73C27.0081 22.73 33.5 20.4914 33.5 17.73C33.5 14.9686 27.0081 12.73 19 12.73C10.9919 12.73 4.5 14.9686 4.5 17.73C4.5 20.4914 10.9919 22.73 19 22.73Z" stroke="#2B324C" stroke-linecap="round" stroke-linejoin="round"/>
<path d="M18.9999 22.73C26.4944 22.73 32.5699 21.2749 32.5699 19.48C32.5699 17.6851 26.4944 16.23 18.9999 16.23C11.5054 16.23 5.42993 17.6851 5.42993 19.48C5.42993 21.2749 11.5054 22.73 18.9999 22.73Z" fill="#B8C9FF"/>
<path d="M18.9999 18.73C22.9551 18.6117 26.8936 19.2919 30.5799 20.73C31.3058 20.4165 31.9801 19.9951 32.5799 19.48C30.5199 17.58 25.2299 16.23 19.0099 16.23C12.7899 16.23 7.49994 17.58 5.43994 19.48C6.03976 19.9951 6.71406 20.4165 7.43994 20.73C11.1201 19.2945 15.0515 18.6144 18.9999 18.73Z" fill="#6665F4"/>
<path d="M18.9999 22.73C26.4944 22.73 32.5699 21.2749 32.5699 19.48C32.5699 17.6851 26.4944 16.23 18.9999 16.23C11.5054 16.23 5.42993 17.6851 5.42993 19.48C5.42993 21.2749 11.5054 22.73 18.9999 22.73Z" stroke="#2B324C" stroke-linecap="round" stroke-linejoin="round"/>
</svg>
