<svg width="34" height="34" viewBox="0 0 34 34" fill="none" xmlns="http://www.w3.org/2000/svg">
<path d="M14.5458 2.62984C14.5458 3.71989 11.2887 4.60413 7.27287 4.60413C3.25708 4.60413 0 3.71989 0 2.62984V0H14.5611L14.5458 2.62984Z" transform="translate(9.72717 28.396)" fill="#FF6242" stroke="#45413C" stroke-linecap="round" stroke-linejoin="round"/>
<path d="M0.131452 0C0.131452 0 3.43452 4.57364 15.9954 4.57364C28.5562 4.57364 31.8593 0 31.8593 0C31.8593 0 34.5109 18.4165 15.9954 18.4165C-2.5202 18.4165 0.131452 0 0.131452 0Z" transform="translate(1.00464 11.9541)" fill="#FCC2C1"/>
<path d="M16.0001 8.78138C25.5108 8.78138 30.0171 6.45645 31.8257 5.10723C32.0448 3.41253 32.0576 1.69775 31.864 0C31.864 0 28.5609 4.57363 16.0001 4.57363C3.43925 4.57363 0.136189 0 0.136189 0C-0.0574219 1.69775 -0.0445563 3.41253 0.174507 5.10723C1.98315 6.45645 6.48942 8.78138 16.0001 8.78138Z" transform="translate(1 11.9541)" fill="#FDD6D6"/>
<path d="M0.131452 0C0.131452 0 3.43452 4.57364 15.9954 4.57364C28.5562 4.57364 31.8593 0 31.8593 0C31.8593 0 34.5109 18.4165 15.9954 18.4165C-2.5202 18.4165 0.131452 0 0.131452 0Z" transform="translate(1.00464 11.9541)" stroke="#45413C" stroke-linecap="round" stroke-linejoin="round"/>
<path d="M15.8639 9.86381C24.6253 9.86381 31.7278 7.65572 31.7278 4.9319C31.7278 2.20809 24.6253 0 15.8639 0C7.10252 0 0 2.20809 0 4.9319C0 7.65572 7.10252 9.86381 15.8639 9.86381Z" transform="translate(1.1355 6.69434)" fill="#FF6242" stroke="#45413C" stroke-linecap="round" stroke-linejoin="round"/>
<path d="M13.2199 0C3.39503 0 0 9.61226 0 9.61226C0 9.61226 2.84324 12.9281 13.2199 12.9281C23.5966 12.9281 26.4398 9.61226 26.4398 9.61226C26.4398 9.61226 23.0448 0 13.2199 0Z" transform="translate(3.78003 1)" fill="white"/>
<path d="M0.0919646 9.70373C1.48969 7.50506 3.42979 5.69869 5.72767 4.4565C8.02554 3.2143 10.6048 2.5776 13.2199 2.60697C15.8351 2.5776 18.4143 3.2143 20.7122 4.4565C23.0101 5.69869 24.9502 7.50506 26.3479 9.70373L26.4398 9.61226C26.4398 9.61226 23.0448 0 13.2199 0C3.39503 0 0 9.61226 0 9.61226L0.0919646 9.70373Z" transform="translate(3.78003 1)" fill="white"/>
<path d="M13.2199 0C3.39503 0 0 9.61226 0 9.61226C0 9.61226 2.84324 12.9281 13.2199 12.9281C23.5966 12.9281 26.4398 9.61226 26.4398 9.61226C26.4398 9.61226 23.0448 0 13.2199 0Z" transform="translate(3.78003 1)" stroke="#45413C" stroke-linecap="round" stroke-linejoin="round"/>
<path d="M4.43545 0.355451C4.71134 0.889041 3.96029 1.82664 2.75709 2.4517C1.55388 3.07676 0.343016 3.16061 0.0594586 2.62702C-0.224099 2.09343 0.534609 1.14821 1.73781 0.523151C2.94102 -0.101913 4.15189 -0.17814 4.43545 0.355451Z" transform="translate(7.79004 5.65234)" fill="white" stroke="#45413C" stroke-linecap="round" stroke-linejoin="round"/>
<path d="M4.91388 0.914434C4.95986 1.51663 3.90227 2.08833 2.53813 2.18743C1.17398 2.28652 0.0474167 1.89014 0.00143438 1.28795C-0.044548 0.685752 1.02071 0.114048 2.37719 0.0149522C3.73367 -0.0841432 4.8679 0.319861 4.91388 0.914434Z" transform="translate(10.5536 7.51758)" fill="white" stroke="#45413C" stroke-linecap="round" stroke-linejoin="round"/>
<path d="M4.92154 1.28816C4.87556 1.89036 3.73367 2.29436 2.37719 2.18764C1.02071 2.08093 -0.044548 1.51684 0.00143438 0.914648C0.0474167 0.312453 1.18931 -0.0839279 2.54579 0.0151675C3.90227 0.114263 4.96753 0.685968 4.92154 1.28816Z" transform="translate(19.2976 9.69775)" fill="white" stroke="#45413C" stroke-linecap="round" stroke-linejoin="round"/>
<path d="M4.83737 1.67646C4.71475 2.26341 3.53453 2.51496 2.20104 2.24054C0.867555 1.96612 -0.105738 1.22672 0.00921763 0.670261C0.124174 0.113802 1.31972 -0.168238 2.6532 0.10618C3.98669 0.380598 4.96765 1.08951 4.83737 1.67646Z" transform="translate(17.1057 3.18848)" fill="white" stroke="#45413C" stroke-linecap="round" stroke-linejoin="round"/>
<path d="M4.91441 0.891369C4.96806 1.48594 3.91047 2.07289 2.55399 2.19485C1.19751 2.31682 0.0556135 1.92806 0.00196744 1.32586C-0.0516786 0.723669 0.998251 0.144342 2.35473 0.0223787C3.71121 -0.0995849 4.85311 0.289174 4.91441 0.891369Z" transform="translate(22.0486 8.05127)" fill="white" stroke="#45413C" stroke-linecap="round" stroke-linejoin="round"/>
</svg>
