<svg width="1200" height="518" viewBox="0 0 1200 518" fill="none" xmlns="http://www.w3.org/2000/svg">
<rect width="1200" height="518" fill="black" fill-opacity="0"/>
<mask id="mask0" mask-type="alpha" maskUnits="userSpaceOnUse" x="0" y="0" width="1201" height="518">
<path d="M0.0236134 7.99963C0.0238179 3.5815 3.60548 0 8.02361 0H1192C1196.42 0 1200 3.58172 1200 8V510C1200 514.418 1196.42 518 1192 518H8.00037C3.58195 518 0.000165847 514.418 0.000370423 510L0.0236134 7.99963Z" fill="#FFF5F5"/>
<path d="M0.0236134 7.99963C0.0238179 3.5815 3.60548 0 8.02361 0H1192C1196.42 0 1200 3.58172 1200 8V510C1200 514.418 1196.42 518 1192 518H8.00037C3.58195 518 0.000165847 514.418 0.000370423 510L0.0236134 7.99963Z" fill="url(#paint0_linear)" fill-opacity="0.4"/>
</mask>
<g mask="url(#mask0)">
<circle cx="600" cy="402" r="315" fill="white" fill-opacity="0.22"/>
<circle cx="600.5" cy="381.5" r="335.5" fill="white" fill-opacity="0.22"/>
</g>
<defs>
<linearGradient id="paint0_linear" x1="558.813" y1="1.14904e-05" x2="1148.38" y2="571.273" gradientUnits="userSpaceOnUse">
<stop stop-color="#F9DCD4"/>
<stop offset="1" stop-color="#FFA9A9"/>
</linearGradient>
</defs>
</svg>
