<svg width="106" height="105" viewBox="0 0 106 105" fill="none" xmlns="http://www.w3.org/2000/svg">
<rect width="106" height="104.141" fill="black" fill-opacity="0"/>
<path d="M105 51.9998C105 61.7186 102.334 70.8154 97.6903 78.5984C96.4338 80.7038 95.033 82.7138 93.5006 84.6134C88.343 91.0125 81.6998 96.1638 74.0971 99.5428C73.8407 99.6552 73.582 99.7676 73.3233 99.8778C73.3227 99.878 73.3221 99.8782 73.3214 99.8782C73.3207 99.8782 73.3201 99.8783 73.3194 99.8786C67.0776 102.531 60.2117 104 53 104C24.2811 104 1 80.7188 1 52C1 47.1778 1.6559 42.5063 2.88684 38.0747C3.82082 34.7021 5.08792 31.4696 6.64773 28.4111C11.1135 19.6497 17.9901 12.3251 26.4036 7.30971C34.1846 2.66583 43.2814 5.31672e-09 53 5.31672e-09C81.7186 -0.000406248 105 23.2807 105 51.9998Z" fill="#FDEBE8"/>
<rect width="104" height="104" fill="black" fill-opacity="0" transform="translate(1)"/>
<mask id="mask0" mask-type="alpha" maskUnits="userSpaceOnUse" x="1" y="0" width="104" height="104">
<path d="M105 51.9998C105 61.7186 102.334 70.8154 97.6903 78.5984C96.4338 80.7038 95.033 82.7138 93.5006 84.6134C88.343 91.0125 81.6998 96.1638 74.0971 99.5428C73.8404 99.6553 73.5814 99.7679 73.3224 99.8782H73.3204C67.0783 102.531 60.212 104 53 104C24.2811 104 1 80.7188 1 52C1 47.1778 1.6559 42.5063 2.88684 38.0747C3.82082 34.7021 5.08792 31.4696 6.64773 28.4111C11.1135 19.6497 17.9901 12.3251 26.4036 7.30971C34.1846 2.66583 43.2814 5.31672e-09 53 5.31672e-09C81.7186 -0.000406248 105 23.2807 105 51.9998Z" fill="#FFF5F5"/>
</mask>
<g mask="url(#mask0)">
<rect width="90.2596" height="93.4289" fill="black" fill-opacity="0" transform="matrix(0.99713 0.075711 -0.0749171 0.99719 6.71509 7.99902)"/>
<path d="M91.2075 88.1494C85.3067 96.5557 76.8369 102.953 67.0345 106.277C65.3967 106.047 63.7309 105.713 62.0412 105.276C49.4793 102.037 35.7425 93.2246 24.3904 79.9919C14.4086 68.3524 8.07431 55.3971 5.80391 43.6484C5.49175 42.0378 5.25729 40.4509 5.10021 38.8921C3.99789 28.0166 6.65979 18.5558 13.4448 12.7134L15.792 10.6934C16.0406 10.4792 16.2994 10.2879 16.5685 10.1172C19.3765 8.3115 23.1575 8.81163 25.3974 11.4227L36.9887 24.9363C39.2264 27.5473 39.1521 31.3667 36.9505 33.8795C36.7417 34.1205 36.5139 34.3481 36.2655 34.5623L26.1728 43.2557C29.3112 50.6462 34.2083 58.5324 40.6184 66.0098L40.6222 66.012C47.0364 73.4879 54.0795 79.5221 60.9013 83.7415L70.994 75.048C71.2425 74.8359 71.5013 74.6444 71.7705 74.4719C74.5802 72.6702 78.3595 73.1702 80.5993 75.7794L91.2075 88.1494Z" fill="url(#paint0_linear)"/>
<path d="M25.397 11.4233L36.9881 24.9367C39.2267 27.5466 39.152 31.3663 36.9512 33.88C36.742 34.1204 36.5142 34.3479 36.2664 34.5614L31.1591 38.9606C31.407 38.7471 31.6348 38.5194 31.8439 38.2791C34.0447 35.7657 34.1195 31.9459 31.8809 29.3359L20.2898 15.8225C18.1248 13.2984 14.5219 12.7461 11.7454 14.3416C12.28 13.771 12.8462 13.2284 13.4441 12.7134L15.7931 10.6926C16.0409 10.4791 16.2998 10.2876 16.5683 10.1165C19.3775 8.31218 23.157 8.81181 25.397 11.4233Z" fill="#5153DE"/>
<path d="M91.2077 88.1492C89.8905 90.0243 88.4459 91.8002 86.8864 93.4638L75.4906 80.1781C73.2527 77.5691 69.4735 77.0691 66.6617 78.8726C66.3946 79.0435 66.1357 79.2349 65.8873 79.4489L70.9943 75.048C71.2427 74.8359 71.5015 74.6445 71.7708 74.4719C74.5804 72.6703 78.3597 73.1703 80.5995 75.7794L91.2077 88.1492Z" fill="#5153DE"/>
</g>
<rect width="89.3166" height="89.6315" fill="black" fill-opacity="0" transform="matrix(0.99713 0.075711 -0.0749171 0.99719 6.71484 7.99902)"/>
<path d="M51.2987 101.274C41.9788 96.7596 32.566 89.5221 24.3902 79.9919C14.4084 68.3524 8.07406 55.3971 5.80366 43.6484C5.49151 42.0378 5.25704 40.4509 5.09996 38.8921C3.99765 28.0166 6.65955 18.5558 13.4445 12.7134L15.7918 10.6934C16.0404 10.4792 16.2991 10.2879 16.5683 10.1172C19.3763 8.3115 23.1573 8.81163 25.3971 11.4227L36.9884 24.9363C39.2262 27.5473 39.1518 31.3667 36.9503 33.8795C36.7415 34.1205 36.5137 34.3481 36.2652 34.5623L26.1725 43.2557C29.3109 50.6462 34.2081 58.5324 40.6182 66.0098L40.622 66.012C47.0362 73.4879 54.0793 79.5221 60.9011 83.7415L51.2987 101.274Z" fill="url(#paint1_linear)"/>
<path d="M25.3968 11.4233L36.9879 24.9367C39.2265 27.5466 39.1517 31.3663 36.9509 33.88C36.7418 34.1204 36.514 34.3479 36.2661 34.5614L31.1589 38.9606C31.4067 38.7471 31.6345 38.5194 31.8437 38.2791C34.0445 35.7657 34.1192 31.9459 31.8806 29.3359L20.2895 15.8225C18.1245 13.2984 14.5216 12.7461 11.7452 14.3416C12.2798 13.771 12.8459 13.2284 13.4438 12.7134L15.7928 10.6926C16.0407 10.4791 16.2996 10.2876 16.568 10.1165C19.3773 8.31218 23.1568 8.81181 25.3968 11.4233Z" fill="#5153DE"/>
<path d="M90.2881 87.798L85.3111 91.6277L75.4903 80.1781C73.2524 77.5691 69.4733 77.0691 66.6614 78.8726C66.3944 79.0435 66.1354 79.2349 65.887 79.4489L70.994 75.048C71.2425 74.8359 71.5012 74.6445 71.7705 74.4719C74.5801 72.6703 78.3594 73.1703 80.5992 75.7794L90.2881 87.798Z" fill="#5153DE"/>
<rect width="53" height="42" fill="black" fill-opacity="0" transform="translate(53 11.999)"/>
<path d="M53 15.999C53 13.7899 54.7909 11.999 57 11.999H102C104.209 11.999 106 13.7899 106 15.999V44.999C106 47.2082 104.209 48.999 102 48.999H74.4806C74.1768 48.999 73.8895 49.1371 73.6998 49.3743L70.7809 53.0229C70.3805 53.5233 69.6195 53.5233 69.2191 53.0229L66.3002 49.3743C66.1105 49.1371 65.8232 48.999 65.5194 48.999H57C54.7909 48.999 53 47.2082 53 44.999V15.999Z" fill="url(#paint2_linear)"/>
<rect width="37" height="23" fill="black" fill-opacity="0" transform="translate(61 18.999)"/>
<rect x="61" y="18.999" width="37" height="2" rx="1" fill="#DE8970"/>
<rect x="61" y="25.999" width="34" height="2" rx="1" fill="#DE8970"/>
<rect x="61" y="32.999" width="30" height="2" rx="1" fill="#DE8970"/>
<rect x="61" y="39.999" width="36" height="2" rx="1" fill="#DE8970"/>
<defs>
<linearGradient id="paint0_linear" x1="5.4814" y1="7.90534" x2="104.358" y2="23.5454" gradientUnits="userSpaceOnUse">
<stop stop-color="#6563F3"/>
<stop offset="1" stop-color="#6A6EF4"/>
</linearGradient>
<linearGradient id="paint1_linear" x1="5.48115" y1="7.90534" x2="104.358" y2="23.5454" gradientUnits="userSpaceOnUse">
<stop stop-color="#6563F3"/>
<stop offset="1" stop-color="#6A6EF4"/>
</linearGradient>
<linearGradient id="paint2_linear" x1="30.2857" y1="-13.9426" x2="113.035" y2="39.9098" gradientUnits="userSpaceOnUse">
<stop stop-color="#F4B89B"/>
<stop offset="1" stop-color="#F4A08F"/>
</linearGradient>
</defs>
</svg>
