<svg width="104" height="106" viewBox="0 0 104 106" fill="none" xmlns="http://www.w3.org/2000/svg">
<rect width="104" height="106" fill="black" fill-opacity="0"/>
<path d="M104 53.0003C104 81.5367 80.9094 105 52 105C23.1657 105 0 81.6074 0 53.0003C0 24.2813 23.2811 1.00024 52 1.00024C80.7724 1.00024 104 24.3306 104 53.0003Z" fill="#FDEBE8"/>
<rect width="104" height="105.367" fill="black" fill-opacity="0" transform="translate(0 0.633789)"/>
<path d="M62 106C65.866 106 69 102.866 69 99.0005C69 95.1345 65.866 92.0005 62 92.0005C58.134 92.0005 55 95.1345 55 99.0005C55 102.866 58.134 106 62 106Z" fill="#A8BCFE"/>
<path d="M66 98.9994C66 100.479 65.1972 101.772 64.0024 102.464C63.4134 102.805 62.7306 103 62.001 103C59.7913 103 58 101.209 58 98.9996C58 96.7899 59.7915 95.0005 62.001 95.0005C62.7307 95.0005 63.4134 95.1956 64.0024 95.535C65.1972 96.2271 66 97.5195 66 98.9994Z" fill="#D2DAFF"/>
<mask id="mask0" mask-type="alpha" maskUnits="userSpaceOnUse" x="0" y="0" width="104" height="106">
<path d="M104 52.8172C104 81.4541 80.9094 105 52 105C23.1657 105 0 81.525 0 52.8172C0 23.9969 23.2811 0.633789 52 0.633789C80.7724 0.633789 104 24.0463 104 52.8172Z" fill="#FFF5F5"/>
<path d="M104 52.8172C104 81.4541 80.9094 105 52 105C23.1657 105 0 81.525 0 52.8172C0 23.9969 23.2811 0.633789 52 0.633789C80.7724 0.633789 104 24.0463 104 52.8172Z" fill="url(#paint0_linear)"/>
</mask>
<g mask="url(#mask0)">
<rect width="14" height="25" fill="black" fill-opacity="0" transform="translate(61 5.00049)"/>
<path d="M65 6.731V28.27C65 28.9004 64.6055 29.457 64.0177 29.757C63.7187 29.9112 63.372 30.0005 63.0001 30.0005C61.8995 30.0005 61 29.2222 61 28.27V6.731C61 5.77876 61.8995 5.00049 63.0001 5.00049C63.372 5.00049 63.7187 5.08955 64.0177 5.244C64.1609 5.3179 64.2941 5.40696 64.4122 5.5093C64.7764 5.82215 65 6.25477 65 6.731Z" fill="#A8BCFE"/>
<path d="M75 6.731V28.27C75 28.9004 74.6055 29.457 74.0177 29.757C73.7187 29.9112 73.372 30.0005 73.0001 30.0005C71.8995 30.0005 71 29.2222 71 28.27V6.731C71 5.77876 71.8995 5.00049 73.0001 5.00049C73.372 5.00049 73.7187 5.08955 74.0177 5.244C74.1609 5.3179 74.2941 5.40696 74.4122 5.5093C74.7764 5.82215 75 6.25477 75 6.731Z" fill="#A8BCFE"/>
<rect width="12" height="24" fill="black" fill-opacity="0" transform="translate(63 5.00049)"/>
<path d="M65 6.45637V27.5446C65 28.1619 64.5985 28.7068 64.0001 29.0005C63.4018 28.7068 63 28.1619 63 27.5446V6.45637C63 5.8391 63.4015 5.29418 64.0001 5.00049C64.1459 5.07285 64.2815 5.16004 64.4016 5.26024C64.7724 5.56654 65 5.99011 65 6.45637Z" fill="#D2DAFF"/>
<path d="M75 6.45637V27.5446C75 28.1619 74.5985 28.7068 74.0001 29.0005C73.4018 28.7068 73 28.1619 73 27.5446V6.45637C73 5.8391 73.4015 5.29418 74.0001 5.00049C74.1459 5.07285 74.2815 5.16004 74.4016 5.26024C74.7724 5.56654 75 5.99011 75 6.45637Z" fill="#D2DAFF"/>
<path d="M94 39.6398V81.3614C94 82.1329 93.9496 82.8914 93.8507 83.6347C89.8704 89.3732 84.7962 94.2601 78.9331 97.9616H78.9311C78.5713 97.9877 78.2095 98.0005 77.8456 98.0005H58.1525C49.2326 98.0005 42 90.5499 42 81.3612V39.6398C42 30.451 49.2326 23.0005 58.1525 23.0005H77.8456C86.7674 23.0005 94 30.451 94 39.6398Z" fill="url(#paint1_linear)"/>
<path d="M80 3.50024C80 4.46396 79.6073 5.33733 78.9773 5.97251C78.3452 6.60768 77.4741 7.00024 76.5172 7.00024H59.4805C57.567 7.00024 56 5.42557 56 3.50024C56 2.53653 56.3927 1.66316 57.0227 1.02798C57.6525 0.392807 58.5236 0.000244141 59.4805 0.000244141H76.5172C78.2354 0.000244141 79.6752 1.26828 79.9516 2.92025C79.9824 3.10768 80 3.30165 80 3.50024Z" fill="url(#paint2_linear)"/>
<rect width="28" height="57" fill="black" fill-opacity="0" transform="translate(54 32)"/>
<path d="M56 32C54.8998 32 54 32.8423 54 33.8717V87.1283C54 88.1577 54.9 89 56 89C57.1 89 58 88.1577 58 87.1283V33.8717C58 32.842 57.1 32 56 32Z" fill="#5153DE"/>
<path d="M68 32C66.8998 32 66 32.8423 66 33.8717V87.1283C66 88.1577 66.9 89 68 89C69.1 89 70 88.1577 70 87.1283V33.8717C70 32.842 69.1 32 68 32Z" fill="#5153DE"/>
<path d="M80 32C78.8998 32 78 32.8423 78 33.8717V87.1283C78 88.1577 78.9 89 80 89C81.1 89 82 88.1577 82 87.1283V33.8717C82 32.842 81.1002 32 80 32Z" fill="#5153DE"/>
<path d="M49.2099 37.0854H28.801C26.6138 37.0854 24.8391 38.8661 24.8391 41.0597V49.5193H29.0953V42.3119C29.0953 42.2415 29.1 42.1712 29.1077 42.1039C29.2107 41.2362 29.9442 40.564 30.837 40.564H47.1734C48.0661 40.564 48.7999 41.2362 48.9027 42.1039C48.9105 42.1712 48.9152 42.2415 48.9152 42.3119V49.5193H53.1714V41.0597C53.1714 38.8661 51.3971 37.0854 49.2099 37.0854Z" fill="url(#paint3_linear)"/>
<path d="M77 51.923V93.078C77 95.7955 74.7841 98.0005 72.053 98.0005H24.1327C12.0597 90.6579 3.18743 78.6493 0 64.5421V51.923C0 49.2054 2.21592 47.0005 4.94699 47.0005H72.053C74.7841 47.0003 77 49.2052 77 51.923Z" fill="url(#paint4_linear)"/>
<rect width="49" height="51" fill="black" fill-opacity="0" transform="translate(15 47.0002)"/>
<path d="M19 47.0005L19 94.0005H15V47.0002L19 47.0005Z" fill="#DE8970"/>
<path d="M64 47.0002H60V98.0002H64V47.0002Z" fill="#DE8970"/>
</g>
<path d="M80 3.5C80 4.46372 79.6073 5.33708 78.9773 5.97226C78.3452 6.60744 77.4741 7 76.5172 7H59.4805C57.567 7 56 5.42533 56 3.5C56 2.53628 56.3927 1.66292 57.0227 1.02774C57.6525 0.392563 58.5236 0 59.4805 0H76.5172C78.2354 0 79.6752 1.26804 79.9516 2.92C79.9824 3.10744 80 3.3014 80 3.5Z" fill="url(#paint5_linear)"/>
<defs>
<linearGradient id="paint0_linear" x1="2.46458e-05" y1="0.633767" x2="114.924" y2="16.9848" gradientUnits="userSpaceOnUse">
<stop stop-color="#F9DCD4"/>
<stop offset="1" stop-color="#FCEFD9"/>
</linearGradient>
<linearGradient id="paint1_linear" x1="41.2872" y1="23.0005" x2="98.9498" y2="26.3968" gradientUnits="userSpaceOnUse">
<stop stop-color="#6563F3"/>
<stop offset="1" stop-color="#6A6EF4"/>
</linearGradient>
<linearGradient id="paint2_linear" x1="55.671" y1="0.00024338" x2="80.2885" y2="7.17033" gradientUnits="userSpaceOnUse">
<stop stop-color="#6563F3"/>
<stop offset="1" stop-color="#6A6EF4"/>
</linearGradient>
<linearGradient id="paint3_linear" x1="12.6967" y1="29.4056" x2="39.1445" y2="60.4851" gradientUnits="userSpaceOnUse">
<stop stop-color="#F4B89B"/>
<stop offset="1" stop-color="#F4A08F"/>
</linearGradient>
<linearGradient id="paint4_linear" x1="-33" y1="15.5" x2="73.5436" y2="98.4583" gradientUnits="userSpaceOnUse">
<stop stop-color="#F4B89B"/>
<stop offset="1" stop-color="#F4A08F"/>
</linearGradient>
<linearGradient id="paint5_linear" x1="55.671" y1="-7.60638e-07" x2="80.2885" y2="7.17008" gradientUnits="userSpaceOnUse">
<stop stop-color="#6563F3"/>
<stop offset="1" stop-color="#6A6EF4"/>
</linearGradient>
</defs>
</svg>
