<svg width="8" height="13" viewBox="0 0 8 13" fill="none" xmlns="http://www.w3.org/2000/svg">
<path d="M0.42512 1.80404C0.0199096 1.4194 0.0199093 0.795766 0.42512 0.411124C0.830331 0.0264808 1.48731 0.0264808 1.89252 0.411124L7.57488 5.80506C7.98009 6.1897 7.98009 6.81333 7.57488 7.19797C7.16967 7.58261 6.51269 7.58261 6.10748 7.19797L0.42512 1.80404Z" fill="#6869F4"/>
<path d="M7.5732 7.19668C7.97841 6.81204 7.97841 6.18841 7.5732 5.80376C7.16799 5.41912 6.51102 5.41912 6.10581 5.80376L0.425272 11.196C0.0200609 11.5806 0.0200608 12.2042 0.425271 12.5889C0.830482 12.9735 1.48746 12.9735 1.89267 12.5889L7.5732 7.19668Z" fill="#6869F4"/>
<path fill-rule="evenodd" clip-rule="evenodd" d="M1.80958 0.500565C1.45101 0.160189 0.86663 0.160189 0.508054 0.500565C0.153881 0.83676 0.153881 1.3784 0.508054 1.7146L5.37226 6.33191L6.02287 5.71432C6.2823 5.46806 6.6333 5.36319 6.97071 5.39972L1.80958 0.500565ZM7.60592 7.33379C7.62358 7.31893 7.64089 7.30347 7.65781 7.28741C8.11406 6.85432 8.11406 6.14871 7.65781 5.71562L1.97545 0.321682C1.52361 -0.107227 0.794031 -0.107227 0.342186 0.321682C-0.114062 0.754772 -0.114062 1.46039 0.342186 1.89348L5.19511 6.50007L0.342338 11.1065C-0.113911 11.5396 -0.113911 12.2452 0.342338 12.6783C0.794182 13.1072 1.52376 13.1072 1.9756 12.6783L7.60592 7.33379ZM7.44575 7.1495L7.49027 7.10724C7.84444 6.77104 7.84444 6.2294 7.49027 5.8932C7.13169 5.55283 6.54732 5.55283 6.18874 5.8932L5.54942 6.50007L6.19042 7.10853C6.53398 7.43466 7.08483 7.44831 7.44575 7.1495ZM5.37226 6.66824L6.02455 7.28741C6.28301 7.53276 6.63235 7.63776 6.96861 7.60242L1.80974 12.4994C1.45116 12.8398 0.866782 12.8398 0.508205 12.4994C0.154032 12.1632 0.154032 11.6216 0.508205 11.2854L5.37226 6.66824Z" fill="#6869F4"/>
</svg>
