<svg width="64" height="98" viewBox="0 0 64 98" fill="none" xmlns="http://www.w3.org/2000/svg">
<path d="M28.3906 0C35.9157 -3.02322e-06 43.133 2.84158 48.4565 7.90033C53.78 12.9591 56.7742 19.8211 56.7811 26.9786V62.1971C56.7773 62.8047 56.5844 63.3976 56.2269 63.9011C55.8693 64.4046 55.363 64.7962 54.7719 65.0265C37.8435 71.5035 18.9376 71.5035 2.00926 65.0265C1.4181 64.7962 0.91184 64.4046 0.554278 63.9011C0.196717 63.3976 0.00385597 62.8047 0 62.1971V26.9786C0.00691648 19.8211 3.00111 12.9591 8.32463 7.90033C13.6481 2.84158 20.8654 -3.02322e-06 28.3906 0Z" transform="translate(3.60901 1)" fill="#A86C4D"/>
<path d="M28.3906 0C20.8654 -3.02322e-06 13.6481 2.84158 8.32463 7.90032C3.00111 12.9591 0.00691648 19.8211 0 26.9785V34.4243C0 27.2626 2.99114 20.3942 8.31541 15.3301C13.6397 10.266 20.8609 7.42096 28.3906 7.42096C35.9202 7.42096 43.1415 10.266 48.4657 15.3301C53.79 20.3942 56.7811 27.2626 56.7811 34.4243V26.9785C56.7742 19.8211 53.78 12.9591 48.4565 7.90032C43.133 2.84158 35.9157 -3.02322e-06 28.3906 0Z" transform="translate(3.60901 1)" fill="#DE926A"/>
<path d="M28.3906 0C35.9157 -3.02322e-06 43.133 2.84158 48.4565 7.90033C53.78 12.9591 56.7742 19.8211 56.7811 26.9786V62.1971C56.7773 62.8047 56.5844 63.3976 56.2269 63.9011C55.8693 64.4046 55.363 64.7962 54.7719 65.0265C37.8435 71.5035 18.9376 71.5035 2.00926 65.0265V65.0265C1.4181 64.7962 0.91184 64.4046 0.554278 63.9011C0.196717 63.3976 0.00385597 62.8047 0 62.1971V26.9786C0.00691648 19.8211 3.00111 12.9591 8.32462 7.90033C13.6481 2.84158 20.8654 -3.02322e-06 28.3906 0V0Z" transform="translate(3.60901 1)" stroke="#313A5E" stroke-linecap="round" stroke-linejoin="round"/>
<path d="M37.6279 10.6971V6.30409C37.6279 4.63214 36.9296 3.02867 35.6867 1.84643C34.4437 0.664178 32.7578 0 31 0C29.2422 0 27.5563 0.664178 26.3133 1.84643C25.0704 3.02867 24.372 4.63214 24.372 6.30409V10.6971C17.4654 12.1395 11.284 15.7826 6.85169 21.023C2.41934 26.2634 0.00198472 32.7866 0 39.5123V44.228H62V39.5123C61.998 32.7866 59.5807 26.2634 55.1483 21.023C50.716 15.7826 44.5346 12.1395 37.6279 10.6971Z" transform="translate(1 52.772)" fill="#FFCEBF"/>
<path d="M37.6279 10.6971V6.30409C37.6279 4.63214 36.9296 3.02867 35.6867 1.84643C34.4437 0.664178 32.7578 0 31 0C29.2422 0 27.5563 0.664178 26.3133 1.84643C25.0704 3.02867 24.372 4.63214 24.372 6.30409V10.6971C17.4654 12.1395 11.284 15.7826 6.85169 21.023C2.41934 26.2634 0.00198472 32.7866 0 39.5123V44.228C0.351534 37.7685 2.9246 31.5978 7.3234 26.665C11.7222 21.7323 17.7031 18.3107 24.346 16.9267V12.3848C24.346 10.7129 25.0443 9.1094 26.2872 7.92715C27.5302 6.7449 29.2161 6.08072 30.9739 6.08072C32.7317 6.08072 34.4176 6.7449 35.6606 7.92715C36.9035 9.1094 37.6019 10.7129 37.6019 12.3848V16.9267C44.2448 18.3107 50.2256 21.7323 54.6244 26.665C59.0232 31.5978 61.5963 37.7685 61.9478 44.228V39.5123C61.9484 32.7935 59.5385 26.2756 55.1165 21.0362C50.6944 15.7967 44.5249 12.1494 37.6279 10.6971Z" transform="translate(1 52.772)" fill="#FFB59E"/>
<path d="M37.6279 10.6971V6.30409C37.6279 4.63214 36.9296 3.02867 35.6867 1.84643C34.4437 0.664178 32.7578 0 31 0C29.2422 0 27.5563 0.664178 26.3133 1.84643C25.0704 3.02867 24.372 4.63214 24.372 6.30409V10.6971C17.4654 12.1395 11.284 15.7826 6.85169 21.023C2.41934 26.2634 0.00198472 32.7866 0 39.5123V44.228H62V39.5123C61.998 32.7866 59.5807 26.2634 55.1483 21.023C50.716 15.7826 44.5346 12.1395 37.6279 10.6971V10.6971Z" transform="translate(1 52.772)" stroke="#313A5E" stroke-linecap="round" stroke-linejoin="round"/>
<path d="M52.032 16.0581C48.7489 15.17 45.7163 13.5946 43.1563 11.4474C40.5962 9.30016 38.5736 6.63545 37.2365 3.64843L35.6187 0C29.3279 8.06524 20.0443 13.5496 9.65488 15.3383L4.72306 16.1822C3.47043 16.1822 2.2691 16.6555 1.38335 17.4979C0.497608 18.3404 0 19.483 0 20.6745C0 21.8659 0.497608 23.0085 1.38335 23.851C2.2691 24.6935 3.47043 25.1667 4.72306 25.1667H5.0362C5.64678 30.6532 8.3705 35.7307 12.6826 39.4209C16.9947 43.111 22.59 45.1528 28.3906 45.1528C34.1911 45.1528 39.7865 43.111 44.0986 39.4209C48.4106 35.7307 51.1344 30.6532 51.7449 25.1667H52.032C53.2846 25.1667 54.4859 24.6935 55.3717 23.851C56.2574 23.0085 56.755 21.8659 56.755 20.6745C56.755 19.483 56.2574 18.3404 55.3717 17.4979C54.4859 16.6555 53.2846 16.1822 52.032 16.1822V16.0581Z" transform="translate(3.60901 17.5767)" fill="#FFCEBF" stroke="#313A5E" stroke-linecap="round" stroke-linejoin="round"/>
<path d="M0.000173993 1.91125C0.000173993 2.28923 0.118015 2.65872 0.338795 2.97299C0.559575 3.28727 0.87338 3.53222 1.24052 3.67686C1.60767 3.82151 2.01166 3.85935 2.40142 3.78562C2.79118 3.71188 3.14919 3.52986 3.43019 3.26259C3.71119 2.99532 3.90256 2.6548 3.98009 2.28408C4.05761 1.91337 4.01782 1.52912 3.86575 1.17991C3.71367 0.830705 3.45614 0.532234 3.12572 0.322241C2.7953 0.112249 2.40683 0.000165491 2.00943 0.000165491C1.7446 -0.00317126 1.48175 0.0439809 1.23639 0.13884C0.991033 0.2337 0.768136 0.374345 0.580856 0.552474C0.393576 0.730604 0.245705 0.942611 0.145973 1.17598C0.0462403 1.40935 -0.00333417 1.65936 0.000173993 1.91125Z" transform="translate(17.8302 35.2998)" fill="#313A5E" stroke="#313A5E" stroke-linecap="round" stroke-linejoin="round"/>
<path d="M4.01852 1.91125C4.01852 2.28923 3.90068 2.65872 3.6799 2.97299C3.45912 3.28727 3.14532 3.53222 2.77817 3.67686C2.41103 3.82151 2.00703 3.85935 1.61728 3.78562C1.22752 3.71188 0.869502 3.52986 0.588502 3.26259C0.307502 2.99532 0.116136 2.6548 0.0386082 2.28408C-0.0389195 1.91337 0.000870767 1.52912 0.152947 1.17991C0.305023 0.830705 0.562554 0.532234 0.892975 0.322241C1.2234 0.112249 1.61187 0.000165491 2.00926 0.000165491C2.27409 -0.00317126 2.53694 0.0439809 2.7823 0.13884C3.02766 0.2337 3.25056 0.374345 3.43784 0.552474C3.62512 0.730604 3.77299 0.942611 3.87272 1.17598C3.97245 1.40935 4.02203 1.65936 4.01852 1.91125Z" transform="translate(42.1504 35.2998)" fill="#313A5E" stroke="#313A5E" stroke-linecap="round" stroke-linejoin="round"/>
<path d="M1.13783 6.78529e-08C0.972718 0.00339016 0.810314 0.0406224 0.661706 0.109154C0.513097 0.177686 0.381783 0.275904 0.276723 0.397108C0.167504 0.51401 0.0873385 0.652786 0.0421679 0.803158C-0.00300265 0.953531 -0.0120212 1.11165 0.0157794 1.26578C0.368128 3.17492 1.4168 4.9048 2.97742 6.15129C4.53804 7.39779 6.51071 8.08111 8.54861 8.08111C10.5865 8.08111 12.5592 7.39779 14.1198 6.15129C15.6804 4.9048 16.7291 3.17492 17.0814 1.26578C17.1092 1.11165 17.1002 0.953531 17.055 0.803158C17.0099 0.652786 16.9297 0.51401 16.8205 0.397108C16.7179 0.273287 16.5871 0.173219 16.4379 0.104435C16.2888 0.0356506 16.1251 -5.6814e-05 15.9594 6.78529e-08H1.13783Z" transform="translate(23.4504 48.8521)" fill="#FF6242"/>
<path d="M6.57576 0.00759101C4.21982 -0.0800647 1.90207 0.593532 0 1.91868C0.822255 2.78962 1.82808 3.48617 2.95203 3.963C4.07598 4.43983 5.29288 4.68626 6.52357 4.68626C7.75426 4.68626 8.97116 4.43983 10.0951 3.963C11.2191 3.48617 12.2249 2.78962 13.0471 1.91868C11.1735 0.614855 8.89631 -0.0576275 6.57576 0.00759101Z" transform="translate(25.4224 52.3188)" fill="#FFA694"/>
<path d="M1.13783 6.78529e-08C0.972718 0.00339016 0.810314 0.0406224 0.661706 0.109154C0.513097 0.177686 0.381783 0.275904 0.276723 0.397108C0.167504 0.51401 0.0873385 0.652786 0.0421679 0.803158C-0.00300265 0.953531 -0.0120212 1.11165 0.0157794 1.26578C0.368128 3.17492 1.4168 4.9048 2.97742 6.15129C4.53804 7.39779 6.51071 8.08111 8.54861 8.08111C10.5865 8.08111 12.5592 7.39779 14.1198 6.15129C15.6804 4.9048 16.7291 3.17492 17.0814 1.26578C17.1092 1.11165 17.1002 0.953531 17.055 0.803158C17.0099 0.652786 16.9297 0.51401 16.8205 0.397108C16.7179 0.273287 16.5871 0.173219 16.4379 0.104435C16.2888 0.0356506 16.1251 -5.6814e-05 15.9594 6.78529e-08H1.13783Z" transform="translate(23.4504 48.8521)" stroke="#313A5E" stroke-linecap="round" stroke-linejoin="round"/>
<path d="M2.60943 2.97831C4.05057 2.97831 5.21885 2.3116 5.21885 1.48916C5.21885 0.666719 4.05057 0 2.60943 0C1.16828 0 0 0.666719 0 1.48916C0 2.3116 1.16828 2.97831 2.60943 2.97831Z" transform="translate(13.8901 43.8633)" fill="#FFB59E"/>
<path d="M2.60943 2.97831C4.05057 2.97831 5.21885 2.3116 5.21885 1.48916C5.21885 0.666719 4.05057 0 2.60943 0C1.16828 0 0 0.666719 0 1.48916C0 2.3116 1.16828 2.97831 2.60943 2.97831Z" transform="translate(44.8889 43.8633)" fill="#FFB59E"/>
<path d="M42.8468 0C39.4285 8.63711 34.6793 10.5482 25.5985 14.8916C16.6221 10.5978 11.7946 8.61229 8.35017 0C5.06021 2.08682 2.22491 4.75831 0 7.86772C2.26648 9.8209 4.0973 12.1873 5.38378 14.8264C6.67026 17.4655 7.38619 20.3235 7.48906 23.2308V29.2123H43.7079V23.2308C43.8108 20.3235 44.5267 17.4655 45.8132 14.8264C47.0997 12.1873 48.9305 9.8209 51.197 7.86772C48.9721 4.75831 46.1368 2.08682 42.8468 0Z" transform="translate(6.40088 67.7876)" fill="#D2DAFF"/>
<path d="M2.40067 0C1.76871 1.64447 0.964435 3.22431 0 4.71567C3.01844 6.27986 5.74313 8.3095 8.06313 10.7219C8.86645 9.71733 9.73813 8.76388 10.6726 7.86772C8.47069 4.7653 5.66246 2.09428 2.40067 0Z" transform="translate(46.847 67.7876)" fill="#B8C9FF"/>
<path d="M10.7769 4.69084C9.79816 3.21204 8.98481 1.63986 8.35017 0C5.06021 2.08682 2.22491 4.75831 0 7.86772C0.934427 8.76388 1.8061 9.71733 2.60943 10.7219C4.96851 8.30199 7.72733 6.2648 10.7769 4.69084Z" transform="translate(6.40088 67.7876)" fill="#B8C9FF"/>
<path d="M42.8468 0C39.4285 8.63711 34.6793 10.5482 25.5985 14.8916C16.6221 10.5978 11.7946 8.61229 8.35017 0C5.06021 2.08682 2.22491 4.75831 0 7.86772C2.26648 9.8209 4.0973 12.1873 5.38378 14.8264C6.67026 17.4655 7.38619 20.3235 7.48906 23.2308V29.2123H43.7079V23.2308C43.8108 20.3235 44.5267 17.4655 45.8132 14.8264C47.0997 12.1873 48.9305 9.8209 51.197 7.86772C48.9721 4.75831 46.1368 2.08682 42.8468 0V0Z" transform="translate(6.40088 67.7876)" stroke="#313A5E" stroke-linecap="round" stroke-linejoin="round"/>
<path d="M10.7247 0H4.43603C1.98608 0 0 1.88904 0 4.21928V15.9588C0 18.289 1.98608 20.1781 4.43603 20.1781H10.7247C13.1747 20.1781 15.1608 18.289 15.1608 15.9588V4.21928C15.1608 1.88904 13.1747 0 10.7247 0Z" transform="translate(24.406 56.8188)" fill="#DAEDF7"/>
<path d="M10.7247 6.21357e-10H4.46212C3.2832 -1.91733e-05 2.15218 0.443717 1.31612 1.23428C0.480052 2.02484 0.00689427 3.09798 0 4.21928V8.48819C0.00689427 7.3669 0.480052 6.29376 1.31612 5.5032C2.15218 4.71264 3.2832 4.2689 4.46212 4.26892H10.7247C11.9037 4.2689 13.0347 4.71264 13.8707 5.5032C14.7068 6.29376 15.18 7.3669 15.1869 8.48819V4.21928C15.18 3.09798 14.7068 2.02484 13.8707 1.23428C13.0347 0.443717 11.9037 -1.91733e-05 10.7247 6.21357e-10Z" transform="translate(24.406 56.8188)" fill="#E8F4FA"/>
<path d="M10.7247 0H4.43603C1.98608 0 0 1.88904 0 4.21928V15.9588C0 18.289 1.98608 20.1781 4.43603 20.1781H10.7247C13.1747 20.1781 15.1608 18.289 15.1608 15.9588V4.21928C15.1608 1.88904 13.1747 0 10.7247 0Z" transform="translate(24.406 56.8188)" stroke="#313A5E" stroke-linecap="round" stroke-linejoin="round"/>
<path d="M0 0H4.14899" transform="translate(35.4437 62.2544)" stroke="#313A5E" stroke-linecap="round" stroke-linejoin="round"/>
<path d="M0 0H4.14899" transform="translate(35.4437 66.895)" stroke="#313A5E" stroke-linecap="round" stroke-linejoin="round"/>
<path d="M0 0H4.14899" transform="translate(35.4437 71.5605)" stroke="#313A5E" stroke-linecap="round" stroke-linejoin="round"/>
<path d="M0 0H4.14899" transform="translate(24.406 62.2544)" stroke="#313A5E" stroke-linecap="round" stroke-linejoin="round"/>
<path d="M0 0H4.14899" transform="translate(24.406 66.895)" stroke="#313A5E" stroke-linecap="round" stroke-linejoin="round"/>
<path d="M0 0H4.14899" transform="translate(24.406 71.5605)" stroke="#313A5E" stroke-linecap="round" stroke-linejoin="round"/>
<path d="M0 0.0992699H9.5766V2.73012C9.5766 3.17773 9.38965 3.607 9.05688 3.92351C8.72412 4.24001 8.27279 4.41783 7.80219 4.41783H1.77441C1.30381 4.41783 0.852479 4.24001 0.519712 3.92351C0.186946 3.607 0 3.17773 0 2.73012V0V0.0992699Z" transform="translate(27.2242 76.8989)" fill="#C0DCEB" stroke="#313A5E" stroke-linecap="round" stroke-linejoin="round"/>
<path d="M4.85354 0H0V15.5865H4.85354V0Z" transform="translate(29.5739 81.4126)" fill="#87898C" stroke="#313A5E" stroke-linecap="round" stroke-linejoin="round"/>
</svg>
