<svg width="64" height="98" viewBox="0 0 64 98" fill="none" xmlns="http://www.w3.org/2000/svg">
<path d="M26.9957 0C34.1511 -2.80101e-06 41.0137 2.63272 46.0757 7.31964C51.1377 12.0066 53.9847 18.3642 53.9913 24.9956V57.6255C53.978 58.1806 53.7901 58.72 53.4507 59.1775C53.1113 59.635 52.6352 59.9907 52.0808 60.201C35.9841 66.2019 18.0072 66.2019 1.91054 60.201C1.34843 59.9876 0.867038 59.6248 0.527045 59.1583C0.187051 58.6918 0.00366651 58.1425 0 57.5796V24.9956C0.00657665 18.3642 2.85366 12.0066 7.91561 7.31964C12.9776 2.63272 19.8403 -2.80101e-06 26.9957 0Z" transform="translate(5.01892 1)" fill="#A86C4D"/>
<path d="M26.9957 0C19.8403 -2.80101e-06 12.9776 2.63272 7.91561 7.31964C2.85366 12.0066 0.00657665 18.3642 0 24.9956V31.8941C0 25.2588 2.84418 18.8952 7.90685 14.2033C12.9695 9.51139 19.836 6.87551 26.9957 6.87551C34.1553 6.87551 41.0218 9.51139 46.0845 14.2033C51.1471 18.8952 53.9913 25.2588 53.9913 31.8941V24.9956C53.9847 18.3642 51.1377 12.0066 46.0757 7.31964C41.0137 2.63272 34.1511 -2.80101e-06 26.9957 0Z" transform="translate(5.01892 1)" fill="#DE926A"/>
<path d="M26.9957 0C34.1511 -2.80101e-06 41.0137 2.63272 46.0757 7.31964C51.1377 12.0066 53.9847 18.3642 53.9913 24.9956V57.6255C53.978 58.1806 53.7901 58.72 53.4507 59.1775C53.1113 59.635 52.6352 59.9907 52.0808 60.201V60.201C35.9841 66.2019 18.0072 66.2019 1.91054 60.201V60.201C1.34843 59.9876 0.867039 59.6248 0.527045 59.1583C0.187051 58.6918 0.00366651 58.1425 0 57.5796V24.9956C0.00657665 18.3642 2.85366 12.0066 7.91561 7.31964C12.9776 2.63272 19.8403 -2.80101e-06 26.9957 0Z" transform="translate(5.01892 1)" stroke="#313A5E" stroke-linecap="round" stroke-linejoin="round"/>
<path d="M29.4769 0C37.2946 0 44.7922 2.87815 50.3202 8.00128C55.8482 13.1244 58.9538 20.0729 58.9538 27.3181V31.6872H0V27.3181C0 20.0729 3.10559 13.1244 8.63358 8.00128C14.1616 2.87815 21.6591 0 29.4769 0Z" transform="translate(2.53625 58.2573)" fill="#D2DAFF"/>
<path d="M29.4769 0C21.6591 0 14.1616 2.87815 8.63358 8.00128C3.10559 13.1244 0 20.0729 0 27.3181V31.6872H0.173685C0.973798 25.0036 4.40576 18.8283 9.81251 14.3436C15.2193 9.85897 22.2209 7.38002 29.4769 7.38141C36.7329 7.38002 43.7345 9.85897 49.1412 14.3436C54.548 18.8283 57.98 25.0036 58.7801 31.6872H58.9538V27.3181C58.9538 20.0729 55.8482 13.1244 50.3202 8.00128C44.7922 2.87815 37.2946 0 29.4769 0Z" transform="translate(2.53625 58.2573)" fill="#A4B8F7"/>
<path d="M29.4769 0C37.2946 0 44.7922 2.87815 50.3202 8.00128C55.8482 13.1244 58.9538 20.0729 58.9538 27.3181V31.6872H0V27.3181C0 20.0729 3.10559 13.1244 8.63358 8.00128C14.1616 2.87815 21.6591 0 29.4769 0V0Z" transform="translate(2.53625 58.2573)" stroke="#313A5E" stroke-linecap="round" stroke-linejoin="round"/>
<path d="M0 5.54179V0" transform="translate(14.7974 84.4004)" stroke="#45413C" stroke-linecap="round" stroke-linejoin="round"/>
<path d="M0 5.54179V0" transform="translate(49.234 84.4004)" stroke="#45413C" stroke-linecap="round" stroke-linejoin="round"/>
<path d="M6.32711 0H6.3023C2.82164 0 0 2.61498 0 5.84073V12.4173C0 15.6431 2.82164 18.2581 6.3023 18.2581H6.32711C9.80777 18.2581 12.6294 15.6431 12.6294 12.4173V5.84073C12.6294 2.61498 9.80777 0 6.32711 0Z" transform="translate(25.7111 48.9458)" fill="#EBCB00" stroke="#45413C" stroke-linecap="round" stroke-linejoin="round"/>
<path d="M49.4755 14.9238C46.3538 14.101 43.4701 12.6414 41.0359 10.652C38.6016 8.66258 36.6784 6.19373 35.407 3.42626L33.8686 0C27.8869 7.47244 19.0595 12.5537 9.18051 14.2109L4.49101 14.9238C3.29992 14.9238 2.15761 15.3623 1.31539 16.1428C0.473159 16.9234 0 17.982 0 19.0859C0 20.1897 0.473159 21.2484 1.31539 22.0289C2.15761 22.8095 3.29992 23.248 4.49101 23.248H4.78875C5.36934 28.3312 7.95923 33.0355 12.0595 36.4544C16.1597 39.8733 21.4801 41.765 26.9957 41.765C32.5112 41.765 37.8316 39.8733 41.9319 36.4544C46.0321 33.0355 48.622 28.3312 49.2026 23.248H49.4755C50.6666 23.248 51.8089 22.8095 52.6511 22.0289C53.4934 21.2484 53.9665 20.1897 53.9665 19.0859C53.9665 17.982 53.4934 16.9234 52.6511 16.1428C51.8089 15.3623 50.6666 14.9238 49.4755 14.9238Z" transform="translate(5.01892 16.3818)" fill="#FFCEBF" stroke="#313A5E" stroke-linecap="round" stroke-linejoin="round"/>
<path d="M0.000165444 1.77077C0.000165444 2.12097 0.112216 2.4633 0.322149 2.75448C0.532082 3.04565 0.830468 3.2726 1.17957 3.40661C1.52868 3.54062 1.91282 3.57569 2.28343 3.50737C2.65404 3.43905 2.99446 3.27041 3.26166 3.02279C3.52885 2.77516 3.71081 2.45967 3.78453 2.1162C3.85825 1.77273 3.82042 1.41672 3.67581 1.09319C3.53121 0.769648 3.28633 0.493114 2.97214 0.298556C2.65796 0.103998 2.28857 0.000153328 1.9107 0.000153328C1.65889 -0.00293816 1.40895 0.0407483 1.17564 0.128635C0.942341 0.216523 0.730395 0.34683 0.552316 0.511867C0.374238 0.676904 0.233633 0.873328 0.138801 1.08955C0.0439683 1.30576 -0.00317035 1.5374 0.000165444 1.77077Z" transform="translate(18.5437 32.7798)" fill="#313A5E" stroke="#313A5E" stroke-linecap="round" stroke-linejoin="round"/>
<path d="M3.82108 1.77077C3.82108 2.12097 3.70903 2.4633 3.49909 2.75448C3.28916 3.04565 2.99078 3.2726 2.64167 3.40661C2.29257 3.54062 1.90842 3.57569 1.53781 3.50737C1.16721 3.43905 0.82678 3.27041 0.559587 3.02279C0.292393 2.77516 0.11043 2.45967 0.0367112 2.1162C-0.0370073 1.77273 0.000827983 1.41672 0.145432 1.09319C0.290036 0.769648 0.534914 0.493114 0.8491 0.298556C1.16329 0.103998 1.53267 0.000153328 1.91054 0.000153328C2.16236 -0.00293816 2.4123 0.0407483 2.6456 0.128635C2.8789 0.216523 3.09085 0.34683 3.26893 0.511867C3.44701 0.676904 3.58761 0.873328 3.68244 1.08955C3.77728 1.30576 3.82441 1.5374 3.82108 1.77077Z" transform="translate(41.6693 32.7798)" fill="#313A5E" stroke="#313A5E" stroke-linecap="round" stroke-linejoin="round"/>
<path d="M2.48122 2.75941C3.85156 2.75941 4.96244 2.14169 4.96244 1.3797C4.96244 0.617714 3.85156 0 2.48122 0C1.11088 0 0 0.617714 0 1.3797C0 2.14169 1.11088 2.75941 2.48122 2.75941Z" transform="translate(14.7974 40.7134)" fill="#FFB59E"/>
<path d="M2.48122 2.75941C3.85156 2.75941 4.96244 2.14169 4.96244 1.3797C4.96244 0.617714 3.85156 0 2.48122 0C1.11088 0 0 0.617714 0 1.3797C0 2.14169 1.11088 2.75941 2.48122 2.75941Z" transform="translate(44.269 40.7134)" fill="#FFB59E"/>
<path d="M0 0H5.80605" transform="translate(29.1132 48.9458)" stroke="#313A5E" stroke-linecap="round" stroke-linejoin="round"/>
<path d="M46.4174 44.4977C45.4561 45.3367 44.3238 45.9895 43.0868 46.4178C41.8498 46.8461 40.533 47.0414 39.2136 46.9921C37.8942 46.9429 36.5986 46.6501 35.4028 46.131C34.207 45.6118 33.135 44.8767 32.2496 43.9688L0.614092 10.718C0.193716 10.2728 -0.025382 9.69465 0.002344 9.10366C0.03007 8.51266 0.302486 7.9543 0.762964 7.54465L8.50437 0.646139C8.96703 0.231676 9.58534 0 10.2288 0C10.8723 0 11.4906 0.231676 11.9533 0.646139L46.4174 31.3675C47.3589 32.2237 48.1068 33.2453 48.6174 34.3726C49.1279 35.4998 49.3909 36.7101 49.3909 37.9326C49.3909 39.1551 49.1279 40.3653 48.6174 41.4926C48.1068 42.6198 47.3589 43.6414 46.4174 44.4977Z" transform="translate(13.6091 50.0005)" fill="#D2DAFF"/>
<path d="M0 11.0146L11.9099 23.5469L24.2415 10.5777L12.3565 0L0 11.0146Z" transform="translate(25.9343 62.0059)" fill="#A4B8F7"/>
<path d="M20.1661 16.0298L24.6819 12.0057L11.9533 0.646139C11.4906 0.231676 10.8723 0 10.2288 0C9.58534 0 8.96703 0.231676 8.50437 0.646139L0.762964 7.54465C0.302486 7.9543 0.03007 8.51266 0.002344 9.10366C-0.025382 9.69465 0.193716 10.2728 0.614092 10.718L3.09531 13.4314C4.98874 11.7518 7.50859 10.8143 10.1296 10.8143C12.7505 10.8143 15.2704 11.7518 17.1638 13.4314L20.1661 16.0298Z" transform="translate(13.6091 50.0005)" fill="#E0E6FF"/>
<path d="M46.4174 44.4977C45.4561 45.3367 44.3238 45.9895 43.0868 46.4178C41.8498 46.8461 40.533 47.0414 39.2136 46.9921C37.8942 46.9429 36.5986 46.6501 35.4028 46.131C34.207 45.6118 33.135 44.8767 32.2496 43.9688L0.614092 10.718C0.193716 10.2728 -0.025382 9.69465 0.002344 9.10366C0.03007 8.51266 0.302486 7.9543 0.762964 7.54465L8.50437 0.646139C8.96703 0.231676 9.58534 0 10.2288 0C10.8723 0 11.4906 0.231676 11.9533 0.646139L46.4174 31.3675C47.3589 32.2237 48.1068 33.2453 48.6174 34.3726C49.1279 35.4998 49.3909 36.7101 49.3909 37.9326C49.3909 39.1551 49.1279 40.3653 48.6174 41.4926C48.1068 42.6198 47.3589 43.6414 46.4174 44.4977Z" transform="translate(13.6091 50.0005)" stroke="#313A5E" stroke-linecap="round" stroke-linejoin="round"/>
<path d="M19.3235 15.532L11.8799 22.2465L6.52045 17.0497C5.57247 16.1364 4.81531 15.0683 4.28735 13.8993L0.317404 5.09225C-0.0124864 4.31339 -0.0872219 3.46167 0.102551 2.64364C0.292325 1.82562 0.73818 1.07762 1.38433 0.493244C1.54425 0.337397 1.73669 0.213309 1.94996 0.128517C2.16323 0.0437255 2.39287 0 2.62494 0C2.857 0 3.08664 0.0437255 3.29991 0.128517C3.51318 0.213309 3.70562 0.337397 3.86555 0.493244L19.3235 15.532Z" transform="translate(2.76721 35.207)" fill="#FFCEBF"/>
<path d="M3.86555 5.96606C3.70562 5.81021 3.51318 5.68612 3.29991 5.60133C3.08664 5.51654 2.857 5.47282 2.62494 5.47282C2.39287 5.47282 2.16323 5.51654 1.94996 5.60133C1.73669 5.68612 1.54425 5.81021 1.38433 5.96606C1.22217 6.12423 1.07289 6.29333 0.937707 6.47195L0.317403 5.09225C-0.0124881 4.31339 -0.0872212 3.46167 0.102552 2.64364C0.292325 1.82562 0.738178 1.07762 1.38433 0.493244C1.54425 0.337397 1.73669 0.213309 1.94996 0.128517C2.16323 0.0437255 2.39287 0 2.62494 0C2.857 0 3.08664 0.0437255 3.29991 0.128517C3.51318 0.213309 3.70562 0.337397 3.86555 0.493244L19.5468 15.486L16.5446 18.1534L3.86555 5.96606Z" transform="translate(2.54395 35.2524)" fill="#FFDCD1"/>
<path d="M19.3235 15.532L11.8799 22.2465L6.52045 17.0497C5.57247 16.1364 4.81531 15.0683 4.28735 13.8993L0.317404 5.09225C-0.0124864 4.31339 -0.0872219 3.46167 0.102551 2.64364C0.292325 1.82562 0.73818 1.07762 1.38433 0.493244V0.493244C1.54425 0.337397 1.73669 0.213309 1.94996 0.128517C2.16323 0.0437255 2.39287 0 2.62494 0C2.857 0 3.08664 0.0437255 3.29991 0.128517C3.51318 0.213309 3.70562 0.337397 3.86555 0.493244L19.3235 15.532Z" transform="translate(2.76721 35.207)" stroke="#313A5E" stroke-linecap="round" stroke-linejoin="round"/>
<path d="M2.97349 44.4977C3.9348 45.3367 5.06711 45.9895 6.30409 46.4178C7.54107 46.8461 8.85784 47.0414 10.1773 46.9921C11.4967 46.9429 12.7923 46.6501 13.9881 46.131C15.1839 45.6118 16.2559 44.8767 17.1412 43.9688L48.7768 10.718C49.1971 10.2728 49.4162 9.69465 49.3885 9.10366C49.3608 8.51266 49.0884 7.9543 48.6279 7.54465L40.8865 0.646139C40.4238 0.231676 39.8055 0 39.162 0C38.5186 0 37.9003 0.231676 37.4376 0.646139L2.97349 31.3675C2.03196 32.2237 1.28407 33.2453 0.773514 34.3726C0.262962 35.4998 0 36.7101 0 37.9326C0 39.1551 0.262962 40.3653 0.773514 41.4926C1.28407 42.6198 2.03196 43.6414 2.97349 44.4977Z" transform="translate(1.02673 50.0005)" fill="#D2DAFF"/>
<path d="M48.6564 7.54465L40.915 0.646139C40.4523 0.231676 39.834 0 39.1905 0C38.5471 0 37.9287 0.231676 37.4661 0.646139L3.00196 31.3675C1.50149 32.7212 0.501458 34.48 0.144927 36.3923C-0.211605 38.3046 0.0936371 40.2724 1.01698 42.0142C1.503 41.0504 2.17581 40.1774 3.00196 39.4388L32.1563 13.5004C34.0497 11.8208 36.5695 10.8833 39.1905 10.8833C41.8115 10.8833 44.3314 11.8208 46.2248 13.5004L48.706 10.7869C49.1616 10.3501 49.4121 9.76382 49.4028 9.15631C49.3935 8.5488 49.1252 7.96938 48.6564 7.54465Z" transform="translate(1 50.0005)" fill="#E0E6FF"/>
<path d="M2.97349 44.4977C3.9348 45.3367 5.06711 45.9895 6.30409 46.4178C7.54107 46.8461 8.85784 47.0414 10.1773 46.9921C11.4967 46.9429 12.7923 46.6501 13.9881 46.131C15.1839 45.6118 16.2559 44.8767 17.1412 43.9688L48.7768 10.718C49.1971 10.2728 49.4162 9.69465 49.3885 9.10366C49.3608 8.51266 49.0884 7.9543 48.6279 7.54465L40.8865 0.646139C40.4238 0.231676 39.8055 0 39.162 0C38.5186 0 37.9003 0.231676 37.4376 0.646139L2.97349 31.3675C2.03196 32.2237 1.28407 33.2453 0.773514 34.3726C0.262962 35.4998 0 36.7101 0 37.9326C0 39.1551 0.262962 40.3653 0.773514 41.4926C1.28407 42.6198 2.03196 43.6414 2.97349 44.4977Z" transform="translate(1.02673 50.0005)" stroke="#313A5E" stroke-linecap="round" stroke-linejoin="round"/>
<path d="M0 15.532L7.44366 22.2465L12.8031 17.0497C13.7511 16.1364 14.5082 15.0683 15.0362 13.8993L19.0061 5.09225C19.336 4.31339 19.4108 3.46167 19.221 2.64364C19.0312 1.82562 18.5854 1.07762 17.9392 0.493244C17.7793 0.337397 17.5868 0.213309 17.3736 0.128517C17.1603 0.0437255 16.9307 0 16.6986 0C16.4665 0 16.2369 0.0437255 16.0236 0.128517C15.8104 0.213309 15.6179 0.337397 15.458 0.493244L0 15.532Z" transform="translate(41.9418 35.207)" fill="#FFCEBF"/>
<path d="M15.6813 5.96606C15.8412 5.81021 16.0337 5.68612 16.2469 5.60133C16.4602 5.51654 16.6898 5.47282 16.9219 5.47282C17.154 5.47282 17.3836 5.51654 17.5969 5.60133C17.8102 5.68612 18.0026 5.81021 18.1625 5.96606C18.3247 6.12423 18.474 6.29333 18.6091 6.47195L19.2294 5.09225C19.5593 4.31339 19.6341 3.46167 19.4443 2.64364C19.2545 1.82562 18.8087 1.07762 18.1625 0.493244C18.0026 0.337397 17.8102 0.213309 17.5969 0.128517C17.3836 0.0437255 17.154 0 16.9219 0C16.6898 0 16.4602 0.0437255 16.2469 0.128517C16.0337 0.213309 15.8412 0.337397 15.6813 0.493244L0 15.486L3.00227 18.1534L15.6813 5.96606Z" transform="translate(41.9418 35.2524)" fill="#FFDCD1"/>
<path d="M0 15.532L7.44366 22.2465L12.8031 17.0497C13.7511 16.1364 14.5082 15.0683 15.0362 13.8993L19.0061 5.09225C19.336 4.31339 19.4108 3.46167 19.221 2.64364C19.0312 1.82562 18.5854 1.07762 17.9392 0.493244V0.493244C17.7793 0.337397 17.5868 0.213309 17.3736 0.128517C17.1603 0.0437255 16.9307 0 16.6986 0C16.4665 0 16.2369 0.0437255 16.0236 0.128517C15.8104 0.213309 15.6179 0.337397 15.458 0.493244L0 15.532Z" transform="translate(41.9418 35.207)" stroke="#313A5E" stroke-linecap="round" stroke-linejoin="round"/>
</svg>
