<svg width="27" height="20" viewBox="0 0 27 20" fill="none" xmlns="http://www.w3.org/2000/svg">
<path d="M23.1452 0H3.22386C1.44555 0 0 1.441 0 3.2137V16.7863C0 18.559 1.44555 20 3.22386 20H23.1398C24.9181 20 26.3636 18.559 26.3636 16.7863V3.21914C26.3691 1.44644 24.9235 0 23.1452 0ZM24.8962 16.7863C24.8962 17.7488 24.1107 18.5318 23.1452 18.5318H3.22386C2.25834 18.5318 1.47283 17.7488 1.47283 16.7863V3.21914C1.47283 2.25666 2.25834 1.47363 3.22386 1.47363H23.1398C24.1053 1.47363 24.8908 2.25666 24.8908 3.21914V16.7863H24.8962Z" fill="#9DABC9"/>
<path d="M16.6266 9.83143L23.0743 4.06743C23.3743 3.79554 23.4016 3.33333 23.1289 3.02882C22.8561 2.72974 22.3924 2.70256 22.087 2.97444L13.1955 10.9299L11.4608 9.38554C11.4553 9.3801 11.4499 9.37466 11.4499 9.36922C11.4117 9.33116 11.3735 9.29853 11.3299 9.26591L4.2712 2.969C3.96573 2.69712 3.50206 2.72431 3.22932 3.02882C2.95657 3.33333 2.98384 3.79554 3.28932 4.06743L9.8134 9.88037L3.31659 15.9434C3.02203 16.2208 3.00566 16.683 3.28386 16.9821C3.43115 17.1343 3.62752 17.2159 3.8239 17.2159C4.00391 17.2159 4.18393 17.1506 4.32575 17.0201L10.9208 10.87L12.71 12.4633C12.8518 12.5884 13.0263 12.6482 13.2009 12.6482C13.3755 12.6482 13.5555 12.5829 13.6918 12.4579L15.5302 10.8157L22.087 17.0256C22.2288 17.1615 22.4143 17.2268 22.5943 17.2268C22.7907 17.2268 22.9816 17.1506 23.1289 16.9984C23.4071 16.7047 23.3961 16.2371 23.1016 15.9598L16.6266 9.83143Z" fill="#9DABC9"/>
</svg>
