<svg width="17" height="17" viewBox="0 0 17 17" fill="none" xmlns="http://www.w3.org/2000/svg">
<path d="M15.5692 7.42595C15.1899 7.42595 14.8825 7.72857 14.8825 8.10185V8.78262C14.8815 10.5584 14.1779 12.2275 12.9014 13.4825C11.6258 14.7365 9.9308 15.4269 8.12806 15.4269H8.12408C4.39962 15.4249 1.37129 12.4408 1.37342 8.77497C1.37445 6.99921 2.07802 5.33009 3.35455 4.07509C4.63011 2.82108 6.32517 2.1306 8.12786 2.1306H8.13185C9.08385 2.13113 10.0075 2.32479 10.8771 2.70614C11.2236 2.8581 11.6294 2.7048 11.7838 2.36384C11.9382 2.02289 11.7825 1.62334 11.4361 1.47137C10.3896 1.01244 9.27822 0.77943 8.13261 0.778809H8.12783C5.9587 0.778809 3.91877 1.60981 2.38392 3.11873C0.847877 4.62883 0.00126306 6.63734 1.33892e-06 8.77425C-0.00122718 10.9111 0.842996 12.9206 2.37731 14.4324C3.91163 15.9443 5.95223 16.7776 8.12328 16.7788H8.12806C10.2972 16.7788 12.3371 15.9478 13.872 14.4389C15.408 12.9288 16.2546 10.9202 16.2559 8.78301V8.10188C16.2559 7.72857 15.9485 7.42595 15.5692 7.42595Z" fill="#FD9480"/>
<path d="M16.7988 1.71357C16.5307 1.44964 16.0959 1.44964 15.8277 1.71357L8.12791 9.29211L6.38112 7.57282C6.11298 7.30886 5.67815 7.30886 5.41 7.57282C5.14182 7.83678 5.14182 8.26473 5.41 8.52869L7.64238 10.7259C7.77645 10.8579 7.95223 10.9239 8.12797 10.9239C8.30372 10.9239 8.47946 10.8579 8.61357 10.7259L16.7988 2.66944C17.067 2.40548 17.067 1.97753 16.7988 1.71357Z" fill="#FD9480"/>
</svg>
