<svg width="1074" height="520" viewBox="0 0 1074 520" fill="none" xmlns="http://www.w3.org/2000/svg">
<path fill-rule="evenodd" clip-rule="evenodd" d="M26.0307 0.00474004C26.0307 5.008 28.2344 1.29539 22.0308 2.50488C20.6253 2.7789 16.5308 3.00488 16.5308 6.50488C17.0332 9.23442 20.107 11.0453 18.9763 14.3304C18.6385 15.3116 17.9865 15.9958 17.13 16.3917C16.3097 16.7709 15.3567 16.8621 14.4006 16.8039C12.4952 16.688 10.2435 15.9544 8.15405 15.0843C6.04305 14.2053 4.0054 13.147 2.50169 12.3129C1.74817 11.8949 1.12504 11.5312 0.689311 11.2714C0.47138 11.1414 0.300143 11.0373 0.182715 10.9653C0.123997 10.9293 0.0787163 10.9013 0.0477637 10.8821L0.0121858 10.8599L0.00266054 10.854L2.70469e-08 10.8523C2.70469e-08 10.8523 -0.00124532 10.8515 0.530714 10.0047C1.06267 9.15797 1.06258 9.15791 1.06258 9.15791L1.07176 9.16365L1.10283 9.183C1.13073 9.20033 1.17285 9.22637 1.22829 9.26037C1.33918 9.32838 1.50333 9.42817 1.71366 9.55359C2.13445 9.80452 2.73933 10.1576 3.47181 10.5639C4.94007 11.3783 6.9063 12.3983 8.92289 13.238C10.961 14.0867 12.9606 14.7126 14.522 14.8076C15.2994 14.8549 15.8837 14.7645 16.2909 14.5762C16.6621 14.4047 16.9281 14.1358 17.0852 13.6794C17.5853 12.2265 17.0185 11.3157 16.1912 9.98602C16.158 9.93266 16.1244 9.87864 16.0904 9.82387C15.6732 9.15153 15.1858 8.33048 15.0064 7.35606C14.818 6.33241 14.9821 5.23819 15.6557 4.02072C16.9313 1.71553 19.6084 0.767549 21.7241 0.355065C22.8185 0.141698 23.8493 0.0548779 24.6281 0.0207603C25.0188 0.00364445 25.3489 -0.000316041 25.5949 1.91157e-05C25.7179 0.000186784 25.8197 0.00142966 25.8965 0.00261806L25.9909 0.00418608L26.02 0.00463252C26.0274 0.00472687 26.0307 0.00474004 26.0307 0.00474004Z" transform="translate(653.969 188.587)" fill="#E6EBFF"/>
<path fill-rule="evenodd" clip-rule="evenodd" d="M19.9297 3.32255C16.1658 4.21617 14.2407 5.3733 10.9297 7.83838C7.37883 10.4821 2.92969 16.8384 2.92969 16.8384C2.92969 16.8384 -2.88663 24.7266 1.87119 16.3192C3.77919 12.9476 6.39505 8.84423 8.96605 6.68887C12.3892 3.81917 15.653 1.91627 19.1176 0.897203C22.5874 -0.123396 26.157 -0.227582 30.1461 0.353923C32.5893 0.710081 35.0736 1.66449 36.9297 3.32255C43.763 9.42651 46.1853 19.81 50.6548 27.4812C53.8189 32.9119 58.2186 38.492 63.4511 40.4319C66.3155 41.4939 69.5061 41.2915 73.023 40.3689C76.0646 39.571 79.1925 38.2814 82.425 36.9488C82.9496 36.7325 83.477 36.5151 84.0072 36.2984C87.737 34.7745 91.6054 33.2908 95.3406 32.7693C99.1262 32.2407 104.018 31.4052 107.43 33.8384C110.279 35.8706 114.421 39.9855 115.43 43.2707C116.439 46.5577 113.222 50.4129 113.263 53.7325C113.304 57.0619 113.039 60.1509 112.793 62.3916C112.705 63.1878 112.618 63.8899 112.549 64.4467C112.522 64.6688 112.497 64.8677 112.476 65.0404C112.438 65.3574 112.416 65.5644 112.408 65.6857C112.406 65.7176 112.406 65.7314 112.406 65.7314C112.406 65.7314 112.406 65.7092 112.404 65.6737L112.404 65.6718C112.402 65.6494 112.393 65.5064 112.331 65.3285C112.3 65.2381 112.218 65.0286 112.026 64.8199C111.803 64.5766 111.426 64.3382 110.93 64.3382V67.3382C110.427 67.3382 110.044 67.0971 109.816 66.8484C109.62 66.6343 109.533 66.4166 109.498 66.3155C109.427 66.1097 109.414 65.9306 109.41 65.8738C109.4 65.7251 109.408 65.5778 109.415 65.4842C109.429 65.2739 109.46 64.9928 109.498 64.6835C109.52 64.4935 109.546 64.2837 109.575 64.0544C109.643 63.5028 109.725 62.8382 109.811 62.0633C110.051 59.8823 110.302 56.9277 110.263 53.7698C110.224 50.602 109.892 47.2934 108.999 44.3835C108.105 41.4718 106.687 39.0778 104.559 37.5596C101.945 35.6953 99.021 35.2845 95.7554 35.7405C92.4395 36.2035 88.8929 37.5429 85.1419 39.0756C84.6302 39.2846 84.1145 39.4974 83.5956 39.7115C80.3784 41.0389 77.0384 42.417 73.7842 43.2707C69.9868 44.2669 66.0954 44.6118 62.4083 43.2448C56.1181 40.9128 51.2679 34.4928 48.0626 28.9915C46.4332 26.1949 45.1752 23.5403 44.3246 21.5863C42.7198 17.8998 42.0828 14.5779 39.4297 10.8384C37.9022 8.68545 36.2523 7.40209 34.6361 5.9584C33.0091 4.50499 31.3472 3.56072 29.7133 3.32255C26.0392 2.78695 23.638 2.44212 19.9297 3.32255Z" transform="translate(647.07 151.753)" fill="#E6EBFF"/>
<path fill-rule="evenodd" clip-rule="evenodd" d="M33.4386 3.60191C27.1234 4.57067 23.8934 5.82508 18.3381 8.49742C12.3804 11.3634 4.91552 18.2541 4.91552 18.2541C4.91552 18.2541 -4.84325 26.8056 3.13954 17.6913C6.34084 14.0362 10.7298 9.58784 15.0435 7.25127C20.7869 4.14028 26.263 2.07738 32.076 0.972639C37.8978 -0.133771 43.8869 -0.246716 50.5799 0.383681C54.6793 0.769784 58.8474 1.80444 61.9617 3.60191L66.1562 11.7497C63.5934 9.41571 60.8251 8.02446 58.1135 6.45938C55.3835 4.88377 52.5952 3.86011 49.8539 3.60191C43.6892 3.02128 39.6605 2.64745 33.4386 3.60191Z" transform="translate(818 132.846) rotate(-9.72008)" fill="#E6EBFF"/>
<path fill-rule="evenodd" clip-rule="evenodd" d="M29.0766 3.79455C27.4601 11.4729 30.5469 17.8242 24.5469 29.3242C21.1163 35.8994 8.4655 44.5348 10.5469 51.3242C12.6085 58.0491 23.9174 56.5365 31.0469 58.3242C41.0171 60.8242 48.2538 62.4277 56.0469 66.3242C74.0469 75.3242 92.0469 83.3242 105.547 84.3242C110.107 88.884 52.1066 96.884 47.5469 92.3242C47.5469 92.3242 53.243 90.0053 47.5467 83.8246C40.7565 76.4569 37.0102 72.1158 27.5469 68.8242C16.0469 64.8242 -1.00713 66.9944 0.0465882 53.8242C1.04669 41.3242 11.8861 33.7732 16.5469 29.3242C21.2077 24.8753 24.5465 4.82443 24.5465 4.82443C25.5662 -0.0189204 30.4178 -2.57573 29.0766 3.79455Z" transform="translate(729.453 213.768)" fill="#E6EBFF"/>
<path d="M27.5 20.5C31.3682 34.0898 52 42.4995 52 42.4995L48.9495 46.0706C48.9495 46.0706 26.5269 34.9422 23.5 20.5C22.2089 14.3398 23.5 7.5 20.5 6.5C16.7767 5.25889 12 6 7.5 4.5C5.90301 3.96767 4.47569 3.2274 3.30582 2.50083C2.41354 1.94665 2.97759 0.866322 3.99338 1.13362C6.07346 1.68097 8.57693 2.26851 10.5 2.5C15.5442 3.10719 19.5916 1.06873 23.5 4C27.5 7 25.7411 14.3205 27.5 20.5Z" transform="translate(458.5 378.592)" fill="#E6EBFF"/>
<path d="M27.5 20.5C31.3682 34.0898 52 42.4995 52 42.4995L48.9495 46.0706C48.9495 46.0706 26.5269 34.9422 23.5 20.5C22.2089 14.3398 23.5 7.5 20.5 6.5C16.7767 5.25889 12 6 7.5 4.5C5.90301 3.96767 4.47569 3.2274 3.30582 2.50083C2.41354 1.94665 2.97759 0.866322 3.99338 1.13362C6.07346 1.68097 8.57693 2.26851 10.5 2.5C15.5442 3.10719 19.5916 1.06873 23.5 4C27.5 7 25.7411 14.3205 27.5 20.5Z" transform="translate(489.992 356.092) rotate(40.617)" fill="#E6EBFF"/>
<path fill-rule="evenodd" clip-rule="evenodd" d="M1.00317 3.29238L0 0C0 0 15.3186 9.33358 24.731 10.5C35.4467 11.8279 40.5285 1.26257 50.6587 5C58.9706 8.06658 62.4669 10.1117 66.5 18C73.9648 32.6006 60.4063 46.2316 64.5 62.1106C68.1628 76.3183 85.5 93 85.5 93L79.8855 95.3335C79.8855 95.3335 62.6099 77.0023 58.9295 62.1106C55.0511 46.4172 70.9257 34.9402 62.9009 20.9071C59.4841 14.932 56.973 10.9673 50.6587 8.22759C41.172 4.11143 35.0137 14.7073 24.731 13.6088C14.6839 12.5355 1.00317 3.29238 1.00317 3.29238Z" transform="translate(480 329.592)" fill="#E6EBFF"/>
<path fill-rule="evenodd" clip-rule="evenodd" d="M23.3892 0C24.5963 0.707031 21.1926 9.8602 16 13C10.4135 16.378 0 14 0 14L0.692648 10.2118C0.692648 10.2118 9.49969 13.1187 14.5963 10.707C19.5177 8.37832 20.248 3.14122 23.3892 0Z" transform="translate(544.5 362.092)" fill="#E6EBFF"/>
<path fill-rule="evenodd" clip-rule="evenodd" d="M1.96948 3.12207C3.38967 6.28156 5.45457 7.78158 8.46952 9.12177C11.2118 10.3408 15.2312 10.9984 17.9695 14.1218C22.3157 19.079 16.621 25.7331 20.4695 31.1222C22.0448 33.3281 23.3815 34.0281 25.4695 35.6221C27.0845 36.8551 28.3248 37.6882 29.4695 39.6221C31.8183 43.5904 31.924 48.0672 31.1356 51.6293C30.7346 53.4414 30.1673 55.0481 29.7022 56.1994C29.4692 56.7763 29.2604 57.2422 29.1088 57.566C28.9598 57.8842 23.9261 57.2609 24.7314 53.6221C25.4862 50.2119 28.9096 45.4433 26.4695 41.1221C24.4819 37.6024 18.4286 34.8544 17.4695 31.1222C16.3838 26.8969 17.8416 22.3401 17.4695 18.1218C17.0165 12.9863 10.3512 12.0325 6.46952 10.1218C3.66633 8.74193 2.09538 6.15268 1.17505 4.10522C0.711002 3.07284 0.414634 2.12491 0.233731 1.43383C-0.711196 -2.17592 1.48208 2.03774 1.96948 3.12207Z" transform="translate(400.531 126.97)" fill="#E6EBFF"/>
<path fill-rule="evenodd" clip-rule="evenodd" d="M2.73866 4.34138C4.71349 8.7348 7.58484 10.8207 11.7773 12.6842C15.5905 14.3793 21.1796 15.2938 24.9875 19.637C31.031 26.5302 23.1123 35.783 28.4638 43.2768C30.6544 46.3443 32.513 47.3176 35.4165 49.5343C37.6623 51.2488 39.3869 52.4072 40.9787 55.0965C44.2449 60.6145 44.3918 66.8396 43.2955 71.7929C42.7378 74.3128 41.9491 76.547 41.3024 78.1479C40.9783 78.9501 40.688 79.5979 40.4772 80.0482C40.27 80.4906 33.2704 79.624 34.3902 74.5641C35.4398 69.822 40.2002 63.191 36.8071 57.1823C34.0432 52.2879 25.6258 48.4667 24.2922 43.2768C22.7825 37.4014 24.8096 31.065 24.2922 25.1992C23.6623 18.058 14.3938 16.7317 8.99617 14.0748C5.0982 12.1561 2.91373 8.55559 1.63397 5.7085C0.988682 4.27293 0.576568 2.95479 0.325014 1.99381C-0.988952 -3.02572 2.0609 2.83357 2.73866 4.34138Z" transform="translate(656.365 286.092) scale(-1 1) rotate(75)" fill="#E6EBFF"/>
<path fill-rule="evenodd" clip-rule="evenodd" d="M12.8361 6.13754C8.27473 3.2065 4.19376 5.33447 0.91223 2.15435L0 0C3.29046 3.18877 10.178 1.86354 14.4579 4.61368C18.7425 7.36685 23.2483 14.08 27.7941 13.586C30.1709 13.3277 33.7254 10.4267 35.8391 8.28447C36.8586 7.25129 37.7075 6.2326 38.302 5.47084C38.5985 5.09098 37.8297 5.77758 37.9852 5.56157C38.0628 5.45363 38.1215 5.37019 38.1597 5.31515C38.1789 5.28763 38.1929 5.26722 38.2016 5.25442L38.2108 5.24098L38.2122 5.23886C38.2122 5.23886 38.2119 5.23931 39.4561 6.07717C40.7003 6.91503 40.6999 6.91568 40.6999 6.91568L40.6993 6.91651L40.6932 6.9255L40.6779 6.94795C40.665 6.96682 40.6467 6.99345 40.6231 7.02734C40.576 7.0951 40.508 7.19194 40.4202 7.3139C40.2448 7.55768 39.9902 7.90257 39.667 8.31663C39.0223 9.14271 38.0966 10.2544 36.9746 11.3915C34.8055 13.5899 31.6101 16.1889 28.1182 16.5684C22.601 17.168 17.3928 9.06554 12.8361 6.13754Z" transform="translate(348.044 283.515)" fill="#E6EBFF"/>
<path fill-rule="evenodd" clip-rule="evenodd" d="M12.8361 12.1375C8.27473 9.2065 4.19376 5.33447 0.91223 2.15435L0 0C3.29046 3.18877 10.178 7.86354 14.4579 10.6137C18.7425 13.3669 23.8163 14.2749 28.362 13.7809C30.7388 13.5226 33.7254 10.4267 35.8391 8.28447C36.8586 7.25129 37.7075 6.2326 38.302 5.47084C38.5985 5.09098 37.8297 5.77758 37.9852 5.56157C38.0628 5.45363 38.1215 5.37019 38.1597 5.31515C38.1789 5.28763 38.1929 5.26722 38.2016 5.25442L38.2108 5.24098L38.2122 5.23886C38.2122 5.23886 38.2119 5.23931 39.4561 6.07717C40.7003 6.91503 40.6999 6.91568 40.6999 6.91568L41.3376 7.26234C40.3203 8.76461 39.6248 9.79066 38.2946 11.213C35.3372 14.3753 32.8563 16.7919 29.3644 17.1714C23.8472 17.771 17.3928 15.0655 12.8361 12.1375Z" transform="translate(436 212.53) rotate(-28.5295)" fill="#E6EBFF"/>
<path fill-rule="evenodd" clip-rule="evenodd" d="M6.75638 8.73792C3.74021 7.1904 1.84061 4.11768 0.849208 2.06014C0.655512 1.65814 1.15561 1.35865 1.45925 1.68564C3.19593 3.55588 6.30675 6.50274 9.82362 7.96847C15.212 10.2142 24.7382 4.38998 29.0334 4.61659C32.7587 4.81313 21.5603 10.5666 21.5603 10.5666C21.5603 10.5666 12.1672 11.5141 6.75638 8.73792Z" transform="translate(712 201.592) rotate(32.5177)" fill="#E6EBFF"/>
<path fill-rule="evenodd" clip-rule="evenodd" d="M7.81561 13.9267C3.25421 10.9957 3.28153 4.32532 0 1.1452L0.7236 0C4.01406 3.18877 4.27649 8.78886 8.55636 11.539C12.841 14.2922 21.0424 16.3535 28.399 15.0772C30.7758 14.8189 32.8794 12.5791 34.9931 10.4369C36.0126 9.40372 36.8615 8.38504 37.456 7.62327C37.7525 7.24341 36.9837 7.93002 37.1391 7.714C37.2168 7.60606 37.2755 7.52262 37.3137 7.46758C37.3328 7.44006 37.3469 7.41965 37.3556 7.40685L37.3648 7.39341L37.3662 7.3913C37.3662 7.3913 37.3659 7.39175 38.6101 8.22961C39.8543 9.06747 39.8538 9.06811 39.8538 9.06811L40.4915 9.41477C39.4743 10.917 38.7788 11.9431 37.4486 13.3654C34.4911 16.5277 31.3513 19.1372 27.8594 19.5167C22.3422 20.1162 12.3723 16.8547 7.81561 13.9267Z" transform="translate(437.318 152.349) rotate(19.6345)" fill="#E6EBFF"/>
<path fill-rule="evenodd" clip-rule="evenodd" d="M9.8733 14.5271C5.3119 11.596 3.28153 4.32532 0 1.1452L0.7236 0C4.36208 0.567237 5.71082 8.10561 9.63909 10.8945C14.6157 14.4277 22.0547 14.2905 26.6004 13.7965C28.9772 13.5382 32.8794 12.5791 34.9931 10.4369C36.0126 9.40372 36.8615 8.38504 37.456 7.62327C37.7525 7.24341 36.9837 7.93002 37.1391 7.714C37.2168 7.60606 37.2755 7.52262 37.3137 7.46758C37.3328 7.44006 37.3469 7.41965 37.3556 7.40685L37.3648 7.39341L37.3662 7.3913C37.3662 7.3913 37.3659 7.39175 38.6101 8.22961C39.8543 9.06747 39.8538 9.06811 39.8538 9.06811L40.4915 9.41477C39.9397 10.2298 36.3803 18.023 31.699 22.1356C27.751 25.6039 21.1706 25.3609 21.1706 25.3609C21.1706 25.3609 24.6123 24.3256 24.0979 21.6622C23.0429 16.199 14.43 17.4551 9.8733 14.5271Z" transform="translate(444.582 145.092) rotate(19.6345)" fill="#E6EBFF"/>
<path fill-rule="evenodd" clip-rule="evenodd" d="M31.832 6.05713C64.1066 15.1632 102.987 9.93961 125.832 26.0582C150.936 43.7705 158.672 61.5398 165.332 79.0582C172.049 96.7257 184.421 120.739 201.832 130.058C220.158 139.867 246.181 134.099 265.332 132.058C282.934 130.182 301.992 126.721 326.332 133.558C359.708 142.934 380.47 180.245 401.832 206.558C420.558 229.625 437.986 233.735 464.332 232.875C483.29 232.256 498.038 216.548 511.832 205.494C524.575 195.282 548.984 182.908 573.332 177.058C589.914 173.075 608.019 176.106 624.832 177.058C638.678 177.842 649.439 172.281 664.332 163.558C675.642 156.935 684.722 152.316 692.722 140.477C704.832 122.558 715.216 114.624 730.332 105.558C761.332 86.9651 788.1 95.8832 814.832 97.0582C828.722 97.6687 847.832 88.5582 847.832 88.5582V129.558C847.832 129.558 838.832 135.558 821.332 135.558C795.114 134.406 766.532 128.542 749.832 138.558C735.579 147.107 728.647 155.08 720.832 163.558C710.207 175.087 697.28 184.588 683.332 192.558C660.006 205.888 637.141 207.539 619.832 206.558C604.022 205.663 588.983 202.798 573.332 206.558C556.191 210.676 541.869 217.183 528.832 227.558C509.671 242.808 489.576 257.735 464.332 258.558C421.185 259.966 391.748 225.358 372.832 202.058C355.384 180.566 348.679 160.021 320.332 152.058C302.21 146.968 287.249 146.203 269.332 148.058C244.417 150.638 219.748 154.057 197.332 142.058C168.279 126.507 164.066 106.445 156.832 87.5583C149.734 69.0247 136.812 45.8919 119.332 33.5586C102.832 18.5585 64.9875 22.8461 35.332 13.5571C19.8056 8.69379 8.5886 6.0418 2.33207 3.05726C-5.47802 -0.668359 8.83203 0.0569673 8.83203 0.0569673C8.83203 0.0569673 18.9808 2.43124 31.832 6.05713Z" transform="translate(226.168 121.535)" fill="#E6EBFF"/>
<path fill-rule="evenodd" clip-rule="evenodd" d="M123.534 8.5L153.034 0C153.034 0 125.568 27.5283 116.534 50C109.621 67.1969 112.534 81.5 107.534 97C99.6579 121.416 80.5714 131.479 55.0341 133.5C41.9331 134.537 33.919 120.913 21.0341 123.5C13.668 124.979 4.82783 133.961 1.64461 137.427C1.10919 138.01 0.161576 137.779 0.0667151 136.994C-0.0535935 135.997 -0.053321 134.801 0.428453 134C2.53418 130.5 11.3425 121.346 21.0341 119.5C33.8587 117.057 41.1388 131.218 54.1266 129.893C77.1968 127.54 93.2977 117.852 102.534 95.5C108.63 80.7468 103.481 71.6882 106.534 56.0197C110.929 33.464 123.534 8.5 123.534 8.5Z" transform="translate(764.966 305.592)" fill="#E6EBFF"/>
<path fill-rule="evenodd" clip-rule="evenodd" d="M28.3833 37C32.6566 24.5733 10.8833 8 10.8833 8L13.3833 0C13.3833 0 38.0188 24.2981 33.5142 37.9478C29.845 49.066 14.3937 44.3716 7.8833 53.5C4.18111 58.6909 2.76658 68.0801 2.76658 68.0801L0 66.92C0 66.92 2.65375 56.3916 6.6861 50.9762C12.8706 42.6705 25.0159 46.7924 28.3833 37Z" transform="translate(861.117 387.592)" fill="#E6EBFF"/>
<path fill-rule="evenodd" clip-rule="evenodd" d="M52.5187 55.5C61.6367 37.2296 66.2595 4.13281 66.2595 4.13281L88 0C88 0 81.0308 10.8744 75 25C70.3362 35.9238 67.0121 49.3948 63.0187 57.5C56.0729 71.5972 50.3383 83.7023 34.9421 91.2353C22.5952 97.2765 0 95.4707 0 95.4707L4.47035e-06 91.2353C4.47035e-06 91.2353 22.5662 91.3258 33.0187 85C44.8995 77.8098 46.3175 67.9258 52.5187 55.5Z" transform="translate(653 353.592)" fill="#E6EBFF"/>
<path fill-rule="evenodd" clip-rule="evenodd" d="M2 19.6611L0 1.16115L3.49133 0V18.9998L2 19.6611Z" transform="translate(694.009 437.592)" fill="#E6EBFF"/>
<path fill-rule="evenodd" clip-rule="evenodd" d="M68.9464 0.366653C86.8327 3.83962 93.214 15.9653 99.9656 30.2271C104.154 39.0755 105.137 51.0211 105.215 60.1719C105.255 64.8576 105.056 69.0293 104.848 72.0308C104.257 80.5319 88.4898 77.944 88.9464 71.3672C89.8612 58.1883 94.7102 45.7665 86.9464 29.3667C80.3416 15.4151 76.4464 11.4575 67.3994 10.3672C60.8616 9.57921 55.4464 10.3667 49.4464 13.8667C44.8273 16.9709 37.5652 18.4941 29.4464 18.8667C21.6052 19.2266 15.565 17.0371 9.44636 16.3667C0.659098 15.4037 -3.89284 9.68371 4.26558 10.9208C6.12827 11.2032 8.7295 11.5666 11.6766 11.8896C17.6817 12.5476 23.3562 13.4121 30.4464 12.8667C36.9464 12.3667 40.701 11.0251 45.4464 7.86731C52.5116 3.16577 60.1948 -1.33263 68.9464 0.366653Z" transform="translate(441.554 182.225)" fill="#E6EBFF"/>
<path fill-rule="evenodd" clip-rule="evenodd" d="M0.164187 0.363875L0.168646 0.363237L0.179143 0.361754L0.215488 0.356722C0.246445 0.35249 0.290747 0.346552 0.347644 0.339222C0.461422 0.324564 1.09499 0.295342 1.30372 0.272037C1.72098 0.22545 2.31715 0.166477 3.04406 0.115362C4.49415 0.013396 6.48271 -0.0586224 8.6186 0.0661437C10.7451 0.190364 13.077 0.512719 15.1877 1.22889C17.2891 1.94192 19.3061 3.09197 20.6124 4.96259C22.2382 7.29061 22.1209 10.0122 22.0811 12.0993C22.0377 14.3753 22.3721 15.9179 23.3847 17.2595C30.5 25.5 59.9711 43.0363 59.9711 43.0363L58.5 47C58.5 47 27.6507 28.3862 20.6802 19.1506C18.9829 16.9017 19.3378 14.3723 19.3782 12.2829C19.4141 10.4291 19.5135 7.93904 18.3766 6.31108C17.02 4.36836 12.1823 2.27821 9.8629 1.83219C6.72566 1.22889 -1.23907 0.565802 0.164187 0.363875Z" transform="translate(385 147.092)" fill="#E6EBFF"/>
<path fill-rule="evenodd" clip-rule="evenodd" d="M0.118948 0.286349L0.122178 0.285847L0.129783 0.28468L0.156114 0.28072C0.178541 0.27739 0.210636 0.272717 0.251857 0.266949C0.334285 0.255414 0.793284 0.232418 0.944503 0.214078C1.24679 0.177416 1.67869 0.131008 2.20532 0.0907838C3.25586 0.0105419 4.69651 -0.0461325 6.24389 0.0520514C7.78449 0.149806 9.47382 0.403481 11.0029 0.967069C12.5254 1.52818 13.9867 2.43321 14.933 3.90528C16.1108 5.7373 15.997 9.52145 15.997 9.52145L14.0389 9.66599C14.0389 9.66599 14.1369 6.24758 13.3133 4.96647C12.3304 3.43766 8.82565 1.79282 7.14534 1.44183C4.87251 0.967069 -0.897667 0.445255 0.118948 0.286349Z" transform="translate(394 174.433) scale(1 -1) rotate(-14.8948)" fill="#E6EBFF"/>
<path fill-rule="evenodd" clip-rule="evenodd" d="M0.229033 0.55136L0.235252 0.550394L0.249895 0.548146L0.300594 0.540522C0.343778 0.534109 0.405577 0.525112 0.484946 0.514005C0.64366 0.491794 1.52745 0.447516 1.81862 0.412203C2.40068 0.341612 3.2323 0.252254 4.2463 0.174803C6.2691 0.0202982 9.04304 -0.0888274 12.0225 0.100224C14.9889 0.288448 18.2417 0.776896 21.186 1.86207C24.1173 2.94249 26.9311 4.68509 28.7533 7.51954C31.0211 11.0471 30.802 18.3334 30.802 18.3334L27.0316 18.6117C27.0316 18.6117 27.2203 12.0296 25.6345 9.56284C23.742 6.61914 16.9936 3.45204 13.7582 2.77621C9.38194 1.86207 -1.72844 0.85733 0.229033 0.55136Z" transform="translate(871 216) rotate(-69.7767)" fill="#E6EBFF"/>
<path fill-rule="evenodd" clip-rule="evenodd" d="M81.5936 3.5C81.5936 3.5 75.8211 9.94603 71.5936 13.5C63.7781 20.0704 60.1036 24.8353 50.0936 26.8487C44.0514 28.064 38.8016 28.0012 33.373 26.8487C27.9186 25.6907 22.391 23.6627 17.4748 21.4986C12.5508 19.331 8.19077 17.0047 5.06386 15.2222C3.4989 14.3301 2.2391 13.5721 1.36776 13.0353C0.932005 12.7669 0.59316 12.5536 0.361623 12.4064C0.245847 12.3328 0.156879 12.2757 0.0960189 12.2364L0.025962 12.1911L0.00704265 12.1788L3.09504e-09 12.1742C3.09504e-09 12.1742 -0.000976205 12.1735 1.09358 10.4996C3.99572 6.06137 3.03739 10.6028 5.04478 11.7471C8.08953 13.4828 14.3302 16.4031 19.0936 18.5C23.8648 20.6003 29.111 21.8547 34.2037 22.9359C39.322 24.0225 44.1065 24.2275 48.0324 23.08C54.7494 21.1165 62.8195 14.8037 69.3953 8.70156C72.6371 5.69331 76.0936 0 76.0936 0L81.5936 3.5Z" transform="translate(360.406 266.092)" fill="#E6EBFF"/>
<path fill-rule="evenodd" clip-rule="evenodd" d="M10.5698 31.7578C4.08882 20.7224 -1.93018 2.75779 0.584889 0.0449541C1.61133 -1.06219 4.72044 18.5172 15.5698 32.7578C23.5698 43.2584 37.3319 44.6055 44.5698 57.7578L41.3319 60.1041C33.3241 48.4006 18.9099 45.9588 10.5698 31.7578Z" transform="translate(227.43 74.334)" fill="#E6EBFF"/>
<path fill-rule="evenodd" clip-rule="evenodd" d="M0.252819 0.0416018C0.609968 0.192371 0.963846 0.351053 1.31681 0.511299C1.98709 0.815601 2.94586 1.26385 4.10985 1.84387C6.43565 3.00282 9.59175 4.6933 12.9074 6.81859C16.2188 8.9411 19.7195 11.5164 22.7164 14.4512C25.7042 17.3772 28.2629 20.7298 29.5838 24.4188C31.3407 29.3256 30.7284 35.2662 32.6716 40.9248C34.884 47.3673 36.9748 50.4125 40.6716 54.9248C42.5015 57.1583 44.3719 58.8837 45.6446 60.2301C46.2561 60.8769 47.1538 61.4237 47.6716 61.9248C47.6716 61.9248 47.714 62.3458 46.6716 63.4244C45.6292 64.503 44.1716 63.9248 44.1716 63.9248C37.3607 57.3015 31.5002 50.1749 28.6716 40.9248C27.1237 35.8629 28.5503 30.4318 26.7594 25.4301C25.6488 22.3284 23.4834 18.6784 20.6716 15.9248C16.0352 11.3844 9.51065 6.8344 3.67163 3.9248C1.8105 2.9974 -0.831654 -0.413636 0.252819 0.0416018Z" transform="translate(287.328 80.167)" fill="#E6EBFF"/>
<path fill-rule="evenodd" clip-rule="evenodd" d="M0.35218 5.76399L0.356993 5.7604L0.36612 5.75362L0.393564 5.73335C0.415903 5.71691 0.446297 5.69468 0.484432 5.66708C0.560681 5.61191 0.668015 5.5352 0.803929 5.44039C1.07552 5.25095 1.46265 4.98828 1.9452 4.68022C2.90634 4.06661 4.26622 3.25997 5.86086 2.49169C8.90648 1.02435 13.4037 -0.59938 17.7088 0.220698C29.4527 2.45777 39.7946 12.8899 46.2215 23.6267C50.3738 30.5636 47.9134 37.2512 49.6059 44.4486C51.3177 51.7279 57.1575 54.0787 65.2487 56.6675C73.3186 59.2495 79.4023 54.7165 87.6475 56.6675C99.3746 59.4423 118.665 69.4346 111.147 76.6675C108.986 78.7475 108.986 78.748 108.986 78.748C102.41 71.9365 93.6081 64.5063 83.7505 64.1675C77.5154 63.9532 71.7699 65.8954 64.6475 63.6675C54.4095 60.465 46.0392 55.4918 43.7653 45.8221C42.2464 39.3634 44.6913 32.7525 41.0733 26.7083C34.9904 16.5462 25.8421 5.87789 16.5861 4.11472C14.266 3.67278 11.2632 4.54897 8.4651 5.89705C6.00248 7.08351 -1.73084 7.3201 0.35218 5.76399Z" transform="translate(285 150.092)" fill="#E6EBFF"/>
<path fill-rule="evenodd" clip-rule="evenodd" d="M139.405 0L143.595 9.07959C143.595 9.07959 122.158 14.2884 112.377 23.488C105.4 30.051 106.547 38.3029 98.7709 43.8973C86.8376 52.483 74.0827 38.8806 61.1817 45.9292C52.7636 50.5285 50.2769 55.5378 40.5 60.04C28.0775 65.7606 0 63.04 0 63.04L3.4043 58.0754C3.4043 58.0754 26.5257 59.9275 39.1873 53.7814C47.091 49.9449 48.337 44.4863 57 40.04C69.9182 33.4098 82.562 44.6329 94 36.1504C101.009 30.9528 99.4073 21.7155 105.623 15.5916C115.973 5.39409 139.405 0 139.405 0Z" transform="translate(526.5 367.052)" fill="#E6EBFF"/>
<path fill-rule="evenodd" clip-rule="evenodd" d="M0.868565 0.0561736C4.64822 -0.909839 10.7232 10.9279 20.8687 9.10464C25.6077 8.25301 30.257 5.42438 34.9532 5.04185L34.9627 5.04107C41.8945 4.46835 54.9917 15.9495 60.8647 19.3234L58.3687 24.056C50.4012 19.4789 44.6187 8.97278 33.8687 9.55598C27.3837 9.9078 24.537 13.1565 19.5472 15.3933C19.5472 15.3933 -4.85075 1.51793 0.868565 0.0561736Z" transform="translate(694.131 215.036)" fill="#E6EBFF"/>
<path fill-rule="evenodd" clip-rule="evenodd" d="M0.00854492 3.27686C0.00854492 3.27686 -0.282128 -1.12834 2.50838 0.276523C2.50838 0.276523 8.50854 5.27686 15.8055 12.2769C23.2669 19.4345 18.3358 33.4997 22.0084 41.2763C26.6593 51.1247 33.1035 55.4749 42.4679 61.0362C55.3398 68.6805 66.8733 60.4621 80.3335 67.015C93.6809 73.5129 108.226 92.8413 108.226 92.8413L78.5084 98.7763C78.5084 98.7763 90.9332 80.997 78.5084 74.7763C65.0268 68.0265 51.671 74.3674 38.5084 67.015C27.2783 60.7421 21.1934 56.3709 15.8055 44.6904C11.8127 36.0342 18.029 25.9881 12.5085 16.2769C9.02797 10.154 0.00854492 8.3938 0.00854492 3.27686Z" transform="translate(887.991 126.815)" fill="#E6EBFF"/>
<path fill-rule="evenodd" clip-rule="evenodd" d="M24.6678 4.11948C31.0298 -0.880638 42.7395 -1.46686 52.6678 3.11945C59.1602 6.1186 59.6382 12.3753 67.6677 13.6191C76.3235 14.9599 86.5709 5.8733 86.5709 5.8733L92.1677 12.1196C92.1677 12.1196 76.2784 23.2785 66.4171 22.1196C57.5378 21.0761 56.1678 10.1195 48.1678 7.11948C41.2202 4.51411 35.8326 3.43048 29.1678 7.11948C22.6893 10.7053 23.8514 18.4559 18.1678 22.6195C10.9216 27.9278 -1.59467 23.4969 0.168135 23.1191C7.16797 21.6191 10.4729 24.1919 15.668 20.6191C21.7336 16.4477 18.8798 8.6684 24.6678 4.11948Z" transform="translate(838.832 180.973)" fill="#E6EBFF"/>
<path d="M11.8465 15.13C14.0412 16.794 17.1113 18.8618 18.5042 19.662C18.9062 19.8929 19.2873 19.6837 19.376 19.2287C19.7687 17.2123 20.6382 11.7054 19.2139 8.31221C17.5975 4.46138 15.8997 1.63684 11.8465 0.52035C7.57987 -0.654944 3.07551 0.0293999 1.04107 3.92929C-0.75626 7.37465 -0.30396 11.6009 3.0057 13.6691C5.43973 15.1902 9.0633 13.0197 11.8465 15.13Z" transform="translate(706.001 70.0933)" fill="#FCC2C1"/>
<path d="M11.8465 15.13C14.0412 16.794 17.1113 18.8618 18.5042 19.662C18.9062 19.8929 19.2873 19.6837 19.376 19.2287C19.7687 17.2123 20.6382 11.7054 19.2139 8.31221C17.5975 4.46138 15.8997 1.63684 11.8465 0.52035C7.57987 -0.654944 3.07551 0.0293999 1.04107 3.92929C-0.75626 7.37465 -0.30396 11.6009 3.0057 13.6691C5.43973 15.1902 9.0633 13.0197 11.8465 15.13Z" transform="translate(472 99.4409) scale(1 -1) rotate(-13.5784)" fill="#FCC2C1"/>
<path d="M11.8465 15.13C14.0412 16.794 17.1113 18.8618 18.5042 19.662C18.9062 19.8929 19.2873 19.6837 19.376 19.2287C19.7687 17.2123 20.6382 11.7054 19.2139 8.31221C17.5975 4.46138 15.8997 1.63684 11.8465 0.52035C7.57987 -0.654944 3.07551 0.0293999 1.04107 3.92929C-0.75626 7.37465 -0.30396 11.6009 3.0057 13.6691C5.43973 15.1902 9.0633 13.0197 11.8465 15.13Z" transform="translate(371.534 34) rotate(16.063)" fill="#FCC2C1"/>
<path d="M11.8465 15.13C14.0412 16.794 17.1113 18.8618 18.5042 19.662C18.9062 19.8929 19.2873 19.6837 19.376 19.2287C19.7687 17.2123 20.6382 11.7054 19.2139 8.31221C17.5975 4.46138 15.8997 1.63684 11.8465 0.52035C7.57987 -0.654944 3.07551 0.0293999 1.04107 3.92929C-0.75626 7.37465 -0.30396 11.6009 3.0057 13.6691C5.43973 15.1902 9.0633 13.0197 11.8465 15.13Z" transform="translate(239.6 58.6284) rotate(-94.5873)" fill="#FCC2C1"/>
<path d="M12.1507 14.7328C14.7555 15.7627 17.5131 18.6109 18.7151 19.7118C19.0396 20.009 19.3847 19.8691 19.4959 19.4433C20.0316 17.3917 21.3691 11.377 19.7285 7.76308C17.9824 3.91661 15.9549 1.47198 11.7865 0.419406C7.60431 -0.636677 3.4973 0.214751 1.3271 3.96929C-0.636974 7.36723 -0.61131 11.857 2.69835 13.9252C5.13238 15.4463 8.84392 13.4253 12.1507 14.7328Z" transform="translate(118.64 61.9219) rotate(13.5521)" fill="#FCC2C1"/>
<path d="M12.9275 14.2955C15.4501 15.2898 17.685 18.3227 18.7164 19.5742C19.0112 19.932 19.3458 19.807 19.4345 19.352C19.8272 17.3356 20.6967 11.8287 19.2724 8.43547C17.656 4.58464 15.7768 1.57183 11.7236 0.455336C7.45693 -0.719958 2.98337 0.312129 1.00763 4.34972C-0.682904 7.80448 -0.377933 11.9405 2.93172 14.0088C5.36576 15.5298 9.67193 13.0122 12.9275 14.2955Z" transform="translate(51.8656 130.406) rotate(-54.7725)" fill="#FCC2C1"/>
<path d="M11.7127 15.0977C14.2699 16.1056 17.0296 18.7403 18.2437 19.7687C18.5787 20.0524 18.9284 19.9034 19.0393 19.4787C19.5353 17.5795 20.6997 12.2931 19.3374 8.86357C17.8121 5.02349 15.9088 1.66144 11.8745 0.538052C7.89824 -0.569191 3.64012 -0.137067 1.26483 3.44226C-0.738375 6.46091 -0.258954 11.6354 1.97592 13.6153C4.65447 15.9883 8.45714 13.8144 11.7127 15.0977Z" transform="translate(79.6888 24.7461) scale(1 -1) rotate(15.3083)" fill="#FCC2C1"/>
<path d="M11.8465 15.13C14.0412 16.794 17.1113 18.8618 18.5042 19.662C18.9062 19.8929 19.2873 19.6837 19.376 19.2287C19.7687 17.2123 20.6382 11.7054 19.2139 8.31221C17.5975 4.46138 15.8997 1.63684 11.8465 0.52035C7.57987 -0.654944 3.07551 0.0293999 1.04107 3.92929C-0.75626 7.37465 -0.30396 11.6009 3.0057 13.6691C5.43973 15.1902 9.0633 13.0197 11.8465 15.13Z" transform="translate(132 218.551) scale(1 -1) rotate(-29.1934)" fill="#FCC2C1"/>
<path d="M11.8465 15.13C14.0412 16.794 17.1113 18.8618 18.5042 19.662C18.9062 19.8929 19.2873 19.6837 19.376 19.2287C19.7687 17.2123 20.6382 11.7054 19.2139 8.31221C17.5975 4.46138 15.8997 1.63684 11.8465 0.52035C7.57987 -0.654944 3.07551 0.0293999 1.04107 3.92929C-0.75626 7.37465 -0.30396 11.6009 3.0057 13.6691C5.43973 15.1902 9.0633 13.0197 11.8465 15.13Z" transform="translate(204.901 332.276) scale(1 -1) rotate(40.1714)" fill="#FCC2C1"/>
<path d="M11.8465 15.13C14.0412 16.794 17.1113 18.8618 18.5042 19.662C18.9062 19.8929 19.2873 19.6837 19.376 19.2287C19.7687 17.2123 20.6382 11.7054 19.2139 8.31221C17.5975 4.46138 15.8997 1.63684 11.8465 0.52035C7.57987 -0.654944 3.07551 0.0293999 1.04107 3.92929C-0.75626 7.37465 -0.30396 11.6009 3.0057 13.6691C5.43973 15.1902 9.0633 13.0197 11.8465 15.13Z" transform="translate(278.367 249.451) rotate(-91.5532)" fill="#FCC2C1"/>
<path d="M11.8465 15.13C14.0412 16.794 17.1113 18.8618 18.5042 19.662C18.9062 19.8929 19.2873 19.6837 19.376 19.2287C19.7687 17.2123 20.6382 11.7054 19.2139 8.31221C17.5975 4.46138 15.8997 1.63684 11.8465 0.52035C7.57987 -0.654944 3.07551 0.0293999 1.04107 3.92929C-0.75626 7.37465 -0.30396 11.6009 3.0057 13.6691C5.43973 15.1902 9.0633 13.0197 11.8465 15.13Z" transform="translate(403.883 342.305) rotate(16.4691)" fill="#FCC2C1"/>
<path d="M11.8465 15.13C14.0412 16.794 17.1113 18.8618 18.5042 19.662C18.9062 19.8929 19.2873 19.6837 19.376 19.2287C19.7687 17.2123 20.6382 11.7054 19.2139 8.31221C17.5975 4.46138 15.8997 1.63684 11.8465 0.52035C7.57987 -0.654944 3.07551 0.0293999 1.04107 3.92929C-0.75626 7.37465 -0.30396 11.6009 3.0057 13.6691C5.43973 15.1902 9.0633 13.0197 11.8465 15.13Z" transform="translate(405 430.033) rotate(-17.2803)" fill="#FCC2C1"/>
<path d="M11.8465 15.13C14.0412 16.794 17.1113 18.8618 18.5042 19.662C18.9062 19.8929 19.2873 19.6837 19.376 19.2287C19.7687 17.2123 20.6382 11.7054 19.2139 8.31221C17.5975 4.46138 15.8997 1.63684 11.8465 0.52035C7.57987 -0.654944 3.07551 0.0293999 1.04107 3.92929C-0.75626 7.37465 -0.30396 11.6009 3.0057 13.6691C5.43973 15.1902 9.0633 13.0197 11.8465 15.13Z" transform="translate(322.354 343.092) rotate(60.1923)" fill="#FCC2C1"/>
<path d="M7.96271 10.1697C9.32978 11.2063 11.2022 12.4759 12.2145 13.0844C12.6118 13.3233 12.9884 13.126 13.0717 12.67C13.3494 11.1509 13.8173 7.73752 12.9147 5.5871C11.8283 2.99875 10.6871 1.10021 7.96271 0.349756C5.09485 -0.440225 2.06722 0.0197613 0.69976 2.64109C-0.508325 4.95692 -0.204309 7.79761 2.0203 9.18778C3.65635 10.2102 6.09195 8.75129 7.96271 10.1697Z" transform="translate(0 224.828) scale(1 -1) rotate(-29.1934)" fill="#FCC2C1"/>
<path d="M11.8465 15.13C14.0412 16.794 17.1113 18.8618 18.5042 19.662C18.9062 19.8929 19.2873 19.6837 19.376 19.2287C19.7687 17.2123 20.6382 11.7054 19.2139 8.31221C17.5975 4.46138 15.8997 1.63684 11.8465 0.52035C7.57987 -0.654944 3.07551 0.0293999 1.04107 3.92929C-0.75626 7.37465 -0.30396 11.6009 3.0057 13.6691C5.43973 15.1902 9.0633 13.0197 11.8465 15.13Z" transform="translate(573.001 166.314) scale(1 -1) rotate(-35.8017)" fill="#FCC2C1"/>
<path d="M10.5763 13.5078C12.498 14.9648 15.1715 16.7686 16.4468 17.5114C16.8474 17.7447 17.2271 17.5398 17.3144 17.0845C17.6718 15.2208 18.4064 10.4053 17.1538 7.42098C15.7107 3.98304 14.1949 1.46134 10.5763 0.464559C6.76716 -0.584722 2.74575 0.0262477 0.929446 3.50799C-0.675175 6.58395 -0.27137 10.3571 2.68343 12.2035C4.85649 13.5615 8.09154 11.6238 10.5763 13.5078Z" transform="translate(627.464 233.093) rotate(77.9735)" fill="#FCC2C1"/>
<path d="M10.5763 13.5078C12.498 14.9648 15.1715 16.7686 16.4468 17.5114C16.8474 17.7447 17.2271 17.5398 17.3144 17.0845C17.6718 15.2208 18.4064 10.4053 17.1538 7.42098C15.7107 3.98304 14.1949 1.46134 10.5763 0.464559C6.76716 -0.584722 2.74575 0.0262477 0.929446 3.50799C-0.675175 6.58395 -0.27137 10.3571 2.68343 12.2035C4.85649 13.5615 8.09154 11.6238 10.5763 13.5078Z" transform="translate(804.853 232.053) scale(-1 1) rotate(77.4071)" fill="#FCC2C1"/>
<path d="M3.45785 5.98629C-1.38744 9.64268 6.09747 17.215 6.09747 17.215C6.09747 17.215 -0.56662 19.6526 0.0388995 23.9184C0.90848 30.0444 10.9416 25.1371 10.9416 25.1371C10.9416 25.1371 8.5062 34.8875 15.1813 35.4969C21.8563 36.1063 22.4492 25.7465 22.4492 25.7465C22.4492 25.7465 31.5334 28.7929 32.7448 23.3083C34.5617 15.0814 26.0825 14.1674 26.0825 14.1674C26.0825 14.1674 30.0245 1.1592 23.3639 0.102089C15.5644 -1.13579 15.8338 9.2925 15.1806 9.2925C14.5273 9.2925 8.901 1.87874 3.45785 5.98629Z" transform="translate(894.789 140.561) rotate(17.9778)" fill="#FCC2C1"/>
<path d="M9.11414 2.42982C9.11414 4.77824 7.20989 7.28947 4.86088 7.28947C2.51186 7.28947 0 5.99315 0 3.64473C0 1.29631 1.90425 0 4.25327 0C6.60228 0 9.11414 0.0814031 9.11414 2.42982Z" transform="matrix(0.879829 -0.475291 0.469875 0.882733 901.278 163.86)" fill="#FFB0B1"/>
<path d="M6.27849 1.68321C6.27849 3.31002 4.9667 5.04962 3.34853 5.04962C1.73036 5.04962 0 4.15163 0 2.52481C0 0.897994 1.31179 0 2.92996 0C4.54814 0 6.27849 0.0563903 6.27849 1.68321Z" transform="matrix(-0.998729 -0.0504098 0.0534809 -0.998569 908.057 166.819)" fill="#FFF5F5"/>
<path d="M4.03316 4.28816C-0.812129 7.94455 5.46572 15.6853 5.46572 15.6853C5.46572 15.6853 -0.986053 18.0661 0.129656 22.3994C1.67245 28.3914 9.84714 24.9627 9.84714 24.9627C9.84714 24.9627 7.67773 32.2114 14.5495 33.9673C21.4213 35.7231 21.8174 24.2169 21.8174 24.2169C21.8174 24.2169 29.8152 26.7485 30.7003 21.2019C32.0398 12.8081 25.4507 12.6377 25.4507 12.6377C25.4507 12.6377 28.9355 3.70517 22.832 0.7058C15.7444 -2.77717 15.2021 7.76284 14.5488 7.76284C13.8955 7.76284 9.47632 0.180612 4.03316 4.28816Z" transform="translate(881.957 191.047) rotate(64.8086)" fill="#FCC2C1"/>
<path d="M9.11414 2.42982C9.11414 4.77824 7.20989 7.28947 4.86088 7.28947C2.51186 7.28947 0 5.99315 0 3.64473C0 1.29631 1.90425 0 4.25327 0C6.60228 0 9.11414 0.0814031 9.11414 2.42982Z" transform="matrix(0.621946 -0.78306 0.779224 0.626746 869.553 213.308)" fill="#FFB0B1"/>
<path d="M6.27849 1.68321C6.27849 3.31002 4.9667 5.04962 3.34853 5.04962C1.73036 5.04962 0 4.15163 0 2.52481C0 0.897994 1.31179 0 2.92996 0C4.54814 0 6.27849 0.0563903 6.27849 1.68321Z" transform="matrix(-0.938047 0.346507 -0.343621 -0.939108 876.949 213.361)" fill="#FFF5F5"/>
<path d="M1.42488 8.28166C-2.50034 11.2437 3.79894 21.48 3.79894 21.48C3.79894 21.48 -0.451122 25.5901 0.0394161 29.0458C0.743873 34.0086 8.47504 33.2697 8.47504 33.2697C8.47504 33.2697 8.81159 36.5796 10.3926 37.3712C14.6104 39.4831 20.3175 32.762 23.9952 27.9233C29.8624 20.2038 24.6546 -3.89116 16.0299 0.53933C12.5046 2.35027 11.648 8.80863 11.1188 8.80863C10.5896 8.80863 6.45162 4.48834 1.42488 8.28166Z" transform="translate(894.375 101.939) rotate(38.4357)" fill="#FCC2C1"/>
<path d="M9.11414 2.42982C9.11414 4.77824 7.20989 7.28947 4.86088 7.28947C2.51186 7.28947 0 5.99315 0 3.64473C0 1.29631 1.90425 0 4.25327 0C6.60228 0 9.11414 0.0814031 9.11414 2.42982Z" transform="matrix(0.879829 -0.475291 0.469875 0.882733 889.932 125.179)" fill="#FFB0B1"/>
<path d="M6.27849 1.68321C6.27849 3.31002 4.9667 5.04962 3.34853 5.04962C1.73036 5.04962 0 4.15163 0 2.52481C0 0.897994 1.31179 0 2.92996 0C4.54814 0 6.27849 0.0563903 6.27849 1.68321Z" transform="matrix(-0.998729 -0.0504098 0.0534809 -0.998569 896.711 128.138)" fill="#FFF5F5"/>
<path d="M0.469762 19.9395C-2.45706 30.4885 9.24947 29.9022 9.24947 29.9022C9.24947 29.9022 2.81088 37.5406 6.90817 42.2309C12.4744 48.6027 22.1269 37.051 22.1269 37.051C22.1269 37.051 18.0294 51.6114 29.7359 49.8526C41.4424 48.0937 34.7036 35.183 34.7036 35.183C34.7036 35.183 39.8753 37.3084 43.1984 35.183C46.318 33.1878 47.634 27.059 46.7104 23.453C42.6128 7.45542 31.1059 19.9395 31.1059 19.9395C31.1059 19.9395 34.297 16.4963 33.2479 11.1576C32.3795 6.73917 27.8034 0.283689 23.2973 0.0181675C16.3713 -0.38995 14.7733 6.16849 15.6881 10.5715C16.64 15.1528 20.2435 17.5944 19.7826 17.5944C19.3066 17.5944 15.124 14.9137 10.4201 14.6755C6.19317 14.4614 1.43258 16.4693 0.469762 19.9395Z" transform="translate(822.127 96.0918) rotate(7.03879)" fill="#FCC2C1"/>
<path d="M9.52956 2.54104C9.52956 4.99696 7.53851 7.62314 5.08243 7.62314C2.62635 7.62314 0 6.26748 0 3.81157C0 1.35565 1.99105 0 4.44713 0C6.90321 0 9.52956 0.0851293 9.52956 2.54104Z" transform="matrix(0.775075 -0.631869 0.630601 0.776107 837.96 124.544)" fill="#FFB0B1"/>
<path d="M6.06585 1.61985C6.06585 3.18544 4.79849 4.85956 3.23512 4.85956C1.67175 4.85956 0 3.99537 0 2.42978C0 0.864195 1.26736 0 2.83073 0C4.3941 0 6.06585 0.0542679 6.06585 1.61985Z" transform="matrix(-0.990305 0.138908 -0.138098 -0.990419 844.936 126.105)" fill="#FFF5F5"/>
<path d="M1.99255 11.581C-3.49646 15.7232 5.31241 30.0375 5.31241 30.0375C5.31241 30.0375 -0.630846 35.785 0.0551193 40.6175C1.04023 47.5574 11.8514 46.5241 11.8514 46.5241C11.8514 46.5241 12.3221 51.1526 14.533 52.2597C20.4311 55.2129 28.4119 45.8142 33.5547 39.0478C41.7593 28.2528 34.4769 -5.44136 22.4161 0.754195C17.4863 3.2866 16.2885 12.3179 15.5485 12.3179C14.8084 12.3179 9.0219 6.27646 1.99255 11.581Z" transform="translate(798.426 221.297) rotate(140.458)" fill="#FCC2C1"/>
<path d="M12.7452 3.39785C12.7452 6.68186 10.0823 10.1935 6.79741 10.1935C3.51257 10.1935 0 8.38078 0 5.09677C0 1.81276 2.66289 0 5.94774 0C9.23258 0 12.7452 0.113834 12.7452 3.39785Z" transform="matrix(0.281607 0.95953 -0.961242 0.275705 767.935 208.451)" fill="#FFB0B1"/>
<path d="M8.7798 2.35378C8.7798 4.62871 6.94541 7.06135 4.68256 7.06135C2.41972 7.06135 0 5.80561 0 3.53068C0 1.25575 1.8344 0 4.09724 0C6.36009 0 8.7798 0.0788558 8.7798 2.35378Z" transform="matrix(0.25733 -0.966324 0.965528 0.2603 761.914 216.861)" fill="#FFF5F5"/>
<path d="M1.39137 8.08685C-2.44153 10.9793 3.70958 20.9748 3.70958 20.9748C3.70958 20.9748 -0.440511 24.9882 0.038489 28.3626C0.726376 33.2087 8.27569 32.4871 8.27569 32.4871C8.27569 32.4871 8.60432 35.7192 10.1482 36.4922C14.2668 38.5544 19.8396 31.9914 23.4308 27.2665C29.16 19.7286 24.0747 -3.79963 15.6528 0.526644C12.2104 2.29499 11.3741 8.60143 10.8573 8.60143C10.3405 8.60143 6.29987 4.38277 1.39137 8.08685Z" transform="translate(627.749 203.376) rotate(-46.558)" fill="#FCC2C1"/>
<path d="M8.89976 2.37267C8.89976 4.66585 7.0403 7.11801 4.74654 7.11801C2.45278 7.11801 0 5.85218 0 3.559C0 1.26582 1.85946 0 4.15322 0C6.44698 0 8.89976 0.0794884 8.89976 2.37267Z" transform="matrix(-0.396699 -0.917949 0.920369 -0.391051 649.977 209.679)" fill="#FFB0B1"/>
<path d="M6.13081 1.64361C6.13081 3.23217 4.84988 4.93084 3.26977 4.93084C1.68965 4.93084 0 4.05397 0 2.46542C0 0.876871 1.28093 0 2.86105 0C4.44116 0 6.13081 0.0550639 6.13081 1.64361Z" transform="matrix(-0.137372 0.990519 -0.990092 -0.140418 653.432 203.337)" fill="#FFF5F5"/>
<path d="M0.469762 19.9395C-2.45706 30.4885 9.24947 29.9022 9.24947 29.9022C9.24947 29.9022 2.81088 37.5406 6.90817 42.2309C12.4744 48.6027 22.1269 37.051 22.1269 37.051C22.1269 37.051 18.0294 51.6114 29.7359 49.8526C41.4424 48.0937 34.7036 35.183 34.7036 35.183C34.7036 35.183 39.8753 37.3084 43.1984 35.183C46.318 33.1878 47.634 27.059 46.7104 23.453C42.6128 7.45542 31.1059 19.9395 31.1059 19.9395C31.1059 19.9395 34.297 16.4963 33.2479 11.1576C32.3795 6.73917 27.8034 0.283689 23.2973 0.0181675C16.3713 -0.38995 14.7733 6.16849 15.6881 10.5715C16.64 15.1528 20.2435 17.5944 19.7826 17.5944C19.3066 17.5944 15.124 14.9137 10.4201 14.6755C6.19317 14.4614 1.43258 16.4693 0.469762 19.9395Z" transform="translate(738.686 131.883) scale(-1 1) rotate(34.3431)" fill="#FCC2C1"/>
<path d="M9.52956 2.54104C9.52956 4.99696 7.53851 7.62314 5.08243 7.62314C2.62635 7.62314 0 6.26748 0 3.81157C0 1.35565 1.99105 0 4.44713 0C6.90321 0 9.52956 0.0851293 9.52956 2.54104Z" transform="matrix(-0.978567 -0.205928 -0.204328 0.978902 737.668 164.428)" fill="#FFB0B1"/>
<path d="M6.06585 1.61985C6.06585 3.18544 4.79849 4.85956 3.23512 4.85956C1.67175 4.85956 0 3.99537 0 2.42978C0 0.864195 1.26736 0 2.83073 0C4.3941 0 6.06585 0.0542679 6.06585 1.61985Z" transform="matrix(0.943688 -0.330838 -0.33161 -0.943417 732.186 169.015)" fill="#FFF5F5"/>
<path d="M7.52166 0.0733281C10.0507 0.366005 12.5215 3.57341 12.5215 3.57341C12.5215 3.57341 8.73073 9.13043 5.02148 8.57324C2.01762 8.12202 -0.245422 7.09907 0.0213717 4.07324C0.312924 0.766614 4.22421 -0.308276 7.52166 0.0733281Z" transform="translate(640 162.092)" fill="#FCC2C1"/>
<mask id="mask0" mask-type="alpha" maskUnits="userSpaceOnUse" x="640" y="162" width="13" height="9">
<path d="M7.52166 0.0733281C10.0507 0.366005 12.5215 3.57341 12.5215 3.57341C12.5215 3.57341 8.73073 9.13043 5.02148 8.57324C2.01762 8.12202 -0.245422 7.09907 0.0213717 4.07324C0.312924 0.766614 4.22421 -0.308276 7.52166 0.0733281Z" transform="translate(640 162.092)" fill="#FCC2C1"/>
</mask>
<g mask="url(#mask0)">
<path d="M5.40631 0.059599C7.22409 0.297478 9 2.90437 9 2.90437C9 2.90437 6.27536 7.42095 3.60927 6.96809C1.4502 6.60134 -0.176401 5.76992 0.0153612 3.31062C0.224919 0.623082 3.03622 -0.250558 5.40631 0.059599Z" transform="translate(644.521 162.165)" fill="#FFB0B1"/>
</g>
<path d="M6.51848 6.93063C-1.31258 12.8402 8.83382 25.351 8.83382 25.351C8.83382 25.351 -1.59368 29.1989 0.209552 36.2024C2.70305 45.8869 15.9152 40.3453 15.9152 40.3453C15.9152 40.3453 12.4089 52.0608 23.5152 54.8986C34.6216 57.7364 35.2618 39.1399 35.2618 39.1399C35.2618 39.1399 48.188 43.2315 49.6186 34.267C51.7835 20.7008 41.134 20.4253 41.134 20.4253C41.134 20.4253 46.7662 5.98838 36.9016 1.14073C25.4464 -4.48852 24.57 12.5465 23.5141 12.5465C22.4583 12.5465 15.3158 0.291908 6.51848 6.93063Z" transform="translate(706.409 199.105) rotate(56.3977)" fill="#FCC2C1"/>
<path d="M14.7305 3.92713C14.7305 7.7227 11.6528 11.7814 7.85625 11.7814C4.05973 11.7814 0 9.68626 0 5.8907C0 2.09513 3.07769 0 6.87422 0C10.6708 0 14.7305 0.131566 14.7305 3.92713Z" transform="matrix(0.500717 -0.865611 0.862518 0.506027 691.839 237.629)" fill="#FFB0B1"/>
<path d="M10.1474 2.72044C10.1474 5.34973 8.0273 8.16131 5.41197 8.16131C2.79664 8.16131 0 6.70995 0 4.08065C0 1.45136 2.12014 0 4.73547 0C7.3508 0 10.1474 0.0911392 10.1474 2.72044Z" transform="matrix(-0.877274 0.47999 -0.47729 -0.878746 703.677 235.966)" fill="#FFF5F5"/>
<path d="M3.65685 3.88806C-0.736354 7.20329 4.95574 14.2218 4.95574 14.2218C4.95574 14.2218 -0.894049 16.3805 0.117558 20.3094C1.5164 25.7424 8.92835 22.6336 8.92835 22.6336C8.92835 22.6336 6.96137 29.206 13.192 30.798C19.4226 32.3899 19.7818 21.9573 19.7818 21.9573C19.7818 21.9573 27.0333 24.2527 27.8359 19.2237C29.0504 11.6131 23.076 11.4585 23.076 11.4585C23.076 11.4585 26.2357 3.35946 20.7017 0.639945C14.2754 -2.51805 13.7837 7.03853 13.1913 7.03853C12.599 7.03853 8.59213 0.16376 3.65685 3.88806Z" transform="translate(672.789 188.288) scale(1 -1) rotate(-50.0059)" fill="#FCC2C1"/>
<path d="M8.26375 2.20311C8.26375 4.33241 6.53717 6.60933 4.40733 6.60933C2.27749 6.60933 0 5.43396 0 3.30466C0 1.17536 1.72658 0 3.85642 0C5.98626 0 8.26375 0.0738078 8.26375 2.20311Z" transform="matrix(-0.971781 0.235886 0.241854 0.970313 695.83 186.55)" fill="#FFB0B1"/>
<path d="M5.69268 1.52616C5.69268 3.00118 4.50329 4.57847 3.0361 4.57847C1.56891 4.57847 0 3.76426 0 2.28923C0 0.814207 1.18939 0 2.65658 0C4.12378 0 5.69268 0.0511288 5.69268 1.52616Z" transform="translate(693.059 192.658) scale(1.00154 -0.998461) rotate(44.9998)" fill="#FFF5F5"/>
<path d="M3.65685 3.88806C-0.736354 7.20329 4.95574 14.2218 4.95574 14.2218C4.95574 14.2218 -0.894049 16.3805 0.117558 20.3094C1.5164 25.7424 8.92835 22.6336 8.92835 22.6336C8.92835 22.6336 6.96137 29.206 13.192 30.798C19.4226 32.3899 19.7818 21.9573 19.7818 21.9573C19.7818 21.9573 27.0333 24.2527 27.8359 19.2237C29.0504 11.6131 23.076 11.4585 23.076 11.4585C23.076 11.4585 26.2357 3.35946 20.7017 0.639945C14.2754 -2.51805 13.7837 7.03853 13.1913 7.03853C12.599 7.03853 8.59213 0.16376 3.65685 3.88806Z" transform="translate(672.985 123.343) scale(-1 1) rotate(56.3977)" fill="#FCC2C1"/>
<path d="M8.26375 2.20311C8.26375 4.33241 6.53717 6.60933 4.40733 6.60933C2.27749 6.60933 0 5.43396 0 3.30466C0 1.17536 1.72658 0 3.85642 0C5.98626 0 8.26375 0.0738078 8.26375 2.20311Z" transform="matrix(-0.500717 -0.865611 -0.862518 0.506027 681.159 144.955)" fill="#FFB0B1"/>
<path d="M5.69268 1.52616C5.69268 3.00118 4.50329 4.57847 3.0361 4.57847C1.56891 4.57847 0 3.76426 0 2.28923C0 0.814207 1.18939 0 2.65658 0C4.12378 0 5.69268 0.0511288 5.69268 1.52616Z" transform="matrix(0.877274 0.47999 0.47729 -0.878746 674.518 144.022)" fill="#FFF5F5"/>
<path d="M4.41677 4.69602C-0.889373 8.70018 5.98558 17.1772 5.98558 17.1772C5.98558 17.1772 -1.07984 19.7844 0.141987 24.5299C1.83152 31.0918 10.7837 27.337 10.7837 27.337C10.7837 27.337 8.40798 35.2752 15.9334 37.198C23.4587 39.1208 23.8926 26.5202 23.8926 26.5202C23.8926 26.5202 32.651 29.2926 33.6203 23.2185C35.0872 14.0263 27.8714 13.8397 27.8714 13.8397C27.8714 13.8397 31.6877 4.05758 25.0036 0.77293C17.2419 -3.04131 16.648 8.50118 15.9326 8.50118C15.2172 8.50118 10.3776 0.19779 4.41677 4.69602Z" transform="translate(836.413 303.691) scale(1 -1) rotate(-21.4493)" fill="#FCC2C1"/>
<path d="M9.98101 2.66093C9.98101 5.23271 7.89564 7.98279 5.32321 7.98279C2.75077 7.98279 0 6.56318 0 3.99139C0 1.41961 2.08537 0 4.65781 0C7.23024 0 9.98101 0.0891456 9.98101 2.66093Z" transform="matrix(-0.740799 0.671726 0.676266 0.736658 859.853 288.544)" fill="#FFB0B1"/>
<path d="M6.87566 1.8433C6.87566 3.62485 5.4391 5.5299 3.66702 5.5299C1.89493 5.5299 0 4.5465 0 2.76495C0 0.983404 1.43656 0 3.20864 0C4.98072 0 6.87566 0.0617537 6.87566 1.8433Z" transform="matrix(0.284547 -0.958662 -0.959533 -0.281597 860.44 296.624)" fill="#FFF5F5"/>
<path d="M1.99255 11.581C-3.49646 15.7232 5.31241 30.0375 5.31241 30.0375C5.31241 30.0375 -0.630846 35.785 0.0551193 40.6175C1.04023 47.5574 11.8514 46.5241 11.8514 46.5241C11.8514 46.5241 12.3221 51.1526 14.533 52.2597C20.4311 55.2129 28.4119 45.8142 33.5547 39.0478C41.7593 28.2528 34.4769 -5.44136 22.4161 0.754195C17.4863 3.2866 16.2885 12.3179 15.5485 12.3179C14.8084 12.3179 9.0219 6.27646 1.99255 11.581Z" transform="translate(921.273 443.421) rotate(167.187)" fill="#FCC2C1"/>
<path d="M12.7452 3.39785C12.7452 6.68186 10.0823 10.1935 6.79741 10.1935C3.51257 10.1935 0 8.38078 0 5.09677C0 1.81276 2.66289 0 5.94774 0C9.23258 0 12.7452 0.113834 12.7452 3.39785Z" transform="matrix(-0.180051 0.983657 -0.982532 -0.186092 899.818 418.233)" fill="#FFB0B1"/>
<path d="M8.7798 2.35378C8.7798 4.62871 6.94541 7.06135 4.68256 7.06135C2.41972 7.06135 0 5.80561 0 3.53068C0 1.25575 1.8344 0 4.09724 0C6.36009 0 8.7798 0.0788558 8.7798 2.35378Z" transform="matrix(0.664455 -0.747328 0.745281 0.66675 890.658 423.037)" fill="#FFF5F5"/>
<path d="M4.60674 4.89801C-0.927628 9.0744 6.24304 17.916 6.24304 17.916C6.24304 17.916 -1.12629 20.6354 0.148095 25.585C1.9103 32.4292 11.2476 28.5129 11.2476 28.5129C11.2476 28.5129 8.76964 36.7924 16.6187 38.798C24.4678 40.8035 24.9202 27.6609 24.9202 27.6609C24.9202 27.6609 34.0554 30.5526 35.0664 24.2172C36.5964 14.6297 29.0702 14.435 29.0702 14.435C29.0702 14.435 33.0506 4.23211 26.0791 0.806176C17.9835 -3.17213 17.3641 8.86684 16.6179 8.86684C15.8717 8.86684 10.824 0.206298 4.60674 4.89801Z" transform="translate(777.84 454.665) scale(1 -1) rotate(51.8997)" fill="#FCC2C1"/>
<path d="M10.4103 2.77538C10.4103 5.45779 8.23526 8.32615 5.55217 8.32615C2.86909 8.32615 0 6.84548 0 4.16308C0 1.48067 2.17507 0 4.85815 0C7.54124 0 10.4103 0.09298 10.4103 2.77538Z" transform="matrix(0.43129 0.902213 0.899546 -0.436826 769.71 426.715)" fill="#FFB0B1"/>
<path d="M7.1714 1.92259C7.1714 3.78076 5.67305 5.76776 3.82475 5.76776C1.97644 5.76776 0 4.74206 0 2.88388C0 1.0257 1.49835 0 3.34665 0C5.19496 0 7.1714 0.0644099 7.1714 1.92259Z" transform="matrix(-0.836929 -0.547311 -0.544735 0.838608 777.958 428.543)" fill="#FFF5F5"/>
<path d="M4.60674 4.89801C-0.927628 9.0744 6.24304 17.916 6.24304 17.916C6.24304 17.916 -1.12629 20.6354 0.148095 25.585C1.9103 32.4292 11.2476 28.5129 11.2476 28.5129C11.2476 28.5129 8.76964 36.7924 16.6187 38.798C24.4678 40.8035 24.9202 27.6609 24.9202 27.6609C24.9202 27.6609 34.0554 30.5526 35.0664 24.2172C36.5964 14.6297 29.0702 14.435 29.0702 14.435C29.0702 14.435 33.0506 4.23211 26.0791 0.806176C17.9835 -3.17213 17.3641 8.86684 16.6179 8.86684C15.8717 8.86684 10.824 0.206298 4.60674 4.89801Z" transform="translate(840.28 475.565) scale(1 -1) rotate(-16.4388)" fill="#FCC2C1"/>
<path d="M10.4103 2.77538C10.4103 5.45779 8.23526 8.32615 5.55217 8.32615C2.86909 8.32615 0 6.84548 0 4.16308C0 1.48067 2.17507 0 4.85815 0C7.54124 0 10.4103 0.09298 10.4103 2.77538Z" transform="matrix(-0.679302 0.733859 0.73802 0.674779 863.255 457.693)" fill="#FFB0B1"/>
<path d="M7.1714 1.92259C7.1714 3.78076 5.67305 5.76776 3.82475 5.76776C1.97644 5.76776 0 4.74206 0 2.88388C0 1.0257 1.49835 0 3.34665 0C5.19496 0 7.1714 0.0644099 7.1714 1.92259Z" transform="matrix(0.199732 -0.97985 -0.98046 -0.196718 864.601 466.033)" fill="#FFF5F5"/>
<path d="M6.51848 6.93063C-1.31258 12.8402 8.83382 25.351 8.83382 25.351C8.83382 25.351 -1.59368 29.1989 0.209552 36.2024C2.70305 45.8869 15.9152 40.3453 15.9152 40.3453C15.9152 40.3453 12.4089 52.0608 23.5152 54.8986C34.6216 57.7364 35.2618 39.1399 35.2618 39.1399C35.2618 39.1399 48.188 43.2315 49.6186 34.267C51.7835 20.7008 41.134 20.4253 41.134 20.4253C41.134 20.4253 46.7662 5.98838 36.9016 1.14073C25.4464 -4.48852 24.57 12.5465 23.5141 12.5465C22.4583 12.5465 15.3158 0.291908 6.51848 6.93063Z" transform="translate(856.564 423.818) rotate(139.967)" fill="#FCC2C1"/>
<path d="M14.7305 3.92713C14.7305 7.7227 11.6528 11.7814 7.85625 11.7814C4.05973 11.7814 0 9.68626 0 5.8907C0 2.09513 3.07769 0 6.87422 0C10.6708 0 14.7305 0.131566 14.7305 3.92713Z" transform="matrix(0.916249 0.400609 -0.406232 0.91377 816.65 413.655)" fill="#FFB0B1"/>
<path d="M10.1474 2.72044C10.1474 5.34973 8.0273 8.16131 5.41197 8.16131C2.79664 8.16131 0 6.70995 0 4.08065C0 1.45136 2.12014 0 4.73547 0C7.3508 0 10.1474 0.0911392 10.1474 2.72044Z" transform="matrix(-0.575233 -0.817989 0.819755 -0.572715 819.629 425.232)" fill="#FFF5F5"/>
<path d="M6.48462 6.89462C-1.30576 12.7734 8.78792 25.2192 8.78792 25.2192C8.78792 25.2192 -1.5854 29.0472 0.208463 36.0143C2.68901 45.6485 15.8325 40.1357 15.8325 40.1357C15.8325 40.1357 12.3444 51.7903 23.3931 54.6134C34.4417 57.4364 35.0786 38.9365 35.0786 38.9365C35.0786 38.9365 47.9376 43.0069 49.3608 34.089C51.5144 20.5932 40.9203 20.3192 40.9203 20.3192C40.9203 20.3192 46.5233 5.95726 36.7099 1.1348C25.3142 -4.4652 24.4423 12.4813 23.3919 12.4813C22.3416 12.4813 15.2363 0.290392 6.48462 6.89462Z" transform="translate(688.4 453.255) scale(-1 1) rotate(-80.0058)" fill="#FCC2C1"/>
<path d="M14.6539 3.90673C14.6539 7.68257 11.5922 11.7202 7.81544 11.7202C4.03863 11.7202 0 9.63594 0 5.86009C0 2.08425 3.0617 0 6.83851 0C10.6153 0 14.6539 0.130882 14.6539 3.90673Z" transform="matrix(0.95953 0.281607 0.275705 -0.961242 651.476 435.496)" fill="#FFB0B1"/>
<path d="M10.0947 2.7063C10.0947 5.32194 7.98559 8.1189 5.38385 8.1189C2.78211 8.1189 0 6.67509 0 4.05945C0 1.44382 2.10913 0 4.71087 0C7.31261 0 10.0947 0.0906657 10.0947 2.7063Z" transform="matrix(-0.966324 0.25733 0.2603 0.965528 661.146 428.573)" fill="#FFF5F5"/>
<path d="M6.32224 6.72197C-1.27306 12.4536 8.56786 24.5877 8.56786 24.5877C8.56786 24.5877 -1.5457 28.3198 0.203243 35.1125C2.62167 44.5054 15.436 39.1307 15.436 39.1307C15.436 39.1307 12.0353 50.4935 22.8073 53.2458C33.5792 55.9982 34.2002 37.9615 34.2002 37.9615C34.2002 37.9615 46.7372 41.93 48.1247 33.2354C50.2244 20.0776 39.8956 19.8104 39.8956 19.8104C39.8956 19.8104 45.3583 5.80809 35.7906 1.10639C24.6803 -4.35339 23.8302 12.1687 22.8062 12.1687C21.7821 12.1687 14.8547 0.28312 6.32224 6.72197Z" transform="translate(689.284 505.895) scale(1 -1) rotate(15.4791)" fill="#FCC2C1"/>
<path d="M14.287 3.8089C14.287 7.4902 11.302 11.4267 7.61973 11.4267C3.9375 11.4267 0 9.39465 0 5.71335C0 2.03205 2.98504 0 6.66726 0C10.3495 0 14.287 0.127605 14.287 3.8089Z" transform="matrix(-0.188601 0.982054 0.983194 0.182562 703.079 468.405)" fill="#FFB0B1"/>
<path d="M9.84194 2.63853C9.84194 5.18867 7.78562 7.9156 5.24903 7.9156C2.71244 7.9156 0 6.50794 0 3.9578C0 1.40766 2.05631 0 4.5929 0C7.1295 0 9.84194 0.0883953 9.84194 2.63853Z" transform="matrix(-0.348517 -0.937302 -0.936226 0.351398 710.698 477.145)" fill="#FFF5F5"/>
<path d="M4.7651 5.06638C-0.959514 9.38632 6.45763 18.5319 6.45763 18.5319C6.45763 18.5319 -1.165 21.3447 0.153185 26.4644C1.97597 33.5439 11.6342 29.493 11.6342 29.493C11.6342 29.493 9.07108 38.0571 17.1899 40.1316C25.3088 42.2061 25.7768 28.6117 25.7768 28.6117C25.7768 28.6117 35.2261 31.6028 36.2718 25.0496C37.8544 15.1325 30.0695 14.9312 30.0695 14.9312C30.0695 14.9312 34.1867 4.37758 26.9755 0.833887C18.6017 -3.28117 17.961 9.17163 17.1891 9.17163C16.4173 9.17163 11.1961 0.213389 4.7651 5.06638Z" transform="translate(731.066 392.904) rotate(84.9942)" fill="#FCC2C1"/>
<path d="M10.7682 2.87078C10.7682 5.64539 8.51833 8.61235 5.74302 8.61235C2.96771 8.61235 0 7.08078 0 4.30618C0 1.53157 2.24983 0 5.02515 0C7.80046 0 10.7682 0.0961761 10.7682 2.87078Z" transform="matrix(0.85395 -0.520356 0.515098 0.857131 708.235 412.532)" fill="#FFB0B1"/>
<path d="M7.41791 1.98867C7.41791 3.91072 5.86806 5.96602 3.95622 5.96602C2.04438 5.96602 0 4.90506 0 2.98301C0 1.06096 1.54985 0 3.46169 0C5.37353 0 7.41791 0.0666239 7.41791 1.98867Z" transform="matrix(-0.999999 0.00154171 0.00153351 -0.999999 716.416 415.607)" fill="#FFF5F5"/>
<path d="M4.91198 5.22255C-0.989091 9.67566 6.65669 19.1031 6.65669 19.1031C6.65669 19.1031 -1.20091 22.0027 0.157907 27.2802C2.03688 34.5779 11.9928 30.4021 11.9928 30.4021C11.9928 30.4021 9.3507 39.2303 17.7198 41.3687C26.089 43.5071 26.5714 29.4937 26.5714 29.4937C26.5714 29.4937 36.3119 32.577 37.3899 25.8218C39.0213 15.599 30.9964 15.3914 30.9964 15.3914C30.9964 15.3914 35.2405 4.51252 27.8071 0.859592C19.1751 -3.38231 18.5146 9.45435 17.719 9.45435C16.9234 9.45435 11.5412 0.219967 4.91198 5.22255Z" transform="translate(673.709 363.303) scale(1 -1) rotate(-17.4995)" fill="#FCC2C1"/>
<path d="M11.1001 2.95928C11.1001 5.81941 8.78091 8.87783 5.92005 8.87783C3.05919 8.87783 0 7.29905 0 4.43892C0 1.57878 2.31919 0 5.18005 0C8.04091 0 11.1001 0.0991408 11.1001 2.95928Z" transform="matrix(-0.692769 0.721159 0.725403 0.688325 698.554 344.703)" fill="#FFB0B1"/>
<path d="M7.64657 2.04998C7.64657 4.03127 6.04894 6.14993 4.07817 6.14993C2.1074 6.14993 0 5.05626 0 3.07496C0 1.09367 1.59763 0 3.5684 0C5.53917 0 7.64657 0.0686776 7.64657 2.04998Z" transform="matrix(0.217836 -0.975985 -0.976651 -0.214833 699.825 353.622)" fill="#FFF5F5"/>
<path d="M4.08905 4.34759C-0.823384 8.05464 5.54146 15.9027 5.54146 15.9027C5.54146 15.9027 -0.999717 18.3165 0.131452 22.7098C1.69563 28.7849 9.98359 25.3087 9.98359 25.3087C9.98359 25.3087 7.78413 32.6578 14.7511 34.438C21.7181 36.2181 22.1198 24.5525 22.1198 24.5525C22.1198 24.5525 30.2284 27.1192 31.1258 21.4957C32.4838 12.9856 25.8034 12.8128 25.8034 12.8128C25.8034 12.8128 29.3365 3.75652 23.1484 0.71558C15.9626 -2.81566 15.4128 7.87041 14.7504 7.87041C14.0881 7.87041 9.60764 0.183114 4.08905 4.34759Z" transform="translate(672.207 284.119) rotate(53.5769)" fill="#FCC2C1"/>
<path d="M9.24044 2.46349C9.24044 4.84446 7.3098 7.39048 4.92824 7.39048C2.54667 7.39048 0 6.0762 0 3.69524C0 1.31428 1.93064 0 4.31221 0C6.69377 0 9.24044 0.0825312 9.24044 2.46349Z" transform="matrix(0.45751 -0.889204 0.886376 0.462966 664.267 308.706)" fill="#FFB0B1"/>
<path d="M6.3655 1.70653C6.3655 3.35589 5.03553 5.1196 3.39493 5.1196C1.75433 5.1196 0 4.20916 0 2.5598C0 0.910438 1.32997 0 2.97057 0C4.61117 0 6.3655 0.0571717 6.3655 1.70653Z" transform="matrix(-0.852589 0.522582 -0.519958 -0.854192 671.633 307.298)" fill="#FFF5F5"/>
<path d="M5.6955 6.05561C-1.14686 11.219 7.71851 22.1503 7.71851 22.1503C7.71851 22.1503 -1.39247 25.5124 0.183095 31.6317C2.36178 40.0935 13.9058 35.2516 13.9058 35.2516C13.9058 35.2516 10.8422 45.4879 20.5464 47.9675C30.2505 50.447 30.8099 34.1983 30.8099 34.1983C30.8099 34.1983 42.1041 37.7734 43.354 29.9407C45.2456 18.0872 35.9407 17.8465 35.9407 17.8465C35.9407 17.8465 40.8618 5.23232 32.2426 0.996707C22.2337 -3.92183 21.4679 10.9624 20.5454 10.9624C19.6228 10.9624 13.3821 0.255054 5.6955 6.05561Z" transform="translate(543.861 350.862) scale(1 -1) rotate(-35.0058)" fill="#FCC2C1"/>
<path d="M12.8707 3.43132C12.8707 6.74768 10.1816 10.2939 6.86437 10.2939C3.54717 10.2939 0 8.46334 0 5.14697C0 1.83061 2.68912 0 6.00632 0C9.32353 0 12.8707 0.114955 12.8707 3.43132Z" transform="matrix(-0.877616 0.479364 0.484748 0.874654 577.823 338.96)" fill="#FFB0B1"/>
<path d="M8.86629 2.37697C8.86629 4.67431 7.01382 7.13091 4.72869 7.13091C2.44355 7.13091 0 5.86279 0 3.56545C0 1.26812 1.85247 0 4.1376 0C6.42273 0 8.86629 0.0796325 8.86629 2.37697Z" transform="matrix(0.501335 -0.865254 -0.866791 -0.498671 576.117 349.265)" fill="#FFF5F5"/>
<path d="M5.3323 5.66945C-1.07373 10.5036 7.22631 20.7378 7.22631 20.7378C7.22631 20.7378 -1.30367 23.8855 0.17142 29.6146C2.21117 37.5367 13.019 33.0036 13.019 33.0036C13.019 33.0036 10.1508 42.5872 19.2361 44.9086C28.3214 47.23 28.8452 32.0175 28.8452 32.0175C28.8452 32.0175 39.4191 35.3646 40.5894 28.0314C42.3603 16.9338 33.6488 16.7085 33.6488 16.7085C33.6488 16.7085 38.2561 4.89866 30.1865 0.933148C20.8159 -3.67174 20.0989 10.2634 19.2352 10.2634C18.3715 10.2634 12.5288 0.238789 5.3323 5.66945Z" transform="translate(468.4 288.469) rotate(16.3128)" fill="#FCC2C1"/>
<path d="M12.0499 3.2125C12.0499 6.31738 9.5323 9.63751 6.42664 9.63751C3.32097 9.63751 0 7.92364 0 4.81876C0 1.71388 2.51764 0 5.62331 0C8.72897 0 12.0499 0.107624 12.0499 3.2125Z" transform="matrix(-0.174293 -0.984694 0.985746 -0.168239 479.573 320.255)" fill="#FFB0B1"/>
<path d="M8.30089 2.22539C8.30089 4.37623 6.56655 6.67618 4.42714 6.67618C2.28773 6.67618 0 5.48893 0 3.33809C0 1.18725 1.73434 0 3.87375 0C6.01316 0 8.30089 0.0745544 8.30089 2.22539Z" transform="matrix(-0.362117 0.932133 -0.931015 -0.364982 486.107 312.979)" fill="#FFF5F5"/>
<path d="M3.47684 3.69666C-0.700106 6.8487 4.71179 13.5217 4.71179 13.5217C4.71179 13.5217 -0.850039 15.5741 0.111771 19.3097C1.44176 24.4752 8.48884 21.5194 8.48884 21.5194C8.48884 21.5194 6.61869 27.7683 12.5426 29.2819C18.4665 30.7955 18.808 20.8765 18.808 20.8765C18.808 20.8765 25.7026 23.0589 26.4656 18.2774C27.6203 11.0414 21.9401 10.8945 21.9401 10.8945C21.9401 10.8945 24.9442 3.19409 19.6826 0.608443C13.5727 -2.39409 13.1052 6.69205 12.542 6.69205C11.9788 6.69205 8.16918 0.155698 3.47684 3.69666Z" transform="translate(495.388 345.868) rotate(63.9041)" fill="#FCC2C1"/>
<path d="M7.85696 2.09466C7.85696 4.11914 6.21537 6.28397 4.19038 6.28397C2.16538 6.28397 0 5.16647 0 3.14199C0 1.1175 1.64158 0 3.66658 0C5.69158 0 7.85696 0.0701746 7.85696 2.09466Z" transform="matrix(0.609506 -0.792781 0.789021 0.614367 484.999 365.224)" fill="#FFB0B1"/>
<path d="M5.41245 1.45103C5.41245 2.85345 4.28161 4.35309 2.88664 4.35309C1.49167 4.35309 0 3.57896 0 2.17654C0 0.774126 1.13084 0 2.52581 0C3.92078 0 5.41245 0.0486119 5.41245 1.45103Z" transform="matrix(-0.93246 0.361273 -0.358404 -0.933567 491.375 365.169)" fill="#FFF5F5"/>
<path d="M1.83757 10.6802C-3.22451 14.5002 4.89921 27.7012 4.89921 27.7012C4.89921 27.7012 -0.581779 33.0017 0.0508321 37.4583C0.959319 43.8584 10.9296 42.9055 10.9296 42.9055C10.9296 42.9055 11.3637 47.174 13.4026 48.1949C18.842 50.9185 26.202 42.2508 30.9448 36.0107C38.5113 26.0553 31.7953 -5.01814 20.6726 0.695534C16.1262 3.03097 15.0216 11.3598 14.3391 11.3598C13.6566 11.3598 8.32019 5.78828 1.83757 10.6802Z" transform="translate(490.744 438.614) rotate(-85.3941)" fill="#FCC2C1"/>
<path d="M11.7538 3.13356C11.7538 6.16215 9.29807 9.40069 6.26872 9.40069C3.23936 9.40069 0 7.72893 0 4.70035C0 1.67176 2.45577 0 5.48513 0C8.51448 0 11.7538 0.10498 11.7538 3.13356Z" transform="matrix(-0.884647 -0.466261 0.471689 -0.881765 518.831 426.688)" fill="#FFB0B1"/>
<path d="M8.09691 2.17071C8.09691 4.26869 6.4052 6.51213 4.31835 6.51213C2.23151 6.51213 0 5.35405 0 3.25606C0 1.15808 1.69172 0 3.77856 0C5.8654 0 8.09691 0.0727224 8.09691 2.17071Z" transform="matrix(0.514145 0.857703 -0.85928 0.511505 517.133 417.302)" fill="#FFF5F5"/>
<path d="M5.6955 6.05561C-1.14686 11.219 7.71851 22.1503 7.71851 22.1503C7.71851 22.1503 -1.39247 25.5124 0.183095 31.6317C2.36178 40.0935 13.9058 35.2516 13.9058 35.2516C13.9058 35.2516 10.8422 45.4879 20.5464 47.9675C30.2505 50.447 30.8099 34.1983 30.8099 34.1983C30.8099 34.1983 42.1041 37.7734 43.354 29.9407C45.2456 18.0872 35.9407 17.8465 35.9407 17.8465C35.9407 17.8465 40.8618 5.23232 32.2426 0.996707C22.2337 -3.92183 21.4679 10.9624 20.5454 10.9624C19.6228 10.9624 13.3821 0.255054 5.6955 6.05561Z" transform="translate(563.919 246.092) scale(-1 1) rotate(69.9942)" fill="#FCC2C1"/>
<path d="M12.8707 3.43132C12.8707 6.74768 10.1816 10.2939 6.86437 10.2939C3.54717 10.2939 0 8.46334 0 5.14697C0 1.83061 2.68912 0 6.00632 0C9.32353 0 12.8707 0.114955 12.8707 3.43132Z" transform="matrix(-0.690174 -0.723644 -0.719389 0.694608 584.205 275.816)" fill="#FFB0B1"/>
<path d="M8.86629 2.37697C8.86629 4.67431 7.01382 7.13091 4.72869 7.13091C2.44355 7.13091 0 5.86279 0 3.56545C0 1.26812 1.85247 0 4.1376 0C6.42273 0 8.86629 0.0796325 8.86629 2.37697Z" transform="matrix(0.965526 0.260308 0.257337 -0.966322 573.81 276.835)" fill="#FFF5F5"/>
<path d="M3.98997 4.24224C-0.803433 7.85948 5.40719 15.5174 5.40719 15.5174C5.40719 15.5174 -0.975494 17.8727 0.128267 22.1595C1.65454 28.0874 9.74169 24.6954 9.74169 24.6954C9.74169 24.6954 7.59552 31.8665 14.3937 33.6035C21.1919 35.3405 21.5838 23.9576 21.5838 23.9576C21.5838 23.9576 29.4959 26.4621 30.3716 20.9749C31.6967 12.671 25.1782 12.5024 25.1782 12.5024C25.1782 12.5024 28.6257 3.66549 22.5875 0.698241C15.5758 -2.74743 15.0393 7.67971 14.393 7.67971C13.7467 7.67971 9.37484 0.178678 3.98997 4.24224Z" transform="translate(407.709 101.032) rotate(74.611)" fill="#FCC2C1"/>
<path d="M9.01654 2.4038C9.01654 4.72707 7.13268 7.21141 4.80882 7.21141C2.48496 7.21141 0 5.92898 0 3.6057C0 1.28243 1.88386 0 4.20772 0C6.53158 0 9.01654 0.0805314 9.01654 2.4038Z" transform="matrix(0.746182 -0.665743 0.661145 0.750259 391.867 120.644)" fill="#FFB0B1"/>
<path d="M6.21126 1.66518C6.21126 3.27458 4.91352 4.99555 3.31267 4.99555C1.71183 4.99555 0 4.10717 0 2.49777C0 0.888378 1.29774 0 2.89859 0C4.49944 0 6.21126 0.0557864 6.21126 1.66518Z" transform="matrix(-0.983345 0.181747 -0.178722 -0.9839 399.068 121.942)" fill="#FFF5F5"/>
<path d="M5.77495 6.14008C-1.16286 11.3755 7.82619 22.4593 7.82619 22.4593C7.82619 22.4593 -1.4119 25.8683 0.18565 32.073C2.39473 40.6528 14.0998 35.7433 14.0998 35.7433C14.0998 35.7433 10.9935 46.1225 20.833 48.6366C30.6725 51.1507 31.2397 34.6754 31.2397 34.6754C31.2397 34.6754 42.6915 38.3003 43.9588 30.3584C45.8768 18.3396 36.4421 18.0955 36.4421 18.0955C36.4421 18.0955 41.4319 5.30532 32.6924 1.01061C22.5439 -3.97654 21.7674 11.1154 20.832 11.1154C19.8966 11.1154 13.5688 0.258612 5.77495 6.14008Z" transform="translate(515.523 143.819) rotate(84.1467)" fill="#FCC2C1"/>
<path d="M13.0502 3.47918C13.0502 6.84181 10.3236 10.4376 6.96013 10.4376C3.59665 10.4376 0 8.5814 0 5.21878C0 1.85615 2.72664 0 6.09012 0C9.45359 0 13.0502 0.116559 13.0502 3.47918Z" transform="matrix(0.84616 -0.532929 0.52772 0.849419 488.208 168.014)" fill="#FFB0B1"/>
<path d="M8.98997 2.41013C8.98997 4.73952 7.11166 7.23039 4.79465 7.23039C2.47764 7.23039 0 5.94458 0 3.61519C0 1.28581 1.87831 0 4.19532 0C6.51233 0 8.98997 0.0807434 8.98997 2.41013Z" transform="matrix(-0.999867 0.0163323 -0.0132573 -0.999912 498.176 171.593)" fill="#FFF5F5"/>
<path d="M6.50232 6.91344C-1.30933 12.8083 8.81191 25.2881 8.81191 25.2881C8.81191 25.2881 -1.58973 29.1265 0.209033 36.1126C2.69635 45.7731 15.8757 40.2453 15.8757 40.2453C15.8757 40.2453 12.3782 51.9318 23.4569 54.7625C34.5357 57.5933 35.1744 39.0428 35.1744 39.0428C35.1744 39.0428 48.0685 43.1243 49.4955 34.1821C51.6551 20.6495 41.032 20.3747 41.032 20.3747C41.032 20.3747 46.6503 5.97353 36.8101 1.1379C25.3833 -4.47739 24.509 12.5154 23.4558 12.5154C22.4026 12.5154 15.2779 0.291185 6.50232 6.91344Z" transform="translate(423.316 169.495) rotate(24.9942)" fill="#FCC2C1"/>
<path d="M14.6939 3.91739C14.6939 7.70355 11.6239 11.7522 7.83677 11.7522C4.04966 11.7522 0 9.66225 0 5.87609C0 2.08994 3.07006 0 6.85718 0C10.6443 0 14.6939 0.131239 14.6939 3.91739Z" transform="matrix(-0.0236666 -0.99972 0.999846 -0.0175227 430.934 209.867)" fill="#FFB0B1"/>
<path d="M10.1223 2.71369C10.1223 5.33647 8.00739 8.14107 5.39855 8.14107C2.7897 8.14107 0 6.69331 0 4.07053C0 1.44776 2.11489 0 4.72373 0C7.33257 0 10.1223 0.0909132 10.1223 2.71369Z" transform="matrix(-0.498664 0.866795 -0.865258 -0.501328 440.149 202.298)" fill="#FFF5F5"/>
<path d="M1.41015 8.33158C-2.47448 11.3115 3.75965 21.6095 3.75965 21.6095C3.75965 21.6095 -0.446456 25.7444 0.0390085 29.2209C0.73618 34.2137 8.38739 33.4703 8.38739 33.4703C8.38739 33.4703 8.72046 36.8001 10.2851 37.5965C14.4593 39.7212 20.1074 32.9596 23.747 28.0917C29.5535 20.3256 24.3997 -3.91461 15.8641 0.542581C12.3752 2.36444 11.5276 8.86173 11.0038 8.86173C10.4801 8.86173 6.3849 4.5154 1.41015 8.33158Z" transform="matrix(0.102248 -0.994759 0.996112 0.0880918 469.527 283.787)" fill="#FCC2C1"/>
<path d="M9.09946 2.42374C9.09946 4.76628 7.19828 7.27122 4.85305 7.27122C2.50782 7.27122 0 5.97815 0 3.63561C0 1.29307 1.90118 0 4.24642 0C6.59165 0 9.09946 0.0811994 9.09946 2.42374Z" transform="matrix(-0.88276 -0.469825 0.494212 -0.869341 491.647 274.849)" fill="#FFB0B1"/>
<path d="M6.2061 1.69538C6.2061 3.33395 4.90943 5.08613 3.30992 5.08613C1.7104 5.08613 0 4.18164 0 2.54306C0 0.904486 1.29666 0 2.89618 0C4.49569 0 6.2061 0.056798 6.2061 1.69538Z" transform="matrix(0.506093 0.862479 -0.869446 0.494028 490.47 267.643)" fill="#FFF5F5"/>
<path d="M1.51322 8.94056C-2.65535 12.1383 4.03445 23.189 4.03445 23.189C4.03445 23.189 -0.479089 27.6261 0.0418597 31.3568C0.78999 36.7144 9.00045 35.9167 9.00045 35.9167C9.00045 35.9167 9.35786 39.4899 11.0369 40.3446C15.5162 42.6245 21.5771 35.3687 25.4827 30.145C31.7137 21.8112 26.1831 -4.20074 17.0237 0.58224C13.2798 2.53726 12.3702 9.50946 11.8081 9.50946C11.2461 9.50946 6.85159 4.84544 1.51322 8.94056Z" transform="matrix(-0.658613 0.752482 -0.761772 -0.647846 567.618 209.989)" fill="#FCC2C1"/>
<path d="M9.76457 2.6009C9.76457 5.11466 7.72442 7.8027 5.20777 7.8027C2.69112 7.8027 0 6.41511 0 3.90135C0 1.38758 2.04015 0 4.5568 0C7.07345 0 9.76457 0.0871345 9.76457 2.6009Z" transform="matrix(0.448563 0.893751 -0.905889 0.423514 542.706 204.089)" fill="#FFB0B1"/>
<path d="M6.65972 1.8193C6.65972 3.57764 5.26828 5.45789 3.55185 5.45789C1.83542 5.45789 0 4.48729 0 2.72894C0 0.970598 1.39144 0 3.10787 0C4.8243 0 6.65972 0.0609495 6.65972 1.8193Z" transform="matrix(0.0857923 -0.996313 0.995021 0.0996646 539.265 211.129)" fill="#FFF5F5"/>
<path d="M1.38972 8.2109C-2.43864 11.1477 3.70519 21.2965 3.70519 21.2965C3.70519 21.2965 -0.43999 25.3715 0.0384435 28.7977C0.725517 33.7181 8.2659 32.9855 8.2659 32.9855C8.2659 32.9855 8.59414 36.2671 10.1362 37.052C14.2499 39.1458 19.8161 32.4821 23.403 27.6848C29.1255 20.0312 24.0462 -3.85791 15.6343 0.534722C12.196 2.33019 11.3606 8.73337 10.8444 8.73337C10.3283 8.73337 6.29242 4.45 1.38972 8.2109Z" transform="matrix(0.158699 0.987327 -0.98497 0.172723 459.856 128.212)" fill="#FCC2C1"/>
<path d="M8.96766 2.38863C8.96766 4.69724 7.09401 7.1659 4.78275 7.1659C2.47149 7.1659 0 5.89156 0 3.58295C0 1.27434 1.87365 0 4.18491 0C6.49617 0 8.96766 0.0800233 8.96766 2.38863Z" transform="matrix(0.97428 0.225341 -0.25237 0.967631 441.079 142.363)" fill="#FFB0B1"/>
<path d="M6.1162 1.67082C6.1162 3.28566 4.83832 5.01246 3.26197 5.01246C1.68563 5.01246 0 4.12107 0 2.50623C0 0.891385 1.27788 0 2.85423 0C4.43057 0 6.1162 0.0559753 6.1162 1.67082Z" transform="translate(444.038 148.922) scale(1.00694 0.99301) rotate(-135.005)" fill="#FFF5F5"/>
<path d="M5.6955 6.05561C-1.14686 11.219 7.71851 22.1503 7.71851 22.1503C7.71851 22.1503 -1.39247 25.5124 0.183095 31.6317C2.36178 40.0935 13.9058 35.2516 13.9058 35.2516C13.9058 35.2516 10.8422 45.4879 20.5464 47.9675C30.2505 50.447 30.8099 34.1983 30.8099 34.1983C30.8099 34.1983 42.1041 37.7734 43.354 29.9407C45.2456 18.0872 35.9407 17.8465 35.9407 17.8465C35.9407 17.8465 40.8618 5.23232 32.2426 0.996707C22.2337 -3.92183 21.4679 10.9624 20.5454 10.9624C19.6228 10.9624 13.3821 0.255054 5.6955 6.05561Z" transform="translate(443.245 298.863) rotate(144.994)" fill="#FCC2C1"/>
<path d="M12.8707 3.43132C12.8707 6.74768 10.1816 10.2939 6.86437 10.2939C3.54717 10.2939 0 8.46334 0 5.14697C0 1.83061 2.68912 0 6.00632 0C9.32353 0 12.8707 0.114955 12.8707 3.43132Z" transform="matrix(0.877616 0.479364 -0.484748 0.874654 409.283 286.96)" fill="#FFB0B1"/>
<path d="M8.86629 2.37697C8.86629 4.67431 7.01382 7.13091 4.72869 7.13091C2.44355 7.13091 0 5.86279 0 3.56545C0 1.26812 1.85247 0 4.1376 0C6.42273 0 8.86629 0.0796325 8.86629 2.37697Z" transform="matrix(-0.501335 -0.865254 0.866791 -0.498671 410.989 297.266)" fill="#FFF5F5"/>
<path d="M1.83757 10.6802C-3.22451 14.5002 4.89921 27.7012 4.89921 27.7012C4.89921 27.7012 -0.581779 33.0017 0.0508321 37.4583C0.959319 43.8584 10.9296 42.9055 10.9296 42.9055C10.9296 42.9055 11.3637 47.174 13.4026 48.1949C18.842 50.9185 26.202 42.2508 30.9448 36.0107C38.5113 26.0553 31.7953 -5.01814 20.6726 0.695534C16.1262 3.03097 15.0216 11.3598 14.3391 11.3598C13.6566 11.3598 8.32019 5.78828 1.83757 10.6802Z" transform="translate(390.142 244.339) rotate(84.0436)" fill="#FCC2C1"/>
<path d="M11.7538 3.13356C11.7538 6.16215 9.29807 9.40069 6.26872 9.40069C3.23936 9.40069 0 7.72893 0 4.70035C0 1.67176 2.45577 0 5.48513 0C8.51448 0 11.7538 0.10498 11.7538 3.13356Z" transform="matrix(0.955125 0.296202 -0.302066 0.953287 364.717 261.211)" fill="#FFB0B1"/>
<path d="M8.09691 2.17071C8.09691 4.26869 6.4052 6.51213 4.31835 6.51213C2.23151 6.51213 0 5.35405 0 3.25606C0 1.15808 1.69172 0 3.77856 0C5.8654 0 8.09691 0.0727224 8.09691 2.17071Z" transform="matrix(-0.662654 -0.748926 0.75096 -0.660348 368.107 270.127)" fill="#FFF5F5"/>
<path d="M4.59303 4.88343C-0.924866 9.04738 6.22445 17.8627 6.22445 17.8627C6.22445 17.8627 -1.12293 20.574 0.147654 25.5088C1.90461 32.3326 11.2141 28.428 11.2141 28.428C11.2141 28.428 8.74353 36.6829 16.5692 38.6825C24.3949 40.682 24.8461 27.5786 24.8461 27.5786C24.8461 27.5786 33.954 30.4616 34.962 24.1451C36.4875 14.5861 28.9837 14.392 28.9837 14.392C28.9837 14.392 32.9522 4.21951 26.0015 0.803776C17.93 -3.16269 17.3124 8.84044 16.5684 8.84044C15.8245 8.84044 10.7918 0.205683 4.59303 4.88343Z" transform="translate(208.337 93.8599) rotate(15.7172)" fill="#FCC2C1"/>
<path d="M10.3793 2.76712C10.3793 5.44154 8.21074 8.30136 5.53564 8.30136C2.86055 8.30136 0 6.8251 0 4.15068C0 1.47626 2.16859 0 4.84369 0C7.51878 0 10.3793 0.0927032 10.3793 2.76712Z" transform="matrix(-0.184519 -0.982829 0.983944 -0.178475 218.244 121.137)" fill="#FFB0B1"/>
<path d="M7.15005 1.91686C7.15005 3.76951 5.65616 5.75059 3.81336 5.75059C1.97056 5.75059 0 4.72794 0 2.87529C0 1.02265 1.49389 0 3.33669 0C5.17949 0 7.15005 0.0642181 7.15005 1.91686Z" transform="matrix(-0.352409 0.935846 -0.934758 -0.355285 223.807 114.812)" fill="#FFF5F5"/>
<path d="M5.77495 6.14008C-1.16286 11.3755 7.82619 22.4593 7.82619 22.4593C7.82619 22.4593 -1.4119 25.8683 0.18565 32.073C2.39473 40.6528 14.0998 35.7433 14.0998 35.7433C14.0998 35.7433 10.9935 46.1225 20.833 48.6366C30.6725 51.1507 31.2397 34.6754 31.2397 34.6754C31.2397 34.6754 42.6915 38.3003 43.9588 30.3584C45.8768 18.3396 36.4421 18.0955 36.4421 18.0955C36.4421 18.0955 41.4319 5.30532 32.6924 1.01061C22.5439 -3.97654 21.7674 11.1154 20.832 11.1154C19.8966 11.1154 13.5688 0.258612 5.77495 6.14008Z" transform="translate(285.377 68.752) scale(1 -1) rotate(-87.59)" fill="#FCC2C1"/>
<path d="M13.0502 3.47918C13.0502 6.84181 10.3236 10.4376 6.96013 10.4376C3.59665 10.4376 0 8.5814 0 5.21878C0 1.85615 2.72664 0 6.09012 0C9.45359 0 13.0502 0.116559 13.0502 3.47918Z" transform="matrix(-0.913969 -0.405784 -0.40016 0.916445 315.885 88.769)" fill="#FFB0B1"/>
<path d="M8.98997 2.41013C8.98997 4.73952 7.11166 7.23039 4.79465 7.23039C2.47764 7.23039 0 5.94458 0 3.61519C0 1.28581 1.87831 0 4.19532 0C6.51233 0 8.98997 0.0807434 8.98997 2.41013Z" transform="matrix(0.991833 -0.12754 -0.13059 -0.991436 306.535 93.7437)" fill="#FFF5F5"/>
<path d="M4.04304 4.29866C-0.814118 7.964 5.4791 15.7237 5.4791 15.7237C5.4791 15.7237 -0.988467 18.1104 0.129973 22.4542C1.67655 28.461 9.87124 25.0239 9.87124 25.0239C9.87124 25.0239 7.69653 32.2903 14.5851 34.0504C21.4737 35.8105 21.8709 24.2762 21.8709 24.2762C21.8709 24.2762 29.8882 26.814 30.7755 21.2538C32.1183 12.8395 25.513 12.6686 25.513 12.6686C25.513 12.6686 29.0064 3.71424 22.8879 0.707528C15.7829 -2.78397 15.2393 7.78184 14.5844 7.78184C13.9296 7.78184 9.49952 0.181054 4.04304 4.29866Z" transform="translate(262.282 150.458) rotate(-14.9046)" fill="#FCC2C1"/>
<path d="M9.13646 2.43577C9.13646 4.78994 7.22754 7.30731 4.87278 7.30731C2.51801 7.30731 0 6.00783 0 3.65366C0 1.29949 1.90891 0 4.26368 0C6.61844 0 9.13646 0.0816024 9.13646 2.43577Z" transform="matrix(-0.65941 -0.751783 0.755821 -0.654778 282.017 166.677)" fill="#FFB0B1"/>
<path d="M6.29386 1.68733C6.29386 3.31813 4.97886 5.06198 3.35673 5.06198C1.73459 5.06198 0 4.16179 0 2.53099C0 0.900192 1.315 0 2.93714 0C4.55927 0 6.29386 0.0565283 6.29386 1.68733Z" transform="matrix(0.173427 0.984847 -0.985375 0.170397 283.394 159.392)" fill="#FFF5F5"/>
<path d="M1.31513 7.77021C-2.30776 10.5494 3.50633 20.1535 3.50633 20.1535C3.50633 20.1535 -0.416375 24.0097 0.0363802 27.2521C0.686577 31.9084 7.82226 31.2151 7.82226 31.2151C7.82226 31.2151 8.13288 34.3206 9.59214 35.0633C13.4851 37.0448 18.7526 30.7388 22.147 26.1989C27.5623 18.9561 22.7556 -3.65085 14.7952 0.506023C11.5414 2.20513 10.7509 8.26464 10.2624 8.26464C9.77394 8.26464 5.95469 4.21116 1.31513 7.77021Z" transform="matrix(0.356227 -0.9344 0.939371 0.342903 232.174 247.555)" fill="#FCC2C1"/>
<path d="M8.48635 2.26043C8.48635 4.44514 6.71327 6.7813 4.52606 6.7813C2.33884 6.7813 0 5.57535 0 3.39065C0 1.20594 1.77309 0 3.9603 0C6.14751 0 8.48635 0.0757283 8.48635 2.26043Z" transform="matrix(-0.731081 -0.682291 0.702374 -0.711808 254.258 244.842)" fill="#FFB0B1"/>
<path d="M5.78794 1.58114C5.78794 3.10932 4.57864 4.74343 3.0869 4.74343C1.59516 4.74343 0 3.89989 0 2.37172C0 0.843543 1.2093 0 2.70104 0C4.19278 0 5.78794 0.052971 5.78794 1.58114Z" transform="matrix(0.265623 0.964077 -0.967684 0.252165 254.937 238.066)" fill="#FFF5F5"/>
<path d="M1.34729 7.96021C-2.36419 10.8073 3.59207 20.6463 3.59207 20.6463C3.59207 20.6463 -0.426556 24.5968 0.0372697 27.9185C0.703366 32.6886 8.01353 31.9784 8.01353 31.9784C8.01353 31.9784 8.33175 35.1598 9.82669 35.9207C13.8148 37.9506 19.2111 31.4904 22.6885 26.8395C28.2362 19.4196 23.3121 -3.74012 15.157 0.518396C11.8236 2.25905 11.0137 8.46673 10.5133 8.46673C10.0129 8.46673 6.1003 4.31413 1.34729 7.96021Z" transform="matrix(-0.102248 0.994759 -0.996112 -0.0880918 377.78 131.661)" fill="#FCC2C1"/>
<path d="M8.69386 2.31571C8.69386 4.55383 6.87742 6.94712 4.63673 6.94712C2.39603 6.94712 0 5.71168 0 3.47356C0 1.23543 1.81644 0 4.05714 0C6.29783 0 8.69386 0.07758 8.69386 2.31571Z" transform="matrix(0.88276 0.469825 -0.494212 0.869341 356.646 140.2)" fill="#FFB0B1"/>
<path d="M5.92946 1.61981C5.92946 3.18535 4.6906 4.85942 3.16238 4.85942C1.63416 4.85942 0 3.99525 0 2.42971C0 0.86417 1.23887 0 2.76708 0C4.2953 0 5.92946 0.0542663 5.92946 1.61981Z" transform="matrix(-0.506093 -0.862479 0.869446 -0.494028 357.771 147.085)" fill="#FFF5F5"/>
<path d="M1.34729 7.96021C-2.36419 10.8073 3.59207 20.6463 3.59207 20.6463C3.59207 20.6463 -0.426556 24.5968 0.0372697 27.9185C0.703366 32.6886 8.01353 31.9784 8.01353 31.9784C8.01353 31.9784 8.33175 35.1598 9.82669 35.9207C13.8148 37.9506 19.2111 31.4904 22.6885 26.8395C28.2362 19.4196 23.3121 -3.74012 15.157 0.518396C11.8236 2.25905 11.0137 8.46673 10.5133 8.46673C10.0129 8.46673 6.1003 4.31413 1.34729 7.96021Z" transform="matrix(-0.577358 0.816491 -0.824619 -0.565688 361.495 175.848)" fill="#FCC2C1"/>
<path d="M8.69386 2.31571C8.69386 4.55383 6.87742 6.94712 4.63673 6.94712C2.39603 6.94712 0 5.71168 0 3.47356C0 1.23543 1.81644 0 4.05714 0C6.29783 0 8.69386 0.07758 8.69386 2.31571Z" transform="matrix(0.538489 0.842633 -0.857294 0.514827 338.891 172.915)" fill="#FFB0B1"/>
<path d="M5.92946 1.61981C5.92946 3.18535 4.6906 4.85942 3.16238 4.85942C1.63416 4.85942 0 3.99525 0 2.42971C0 0.86417 1.23887 0 2.76708 0C4.2953 0 5.92946 0.0542663 5.92946 1.61981Z" transform="matrix(-0.0175863 -0.999845 0.999993 -0.0036548 336.491 179.465)" fill="#FFF5F5"/>
<path d="M7.52166 0.0733281C10.0507 0.366005 12.5215 3.57341 12.5215 3.57341C12.5215 3.57341 8.73073 9.13043 5.02148 8.57324C2.01762 8.12202 -0.245422 7.09907 0.0213717 4.07324C0.312924 0.766614 4.22421 -0.308276 7.52166 0.0733281Z" transform="translate(853 181.092)" fill="#FCC2C1"/>
<mask id="mask1" mask-type="alpha" maskUnits="userSpaceOnUse" x="853" y="181" width="13" height="9">
<path d="M7.52166 0.0733281C10.0507 0.366005 12.5215 3.57341 12.5215 3.57341C12.5215 3.57341 8.73073 9.13043 5.02148 8.57324C2.01762 8.12202 -0.245422 7.09907 0.0213717 4.07324C0.312924 0.766614 4.22421 -0.308276 7.52166 0.0733281Z" transform="translate(853 181.092)" fill="#FCC2C1"/>
</mask>
<g mask="url(#mask1)">
<path d="M5.40631 0.059599C7.22409 0.297478 9 2.90437 9 2.90437C9 2.90437 6.27536 7.42095 3.60927 6.96809C1.4502 6.60134 -0.176401 5.76992 0.0153612 3.31062C0.224919 0.623082 3.03622 -0.250558 5.40631 0.059599Z" transform="translate(857.521 181.165)" fill="#FFB0B1"/>
</g>
<path d="M10.0883 0.0983497C13.4803 0.490896 16.7941 4.79276 16.7941 4.79276C16.7941 4.79276 11.7099 12.246 6.73495 11.4987C2.70609 10.8935 -0.329166 9.52147 0.0286643 5.46315C0.419702 1.0282 5.66562 -0.413468 10.0883 0.0983497Z" transform="translate(856 386.818) rotate(-35.3927)" fill="#FCC2C1"/>
<mask id="mask2" mask-type="alpha" maskUnits="userSpaceOnUse" x="855" y="377" width="22" height="20">
<path d="M10.0883 0.0983497C13.4803 0.490896 16.7941 4.79276 16.7941 4.79276C16.7941 4.79276 11.7099 12.246 6.73495 11.4987C2.70609 10.8935 -0.329166 9.52147 0.0286643 5.46315C0.419702 1.0282 5.66562 -0.413468 10.0883 0.0983497Z" transform="translate(856 386.818) rotate(-35.3927)" fill="#FCC2C1"/>
</mask>
<g mask="url(#mask2)">
<path d="M7.2511 0.0799358C9.68916 0.398986 12.0711 3.89542 12.0711 3.89542C12.0711 3.89542 8.41668 9.95319 4.84086 9.34579C1.94504 8.85391 -0.236594 7.73878 0.0206029 4.44029C0.301668 0.835695 4.07226 -0.336055 7.2511 0.0799358Z" transform="translate(861 383.386) rotate(-35.3927)" fill="#FFB0B1"/>
</g>
<path d="M10.0883 0.0983497C13.4803 0.490896 16.7941 4.79276 16.7941 4.79276C16.7941 4.79276 11.7099 12.246 6.73495 11.4987C2.70609 10.8935 -0.329166 9.52147 0.0286643 5.46315C0.419702 1.0282 5.66562 -0.413468 10.0883 0.0983497Z" transform="translate(598.018 424.106) rotate(-60.3671)" fill="#FCC2C1"/>
<mask id="mask3" mask-type="alpha" maskUnits="userSpaceOnUse" x="598" y="409" width="19" height="21">
<path d="M10.0883 0.0983497C13.4803 0.490896 16.7941 4.79276 16.7941 4.79276C16.7941 4.79276 11.7099 12.246 6.73495 11.4987C2.70609 10.8935 -0.329166 9.52147 0.0286643 5.46315C0.419702 1.0282 5.66562 -0.413468 10.0883 0.0983497Z" transform="translate(598.018 424.106) rotate(-60.3671)" fill="#FCC2C1"/>
</mask>
<g mask="url(#mask3)">
<path d="M7.2511 0.0799358C9.68916 0.398986 12.0711 3.89542 12.0711 3.89542C12.0711 3.89542 8.41668 9.95319 4.84086 9.34579C1.94504 8.85391 -0.236594 7.73878 0.0206029 4.44029C0.301668 0.835695 4.07226 -0.336055 7.2511 0.0799358Z" transform="translate(601.102 418.884) rotate(-60.3671)" fill="#FFB0B1"/>
</g>
<path d="M10.0883 0.0983497C13.4803 0.490896 16.7941 4.79276 16.7941 4.79276C16.7941 4.79276 11.7099 12.246 6.73495 11.4987C2.70609 10.8935 -0.329166 9.52147 0.0286643 5.46315C0.419702 1.0282 5.66562 -0.413468 10.0883 0.0983497Z" transform="translate(528.004 319.092) rotate(60)" fill="#FCC2C1"/>
<mask id="mask4" mask-type="alpha" maskUnits="userSpaceOnUse" x="518" y="319" width="19" height="21">
<path d="M10.0883 0.0983497C13.4803 0.490896 16.7941 4.79276 16.7941 4.79276C16.7941 4.79276 11.7099 12.246 6.73495 11.4987C2.70609 10.8935 -0.329166 9.52147 0.0286643 5.46315C0.419702 1.0282 5.66562 -0.413468 10.0883 0.0983497Z" transform="translate(528.004 319.092) rotate(60)" fill="#FCC2C1"/>
</mask>
<g mask="url(#mask4)">
<path d="M7.2511 0.0799358C9.68916 0.398986 12.0711 3.89542 12.0711 3.89542C12.0711 3.89542 8.41668 9.95319 4.84086 9.34579C1.94504 8.85391 -0.236594 7.73878 0.0206029 4.44029C0.301668 0.835695 4.07226 -0.336055 7.2511 0.0799358Z" transform="translate(530.951 324.393) rotate(60)" fill="#FFB0B1"/>
</g>
<path d="M10.0883 0.0983497C13.4803 0.490896 16.7941 4.79276 16.7941 4.79276C16.7941 4.79276 11.7099 12.246 6.73495 11.4987C2.70609 10.8935 -0.329166 9.52147 0.0286643 5.46315C0.419702 1.0282 5.66562 -0.413468 10.0883 0.0983497Z" transform="translate(473.312 387.289) rotate(40.0593)" fill="#FCC2C1"/>
<mask id="mask5" mask-type="alpha" maskUnits="userSpaceOnUse" x="465" y="387" width="22" height="20">
<path d="M10.0883 0.0983497C13.4803 0.490896 16.7941 4.79276 16.7941 4.79276C16.7941 4.79276 11.7099 12.246 6.73495 11.4987C2.70609 10.8935 -0.329166 9.52147 0.0286643 5.46315C0.419702 1.0282 5.66562 -0.413468 10.0883 0.0983497Z" transform="translate(473.312 387.289) rotate(40.0593)" fill="#FCC2C1"/>
</mask>
<g mask="url(#mask5)">
<path d="M7.2511 0.0799358C9.68916 0.398986 12.0711 3.89542 12.0711 3.89542C12.0711 3.89542 8.41668 9.95319 4.84086 9.34579C1.94504 8.85391 -0.236594 7.73878 0.0206029 4.44029C0.301668 0.835695 4.07226 -0.336055 7.2511 0.0799358Z" transform="translate(477.89 391.267) rotate(40.0593)" fill="#FFB0B1"/>
</g>
<path d="M10.0883 0.0983497C12.7198 0.402891 15.3043 3.06038 16.3309 4.23664C16.6154 4.56259 16.6308 5.03022 16.3692 5.37477C15.0481 7.1144 10.8541 12.1174 6.73495 11.4987C2.70609 10.8935 -0.329166 9.52147 0.0286643 5.46315C0.419702 1.0282 5.66562 -0.413468 10.0883 0.0983497Z" transform="translate(341.636 271.205) rotate(41.9418)" fill="#FCC2C1"/>
<mask id="mask6" mask-type="alpha" maskUnits="userSpaceOnUse" x="333" y="271" width="21" height="20">
<path d="M10.0883 0.0983497C12.7198 0.402891 15.3043 3.06038 16.3309 4.23664C16.6154 4.56259 16.6308 5.03022 16.3692 5.37477C15.0481 7.1144 10.8541 12.1174 6.73495 11.4987C2.70609 10.8935 -0.329166 9.52147 0.0286643 5.46315C0.419702 1.0282 5.66562 -0.413468 10.0883 0.0983497Z" transform="translate(341.636 271.205) rotate(41.9418)" fill="#FCC2C1"/>
</mask>
<g mask="url(#mask6)">
<path d="M7.2511 0.0799358C9.68916 0.398986 12.0711 3.89542 12.0711 3.89542C12.0711 3.89542 8.41668 9.95319 4.84086 9.34579C1.94504 8.85391 -0.236594 7.73878 0.0206029 4.44029C0.301668 0.835695 4.07226 -0.336055 7.2511 0.0799358Z" transform="translate(346.081 275.332) rotate(41.9418)" fill="#FFB0B1"/>
</g>
<path d="M8.19885 0.07993C10.9556 0.398957 13.6488 3.89513 13.6488 3.89513C13.6488 3.89513 9.51678 9.95246 5.47358 9.34511C2.19927 8.85326 -0.267518 7.73822 0.0232958 4.43997C0.341097 0.835634 4.60452 -0.336031 8.19885 0.07993Z" transform="translate(320.053 197.554) rotate(5.64228)" fill="#FCC2C1"/>
<mask id="mask7" mask-type="alpha" maskUnits="userSpaceOnUse" x="319" y="197" width="15" height="12">
<path d="M8.19885 0.07993C10.9556 0.398957 13.6488 3.89513 13.6488 3.89513C13.6488 3.89513 9.51678 9.95246 5.47358 9.34511C2.19927 8.85326 -0.267518 7.73822 0.0232958 4.43997C0.341097 0.835634 4.60452 -0.336031 8.19885 0.07993Z" transform="translate(320.053 197.554) rotate(5.64228)" fill="#FCC2C1"/>
</mask>
<g mask="url(#mask7)">
<path d="M5.89306 0.0649648C7.8745 0.324261 9.81029 3.16585 9.81029 3.16585C9.81029 3.16585 6.84034 8.08908 3.93423 7.59544C1.58076 7.19568 -0.192283 6.2894 0.0167443 3.60868C0.245169 0.67918 3.30958 -0.273116 5.89306 0.0649648Z" transform="translate(324.95 198.118) rotate(5.64228)" fill="#FFB0B1"/>
</g>
<path d="M7.49595 0.0730775C10.0163 0.364754 12.4787 3.5612 12.4787 3.5612C12.4787 3.5612 8.7009 9.09923 5.00432 8.54395C2.01072 8.09426 -0.244583 7.07481 0.0212987 4.05932C0.311854 0.763995 4.20977 -0.307222 7.49595 0.0730775Z" transform="translate(384.883 136.092) rotate(53.3158)" fill="#FCC2C1"/>
<mask id="mask8" mask-type="alpha" maskUnits="userSpaceOnUse" x="377" y="136" width="16" height="16">
<path d="M7.49595 0.0730775C10.0163 0.364754 12.4787 3.5612 12.4787 3.5612C12.4787 3.5612 8.7009 9.09923 5.00432 8.54395C2.01072 8.09426 -0.244583 7.07481 0.0212987 4.05932C0.311854 0.763995 4.20977 -0.307222 7.49595 0.0730775Z" transform="translate(384.883 136.092) rotate(53.3158)" fill="#FCC2C1"/>
</mask>
<g mask="url(#mask8)">
<path d="M5.38784 0.0593953C7.19941 0.296462 8.96925 2.89444 8.96925 2.89444C8.96925 2.89444 6.25391 7.39559 3.59694 6.94428C1.44524 6.57879 -0.175798 5.7502 0.0153088 3.2993C0.22415 0.620953 3.02584 -0.249702 5.38784 0.0593953Z" transform="translate(387.516 139.749) rotate(53.3158)" fill="#FFB0B1"/>
</g>
<path d="M6.41222 0.0625123C8.56822 0.31202 10.6746 3.04634 10.6746 3.04634C10.6746 3.04634 7.44296 7.7837 4.28082 7.3087C1.72002 6.92403 -0.209222 6.05197 0.0182194 3.47245C0.266768 0.65354 3.60114 -0.262806 6.41222 0.0625123Z" transform="translate(222.659 78.1387) rotate(34.655)" fill="#FCC2C1"/>
<mask id="mask9" mask-type="alpha" maskUnits="userSpaceOnUse" x="218" y="78" width="14" height="13">
<path d="M6.41222 0.0625123C8.56822 0.31202 10.6746 3.04634 10.6746 3.04634C10.6746 3.04634 7.44296 7.7837 4.28082 7.3087C1.72002 6.92403 -0.209222 6.05197 0.0182194 3.47245C0.266768 0.65354 3.60114 -0.262806 6.41222 0.0625123Z" transform="translate(222.659 78.1387) rotate(34.655)" fill="#FCC2C1"/>
</mask>
<g mask="url(#mask9)">
<path d="M4.60889 0.0508082C6.15855 0.253601 7.67252 2.47598 7.67252 2.47598C7.67252 2.47598 5.34975 6.32637 3.07691 5.94031C1.2363 5.62766 -0.150382 4.91887 0.0130955 2.8223C0.191744 0.531179 2.58838 -0.213601 4.60889 0.0508082Z" transform="translate(225.794 80.3818) rotate(34.655)" fill="#FFB0B1"/>
</g>
<path d="M11.6709 0.113779C15.5951 0.56791 19.4289 5.54467 19.4289 5.54467C19.4289 5.54467 13.547 14.1672 7.79156 13.3026C3.13063 12.6025 -0.380807 11.0152 0.0331613 6.32023C0.485547 1.18951 6.55447 -0.478335 11.6709 0.113779Z" transform="translate(388.714 163.092) rotate(25.313)" fill="#FCC2C1"/>
<mask id="mask10" mask-type="alpha" maskUnits="userSpaceOnUse" x="383" y="163" width="24" height="21">
<path d="M11.6709 0.113779C15.5951 0.56791 19.4289 5.54467 19.4289 5.54467C19.4289 5.54467 13.547 14.1672 7.79156 13.3026C3.13063 12.6025 -0.380807 11.0152 0.0331613 6.32023C0.485547 1.18951 6.55447 -0.478335 11.6709 0.113779Z" transform="translate(388.714 163.092) rotate(25.313)" fill="#FCC2C1"/>
</mask>
<g mask="url(#mask10)">
<path d="M8.38868 0.0924765C11.2092 0.461581 13.9648 4.50655 13.9648 4.50655C13.9648 4.50655 9.73713 11.5147 5.60032 10.812C2.25019 10.2429 -0.273712 8.95288 0.0238352 5.1369C0.348995 0.966803 4.71113 -0.388777 8.38868 0.0924765Z" transform="translate(395.007 166.194) rotate(25.313)" fill="#FFB0B1"/>
</g>
</svg>
