<svg width="1305" height="821" viewBox="0 0 1305 821" fill="none" xmlns="http://www.w3.org/2000/svg">
<path d="M1108.56 237C1108.57 363.816 1292.02 404.917 1281.56 529C1259.56 790 875.956 863.84 450.561 797C332.226 778.407 206.261 708.545 111.561 601C-53.4283 413.632 -5.93909 167 66.5608 5.15988e-05C504.821 -6.44985e-05 1281.56 5.15988e-05 1281.56 5.15988e-05C1281.56 5.15988e-05 1108.55 127.975 1108.56 237Z" transform="translate(22.4391)" fill="#D2DAFF"/>
<path d="M41.9948 23.9099C41.9948 23.9099 40.8294 77.9301 40.8294 83.0749C40.8294 83.0749 31.5465 85.7526 22.9606 91.048C18.2656 93.9438 13.2345 97.9241 11.3071 100.051C5.09181 106.911 9.36469 142.669 10.1416 158.532C10.6809 169.544 11.8851 182.97 6.25706 202.263C2.82753 214.02 5.31988 229.15 2.76109 244.279C-2.67715 276.435 1.59573 281.579 1.59573 281.579H59.4752C59.4752 281.579 28.7047 222.298 25.2914 180.827C25.1124 178.653 24.9248 177.61 24.9804 175.434C25.4907 155.46 62.7941 172.095 76.5672 155.96C105.313 124.234 88.6092 85.6479 88.6092 85.6479V51.6651C88.6092 51.6651 91.5137 21.626 84.3362 10.6183C77.9016 0.749958 67.2443 -1.38571 55.5907 0.75803C46.5963 2.41259 41.9948 23.9099 41.9948 23.9099Z" transform="translate(12.2126 165.261)" fill="#FCFDFF"/>
<path d="M1.3998 23.646C0.848863 17.9479 -0.451968 14.9444 0.160213 10.6219C0.273911 9.81907 1.3998 4.92381 1.3998 4.92381C1.3998 4.92381 41.0509 -8.29591 43.1333 8.58708C43.7253 13.3859 42.5979 18.0479 41.8937 22.832C40.8684 29.7978 40.6345 33.7466 39.8277 40.7402C39.0209 47.7338 38.0379 51.6151 37.7617 58.6484C37.6182 62.3014 37.6827 64.1923 37.7617 68.0095C37.8373 71.6645 38.0598 74.1237 38.1749 77.7777C38.3961 84.7967 39.1678 88.687 39.0013 95.6859C38.8914 100.305 38.6566 105.618 38.1749 111.966C37.5094 120.735 34.5 145 34.5 145L13.7959 107.489C13.7959 107.489 13.5852 98.4885 12.5563 92.8368C11.9414 89.4596 11.5074 87.6134 10.4903 84.2897C9.41512 80.7763 8.09128 78.8948 7.18465 75.3356C6.34514 72.0399 6.02244 70.2262 5.53183 66.7885C5.03764 63.3258 4.79228 61.3302 4.70543 57.8344C4.5392 51.1437 4.10929 47.4028 3.46582 40.7402C2.81944 34.0476 1.95074 29.3441 1.3998 23.646Z" transform="translate(75.3297 441.994)" fill="#FCFDFF"/>
<path d="M1.43569 24.2323C0.870628 18.3929 -0.463557 15.3149 0.164321 10.8852C0.280935 10.0625 1.43569 5.04589 1.43569 5.04589C1.43569 5.04589 42.1035 -8.5016 44.2393 8.79999C44.8464 13.7178 43.6902 18.4953 42.9679 23.3981C41.9163 30.5366 41.6765 34.5833 40.8489 41.7503C40.0214 48.9173 39.0132 52.8948 38.7299 60.1025C38.5828 63.8461 38.649 65.7839 38.7299 69.6957C38.8075 73.4413 39.0356 75.9615 39.1537 79.706C39.3806 86.8991 40.1721 90.8858 40.0013 98.0583C39.8886 102.792 39.6478 108.237 39.1537 114.742C38.4712 123.729 36.611 137.682 36.611 137.682L14.1496 110.154C14.1496 110.154 13.9336 100.93 12.8782 95.1386C12.2476 91.6776 11.8024 89.7857 10.7593 86.3796C9.65654 82.7791 8.29875 80.8509 7.36887 77.2035C6.50784 73.826 6.17686 71.9673 5.67368 68.4444C5.16681 64.8958 4.91516 62.8508 4.82608 59.2683C4.65559 52.4117 4.21466 48.5781 3.55468 41.7503C2.89174 34.8917 2.00076 30.0716 1.43569 24.2323Z" transform="translate(69.9448 451.729) scale(-1 1)" fill="#FCFDFF"/>
<path d="M23.2589 120.885C16.0395 119.75 6.15558 117.428 1.98487 116.418C0.892357 116.154 0.246637 115.044 0.550078 113.961C1.51431 110.522 3.55622 103.301 5.12483 98.1834C12.5501 73.957 13.7407 59.3144 24.0473 36.2729C27.6692 28.1759 30.5934 23.9537 33.9027 15.636C35.8426 10.7604 37.3707 3.08893 40.9987 1.18992C46.9119 -1.90528 77.2667 2.01591 77.2667 2.01591C77.2667 2.01591 102.891 3.66693 104.074 6.14336C105.059 8.20705 104.635 10.8425 104.862 13.5723C105.092 16.3444 106.759 20.8751 108.016 25.542C112.603 42.5706 115.69 50.0685 120.631 68.8795C125.549 87.6065 129.493 113.979 130.555 121.39C130.714 122.499 129.919 123.502 128.807 123.636C117.593 124.984 112.875 125.965 102.048 126.449C74.3236 127.687 50.1834 125.115 23.2589 120.885Z" transform="translate(0 343.01) rotate(-2.95921)" fill="#A8BCFE"/>
<path d="M40.4273 11.6356C38.5897 6.85214 36.8443 5.31753 33.0769 2.86589C31.6042 1.90752 26.4615 0.398845 23.8889 0C18.7436 0 14.3333 0.0754215 14.3333 0.0754215L0 15.2232L22.0265 47.7064L24.2564 79.0033C24.2564 79.0033 23.9815 89.7906 23.8889 94.1511C23.7202 102.088 24.1308 105.743 23.8889 113.684C23.5832 123.719 22.4963 129.255 21.3162 139.196C20.0746 149.655 20.8202 161.146 17.641 165.904C15.6765 168.844 15.0244 170.193 13.5983 173.477C12.3602 176.329 11.9233 178.003 11.3932 181.051C10.7209 184.917 10.2906 191.34 14.3333 198.515C17.641 204.386 22.8747 203.376 24.2564 201.704C24.2564 201.704 27.0338 198.058 28.2991 193.732C29.5685 189.392 29.6612 185.17 29.7608 180.637L29.7692 180.254C29.8279 177.608 29.6712 176.122 29.7692 173.477C29.9315 169.097 30.3332 164.099 30.8718 161.12C34.547 140.79 38.7726 125.253 40.4273 108.502C40.9957 102.748 40.7949 98.1375 41.1624 92.1579C41.9168 79.883 41.8235 71.9992 42.265 59.0722C42.6325 48.3094 43 42.3097 43 31.5671C43 21.6015 41.3806 14.117 40.4273 11.6356Z" transform="translate(92.3297 254.994)" fill="#FCFDFF"/>
<path d="M60.6897 28.3124C67.167 16.0578 79.3454 1.42133 79.3454 1.42133C79.3454 1.42133 80.9184 0.915627 82.4184 1.00921C84.339 1.12902 85.4913 1.83335 85.4913 1.83335C85.4913 1.83335 86.9134 23.4781 84.8265 38.548C81.685 61.2338 70.6115 90.3881 70.6115 90.3881C70.6115 90.3881 59.5372 100.621 38.4112 97.3246C26.1703 95.4145 13.1147 102.682 7.68224 89.0831C0.768243 71.776 0.0348222 58.5439 8.45936e-05 38.548C-0.0222152 25.7117 4.37176 3.29659 4.37176 3.29659C4.37176 3.29659 6.18523 1.92856 7.44465 1.23622C8.46134 0.677321 10.1334 0 10.1334 0C10.1334 0 20.0248 15.1027 26.5038 28.3124C32.7363 41.0193 43.0206 69.3036 43.0206 69.3036C43.0206 69.3036 53.0886 42.6931 60.6897 28.3124Z" transform="translate(34.2335 250.944) rotate(1.87042)" fill="#B8C9FF"/>
<path d="M66.4697 17.3381C66.1447 22.3162 60.3836 28.7228 60.3836 28.7228C60.3836 28.7228 45.4926 19.6591 37.1798 24.5625C29.4872 29.1002 26.6406 36.2658 26.2015 45.3358C25.8121 53.3785 33.804 56.4479 33.8131 64.5C33.8207 71.221 24.8497 75.2691 28.5435 80.8846C29.9954 83.0917 32.2224 83.9674 33.7888 86.0948C37.2795 90.8354 36.0467 96.3839 34.2523 100.195C33.0812 102.682 29.4218 105.315 29.4218 105.315C29.4218 105.315 22.9211 108.519 19.029 109.704C15.307 110.837 12.1722 112.447 8.92904 111.021C1.61014 107.802 -2.51171e-05 102.097 0 98.7321C4.04066e-05 93.3194 7.51898 87.9996 8.48987 80.8846C8.92904 77.6662 4.97686 72.985 4.97686 65.0852C4.97686 57.1854 9.97565 55.5763 10.1 49.8709C10.1829 46.0674 6.97546 43.2879 7.17251 38.7528C7.45314 32.2941 12.6996 31.3287 15.3696 25.4403C17.7972 20.0866 14.8069 18.5646 19.9073 10.9574C24.0268 4.81324 27.8877 4.31168 34.199 2.12915C43.128 -0.95863 48.5111 -0.907505 55.8628 3.73845C61.8126 7.49849 66.9281 10.3177 66.4697 17.3381Z" transform="translate(127.364 154.71) scale(-1 0.999998) rotate(-6.67985)" fill="#FFA7B0"/>
<path d="M24.5191 16.9052C22.2981 9.84369 15.5921 -1.05085 10.5391 0.0817282C4.64692 1.40241 6.88194 3.4079 5.51726 8.17402C5.51726 8.17402 12.7106 11.8074 13.7394 18.8468C14.3727 23.1804 12.7755 26.7674 12.7288 31.1408C12.6793 35.7629 14.8023 37.8699 14.9184 42.7886C15.1305 51.7785 12.5145 57.5142 7.50734 65.1124C5.326 68.4224 2.45425 69.2835 1.10689 73.0391C-1.20521 79.4837 0.0351939 85.0579 5.48614 90.0253C10.4509 94.5496 22.3294 93.4224 22.3294 93.4224C22.3294 93.4224 31.8609 89.556 33.1091 83.5545C34.3798 77.4453 28.3695 75.8996 27.8877 69.6423C27.4642 64.1422 34.2882 61.2303 35.1303 52.0095C35.9725 42.7886 27.6183 40.3136 25.8665 31.6265C24.7659 26.1686 26.3285 22.6583 24.5191 16.9052Z" transform="translate(70.7173 167.633) scale(-1 1)" fill="#FFA7B0"/>
</svg>
