<svg width="1143" height="1052" viewBox="0 0 1143 1052" fill="none" xmlns="http://www.w3.org/2000/svg">
<rect width="1142.12" height="1050.87" fill="black" fill-opacity="0" transform="translate(0.68042 0.791992)"/>
<path d="M530.679 7.77353C762.618 -21.9471 1019.04 42.6376 1104.68 212.773C1208.45 418.921 1086.3 839.656 907.679 974.273C766.379 1080.77 457.858 1080.13 278.055 955.049C73.5731 812.798 -48.652 527.567 64.1793 323.274C142.728 181.052 315.289 35.3736 530.679 7.77353Z" fill="#D2DAFF"/>
<rect width="137.207" height="442.436" fill="black" fill-opacity="0" transform="translate(0.68042 372.753)"/>
<path d="M54.8879 414.948C54.8879 414.948 53.7224 468.968 53.7224 474.113C53.7224 474.113 44.4395 476.791 35.8537 482.086C31.1587 484.982 26.1276 488.962 24.2001 491.09C17.9849 497.949 22.2578 533.707 23.0347 549.571C23.574 560.582 24.7782 574.008 19.1501 593.301C15.7206 605.058 18.213 620.188 15.6542 635.318C10.2159 667.473 14.4888 672.617 14.4888 672.617H72.3683C72.3683 672.617 41.5978 613.336 38.1844 571.865C38.0055 569.691 37.8179 568.648 37.8735 566.472C38.3838 546.498 75.6872 563.133 89.4602 546.998C118.206 515.272 101.502 476.686 101.502 476.686V442.703C101.502 442.703 104.407 412.664 97.2293 401.656C90.7947 391.788 80.1374 389.652 68.4838 391.796C59.4894 393.451 54.8879 414.948 54.8879 414.948Z" fill="#FCFDFF"/>
<path d="M77.4101 691.417C76.8591 685.719 75.5583 682.715 76.1705 678.393C76.2842 677.59 77.4101 672.695 77.4101 672.695C77.4101 672.695 117.061 659.475 119.144 676.358C119.736 681.157 118.608 685.819 117.904 690.603C116.879 697.569 116.645 701.518 115.838 708.511C115.031 715.505 114.048 719.386 113.772 726.419C113.628 730.072 113.693 731.963 113.772 735.781C113.848 739.436 114.07 741.895 114.185 745.549C114.406 752.568 115.178 756.458 115.012 763.457C114.902 768.076 114.667 773.389 114.185 779.737C113.52 788.506 110.51 812.771 110.51 812.771L89.8062 775.26C89.8062 775.26 89.5955 766.26 88.5665 760.608C87.9517 757.231 87.5176 755.384 86.5005 752.061C85.4254 748.547 84.1015 746.666 83.1949 743.107C82.3554 739.811 82.0327 737.997 81.5421 734.56C81.0479 731.097 80.8025 729.101 80.7157 725.605C80.5495 718.915 80.1195 715.174 79.4761 708.511C78.8297 701.819 77.961 697.115 77.4101 691.417Z" fill="#FCFDFF"/>
<path d="M69.1896 701.739C69.7546 695.899 71.0888 692.821 70.4609 688.392C70.3443 687.569 69.1896 682.552 69.1896 682.552C69.1896 682.552 28.5218 669.005 26.3859 686.306C25.7788 691.224 26.9351 696.002 27.6573 700.904C28.7089 708.043 28.9488 712.09 29.7763 719.257C30.6038 726.424 31.612 730.401 31.8953 737.609C32.0424 741.352 31.9763 743.29 31.8953 747.202C31.8178 750.948 31.5896 753.468 31.4715 757.212C31.2446 764.405 30.4531 768.392 30.6239 775.565C30.7366 780.298 30.9774 785.743 31.4715 792.248C32.154 801.235 34.0143 815.189 34.0143 815.189L56.4756 787.66C56.4756 787.66 56.6917 778.437 57.747 772.645C58.3776 769.184 58.8228 767.292 59.866 763.886C60.9687 760.285 62.3265 758.357 63.2564 754.71C64.1174 751.332 64.4484 749.474 64.9516 745.951C65.4584 742.402 65.7101 740.357 65.7992 736.775C65.9697 729.918 66.4106 726.084 67.0706 719.257C67.7335 712.398 68.6245 707.578 69.1896 701.739Z" fill="#FCFDFF"/>
<path d="M30.1489 688.31C20.7052 687.322 6.66537 684.564 6.66537 684.564C6.66537 684.564 9.10106 673.616 10.8671 666.575C17.0318 641.998 17.4649 627.313 26.5682 603.77C29.7673 595.497 32.4697 591.13 35.3452 582.652C37.0307 577.683 38.1607 569.943 41.6859 567.859C47.4315 564.463 77.9482 566.812 77.9482 566.812C77.9482 566.812 103.623 567.138 104.932 569.55C106.023 571.56 105.736 574.214 106.103 576.929C106.476 579.685 108.374 584.124 109.871 588.72C115.331 605.489 118.801 612.817 124.706 631.348C131.609 653.009 137.714 685.266 137.714 685.266C125.091 687.391 120.537 688.697 109.121 689.8C81.4968 692.468 57.256 691.145 30.1489 688.31Z" fill="url(#paint0_linear)"/>
<path d="M133.438 492.407C131.6 487.623 129.855 486.089 126.087 483.637C124.614 482.679 119.472 481.17 116.899 480.771C111.754 480.771 107.344 480.846 107.344 480.846L93.0103 495.994L115.037 528.477L117.267 559.774C117.267 559.774 116.992 570.562 116.899 574.922C116.73 582.859 117.141 586.514 116.899 594.455C116.593 604.49 115.507 610.026 114.326 619.967C113.085 630.426 113.83 641.917 110.651 646.675C108.687 649.615 108.035 650.964 106.609 654.248C105.37 657.1 104.934 658.774 104.403 661.822C103.731 665.688 103.301 672.111 107.344 679.286C110.651 685.157 115.885 684.147 117.267 682.475C117.267 682.475 120.044 678.829 121.309 674.503C122.579 670.163 122.671 665.941 122.771 661.408L122.779 661.025C122.838 658.379 122.682 656.893 122.779 654.248C122.942 649.868 123.343 644.87 123.882 641.891C127.557 621.561 131.783 606.024 133.438 589.273C134.006 583.519 133.805 578.909 134.173 572.929C134.927 560.654 134.834 552.77 135.275 539.843C135.643 529.08 136.01 523.081 136.01 512.338C136.01 502.372 134.391 494.888 133.438 492.407Z" fill="#FCFDFF"/>
<path d="M94.6473 507C101.521 494.964 114.171 480.732 114.171 480.732C114.171 480.732 115.759 480.278 117.256 480.421C119.171 480.603 120.3 481.345 120.3 481.345C120.3 481.345 121.015 503.025 118.437 518.018C114.557 540.59 102.538 569.367 102.538 569.367C102.538 569.367 91.1354 579.233 70.1282 575.248C57.9561 572.94 44.6703 579.777 39.6846 566.008C33.3392 548.485 33.038 535.236 33.656 515.249C34.0526 502.419 39.1759 480.159 39.1759 480.159C39.1759 480.159 41.033 478.851 42.3144 478.2C43.3488 477.675 45.0421 477.052 45.0421 477.052C45.0421 477.052 54.4352 492.47 60.4797 505.884C66.294 518.788 75.6497 547.393 75.6497 547.393C75.6497 547.393 86.5809 521.125 94.6473 507Z" fill="#5153DE"/>
<rect width="91.8364" height="118.558" fill="black" fill-opacity="0" transform="translate(36.2078 372.753)"/>
<path d="M60.0088 389.977C59.7526 394.959 64.7294 401.992 64.7294 401.992C64.7294 401.992 80.5736 394.722 88.2596 400.559C95.3721 405.96 97.3658 413.408 96.747 422.468C96.1982 430.501 87.9034 432.62 86.9578 440.617C86.1685 447.291 94.6077 452.355 90.2857 457.503C88.587 459.526 86.2732 460.137 84.47 462.068C80.4516 466.37 81.0306 472.024 82.3695 476.018C83.2433 478.625 86.5716 481.666 86.5716 481.666C86.5716 481.666 92.6555 485.604 96.3833 487.233C99.9483 488.792 102.875 490.755 106.262 489.716C113.905 487.37 116.168 481.891 116.559 478.549C117.189 473.173 110.34 467.015 110.203 459.835C110.141 456.588 114.611 452.398 115.53 444.552C116.449 436.706 111.672 434.526 112.212 428.845C112.572 425.058 116.081 422.67 116.413 418.143C116.885 411.695 111.787 410.126 109.82 403.967C108.031 398.368 111.178 397.204 106.997 389.055C103.621 382.473 99.8442 381.526 93.8296 378.624C85.3204 374.519 79.9679 373.944 72.1257 377.703C65.7789 380.746 60.3701 382.951 60.0088 389.977Z" fill="#FFA7B0"/>
<path d="M46.8784 410.315C49.0993 403.254 55.8053 392.359 60.8583 393.492C66.7505 394.813 64.5155 396.818 65.8802 401.584C65.8802 401.584 58.6869 405.218 57.6581 412.257C57.0248 416.591 58.6219 420.178 58.6687 424.551C58.7181 429.173 56.5951 431.28 56.4791 436.199C56.267 445.189 58.8829 450.924 63.8901 458.523C66.0715 461.833 68.9432 462.694 70.2906 466.449C72.6027 472.894 71.3623 478.468 65.9113 483.435C60.9465 487.96 49.068 486.833 49.068 486.833C49.068 486.833 39.5366 482.966 38.2883 476.965C37.0177 470.855 43.028 469.31 43.5097 463.052C43.9332 457.552 37.1093 454.64 36.2671 445.42C35.425 436.199 43.7791 433.724 45.5309 425.037C46.6316 419.579 45.069 416.068 46.8784 410.315Z" fill="#FFA7B0"/>
<defs>
<linearGradient id="paint0_linear" x1="-2.02711" y1="568.927" x2="215.687" y2="585.25" gradientUnits="userSpaceOnUse">
<stop stop-color="#6563F3"/>
<stop offset="1" stop-color="#6A6EF4"/>
</linearGradient>
</defs>
</svg>
