<svg width="593" height="520" viewBox="0 0 593 520" fill="none" xmlns="http://www.w3.org/2000/svg">
<rect width="593" height="520" fill="black" fill-opacity="0"/>
<circle cx="218" cy="218" r="218" fill="#FFF5F5"/>
<circle cx="218" cy="218" r="218" fill="url(#paint0_linear)"/>
<path d="M12 498.227V520H593L591.982 87.2728C591.982 87.2728 452.388 111.456 388.989 65.4076C382.873 60.9661 376.956 51.2214 373.815 45.4819C372.335 42.7785 369.532 41.008 366.45 41.006L362.924 41.0038C359.39 41.0015 356.207 43.2745 354.466 46.35C344.82 63.3883 301.598 115.973 131.831 128.091C157.25 171.636 284.344 197.038 284.344 197.038V218.811C284.344 218.811 262.556 247.841 135.463 258.727C171.775 295.015 240.769 309.53 240.769 309.53V367.591L157.25 418.394H117.306V432.909H95.5188V454.682H66.4688V476.454H41.05V498.227H12Z" fill="url(#paint1_linear)"/>
<path d="M471.655 347.605L473.413 354.601C473.731 355.863 472.776 357.088 471.474 357.088H399.154C397.852 357.088 396.897 355.863 397.215 354.601L398.973 347.605C398.973 347.605 390.837 346.485 391.912 342.862C404.93 299.002 397.781 246.843 397.781 230.247C397.781 230.247 393.015 229.062 393.015 223.134C393.015 200.011 393.923 170.671 401.356 166.234C409.299 161.492 422.02 163.862 435.314 163.862C448.608 163.862 462.114 161.491 468.071 165.048C475.504 169.486 476.412 192.898 476.412 216.021C476.412 221.948 472.837 226.097 472.837 226.097C472.837 242.693 465.698 299.002 478.716 342.862C479.791 346.485 471.655 347.605 471.655 347.605Z" fill="url(#paint2_linear)"/>
<path d="M477.3 221.353C476.286 227.864 463.1 232.219 459.55 232.219C457.239 232.219 459.55 228.063 459.55 228.063L452.45 225.688C452.45 225.688 461.918 219.437 463.1 215.003C466.058 203.903 456 182.945 456 182.945C456 182.945 461.916 161.573 467.833 165.135C475.215 169.58 480.258 202.356 477.3 221.353Z" fill="url(#paint3_linear)"/>
<path d="M454.816 136.458C454.816 157.769 446.339 165.547 435.883 165.547C425.426 165.547 416.95 157.769 416.95 136.458C416.95 113.899 424.641 90.7462 435.883 88.3716C445.35 90.1526 454.816 114.492 454.816 136.458Z" fill="url(#paint4_linear)"/>
<path d="M444.166 78.2795C444.166 84.5089 440.458 89.5589 435.883 89.5589C431.308 89.5589 427.6 84.5089 427.6 78.2795C427.6 72.05 431.308 67 435.883 67C440.458 67 444.166 72.05 444.166 78.2795Z" fill="url(#paint5_linear)"/>
<path d="M486.766 110.931L479.666 121.982L392.692 121.982L385 110.931H486.766Z" fill="url(#paint6_linear)"/>
<path d="M385 95.4961C385 95.4961 388.178 96.5052 389.733 97.8707C392.066 99.9189 392.1 104.995 392.1 104.995L479.666 106.182C479.666 106.182 479.825 100.288 482.033 97.8707C483.429 96.3421 486.766 95.4961 486.766 95.4961V110.931H385V95.4961Z" fill="url(#paint7_linear)"/>
<defs>
<linearGradient id="paint0_linear" x1="36.5483" y1="86.856" x2="187.901" y2="232.189" gradientUnits="userSpaceOnUse">
<stop stop-color="white" stop-opacity="0"/>
<stop offset="1" stop-color="#FEE2E1"/>
</linearGradient>
<linearGradient id="paint1_linear" x1="302.5" y1="41" x2="621.29" y2="436.769" gradientUnits="userSpaceOnUse">
<stop stop-color="#FFD1D1"/>
<stop offset="0.468121" stop-color="#FEE4E2"/>
</linearGradient>
<linearGradient id="paint2_linear" x1="459" y1="67" x2="577.496" y2="87.6825" gradientUnits="userSpaceOnUse">
<stop stop-color="#FFD1D1" stop-opacity="0.54"/>
<stop offset="1" stop-color="#FEE4E2" stop-opacity="0"/>
</linearGradient>
<linearGradient id="paint3_linear" x1="459" y1="67" x2="577.496" y2="87.6825" gradientUnits="userSpaceOnUse">
<stop stop-color="#FFD1D1" stop-opacity="0.54"/>
<stop offset="1" stop-color="#FEE4E2" stop-opacity="0"/>
</linearGradient>
<linearGradient id="paint4_linear" x1="459" y1="67" x2="577.496" y2="87.6825" gradientUnits="userSpaceOnUse">
<stop stop-color="#FFD1D1" stop-opacity="0.54"/>
<stop offset="1" stop-color="#FEE4E2" stop-opacity="0"/>
</linearGradient>
<linearGradient id="paint5_linear" x1="459" y1="67" x2="577.496" y2="87.6825" gradientUnits="userSpaceOnUse">
<stop stop-color="#FFD1D1" stop-opacity="0.54"/>
<stop offset="1" stop-color="#FEE4E2" stop-opacity="0"/>
</linearGradient>
<linearGradient id="paint6_linear" x1="459" y1="67" x2="577.496" y2="87.6825" gradientUnits="userSpaceOnUse">
<stop stop-color="#FFD1D1" stop-opacity="0.54"/>
<stop offset="1" stop-color="#FEE4E2" stop-opacity="0"/>
</linearGradient>
<linearGradient id="paint7_linear" x1="459" y1="67" x2="577.496" y2="87.6825" gradientUnits="userSpaceOnUse">
<stop stop-color="#FFD1D1" stop-opacity="0.54"/>
<stop offset="1" stop-color="#FEE4E2" stop-opacity="0"/>
</linearGradient>
</defs>
</svg>
