<svg width="765" height="624" viewBox="0 0 765 624" fill="none" xmlns="http://www.w3.org/2000/svg">
<rect width="764.599" height="623.251" fill="black" fill-opacity="0"/>
<circle cx="149.5" cy="165.622" r="149.5" fill="white" fill-opacity="0.74"/>
<circle cx="149.5" cy="165.622" r="149.5" fill="url(#paint0_linear)"/>
<path d="M104.002 273.622C187.891 217.216 278.362 251.465 371 233.918C409.55 226.617 412.465 144.122 501.001 144.122C565.483 144.122 583.956 181.36 625 207.622C659.508 229.702 694.553 215.801 718.001 251.122C757.501 310.622 738.001 391.362 714.501 441.622C659.711 558.802 572.871 591.318 459.022 602.826C395.182 609.28 352.817 569.339 289 562.622C213.78 554.704 164 598.122 104 567.122C69.5905 549.344 43.8092 523.098 29.0001 494.122C14.7189 466.179 10.3941 434.539 15.0017 396.122C24.1136 320.148 75.0008 293.122 104.002 273.622Z" fill="#D1E0FF"/>
<path d="M104.002 273.622C187.891 217.216 278.362 251.465 371 233.918C409.55 226.617 412.465 144.122 501.001 144.122C565.483 144.122 583.956 181.36 625 207.622C659.508 229.702 694.553 215.801 718.001 251.122C757.501 310.622 738.001 391.362 714.501 441.622C659.711 558.802 572.871 591.318 459.022 602.826C395.182 609.28 352.817 569.339 289 562.622C213.78 554.704 164 598.122 104 567.122C69.5905 549.344 43.8092 523.098 29.0001 494.122C14.7189 466.179 10.3941 434.539 15.0017 396.122C24.1136 320.148 75.0008 293.122 104.002 273.622Z" fill="url(#paint1_linear)"/>
<rect width="721.917" height="597.858" fill="black" fill-opacity="0" transform="translate(16.4355) rotate(0.921001)"/>
<mask id="mask0" mask-type="alpha" maskUnits="userSpaceOnUse" x="6" y="0" width="733" height="610">
<path d="M53.7748 253.991C140.976 202.853 207.902 20.9846 300.81 4.92964C339.472 -1.7514 456.653 106.949 545.178 108.372C609.652 109.408 604.383 100.204 645 127.122C679.148 149.754 684.467 222.134 709.371 256.445C751.39 314.337 729.103 395.974 706.311 446.765C700.022 460.778 709.808 506.069 709.808 506.069L669.757 508.925C616.777 577.036 534.659 597.204 452.77 604.154C388.834 609.58 349.355 574.227 285.654 566.485C210.571 557.36 159.28 607.006 97.6003 564.609C35.9607 522.24 12.0666 484.351 11.3205 406.329C10.5888 329.814 4.80691 282.708 53.7748 253.991Z" fill="#D1E0FF"/>
<path d="M53.7748 253.991C140.976 202.853 207.902 20.9846 300.81 4.92964C339.472 -1.7514 456.653 106.949 545.178 108.372C609.652 109.408 604.383 100.204 645 127.122C679.148 149.754 684.467 222.134 709.371 256.445C751.39 314.337 729.103 395.974 706.311 446.765C700.022 460.778 709.808 506.069 709.808 506.069L669.757 508.925C616.777 577.036 534.659 597.204 452.77 604.154C388.834 609.58 349.355 574.227 285.654 566.485C210.571 557.36 159.28 607.006 97.6003 564.609C35.9607 522.24 12.0666 484.351 11.3205 406.329C10.5888 329.814 4.80691 282.708 53.7748 253.991Z" fill="url(#paint2_linear)"/>
</mask>
<g mask="url(#mask0)">
<rect width="684.484" height="490.388" fill="black" fill-opacity="0" transform="translate(22 22.7539) rotate(0.921001)"/>
<g opacity="0.64">
<rect width="61.6949" height="319.715" fill="black" fill-opacity="0" transform="translate(609.107 126.122)"/>
<rect x="609.107" y="432.29" width="61.6949" height="13.5471" fill="#FCC2C1"/>
<rect width="20.6093" height="16.5418" fill="black" fill-opacity="0" transform="translate(630.061 407.332)"/>
<rect x="630.061" y="407.332" width="20.6093" height="16.5418" fill="#FCC2C1"/>
<rect x="632.121" y="408.022" width="4.12186" height="15.1633" rx="1" fill="#FFB0B1"/>
<rect x="638.305" y="408.022" width="4.12186" height="15.1633" rx="1" fill="#FFB0B1"/>
<rect x="644.486" y="408.022" width="4.12186" height="15.1633" rx="1" fill="#FFB0B1"/>
<path d="M625.939 425.874C625.939 424.769 626.835 423.874 627.939 423.874L652.792 423.874C653.897 423.874 654.792 424.769 654.792 425.874L654.792 432.145L625.939 432.145L625.939 425.874Z" fill="#FCC2C1"/>
<path d="M609.107 432.15C609.107 431.046 610.003 430.15 611.107 430.15L668.802 430.15C669.907 430.15 670.802 431.046 670.802 432.15L670.802 432.289L609.107 432.289L609.107 432.15Z" fill="#FFF5F5"/>
<path d="M625.252 404.507C625.252 403.402 626.147 402.507 627.252 402.507L652.792 402.507C653.896 402.507 654.792 403.402 654.792 404.507L654.792 405.332C654.792 406.436 653.896 407.332 652.792 407.332L627.252 407.332C626.147 407.332 625.252 406.436 625.252 405.332L625.252 404.507Z" fill="#FCC2C1"/>
<path d="M629.373 321.866L650.669 321.866L650.669 402.507L629.373 402.507L629.373 321.866Z" fill="#CEDFFF"/>
<path d="M630.061 240.88C630.061 239.929 630.832 239.157 631.784 239.157L648.26 239.157C649.211 239.157 649.983 239.929 649.983 240.88C649.983 241.832 649.211 242.603 648.26 242.603L631.784 242.603C630.832 242.603 630.061 241.832 630.061 240.88Z" fill="#CEDFFF"/>
<path d="M632.809 242.604L647.235 242.604L647.235 263.97L632.809 263.97L632.809 242.604Z" fill="#C0D5FE"/>
<path d="M631.434 216.068C631.434 215.116 632.205 214.345 633.157 214.345L646.885 214.345C647.837 214.345 648.608 215.116 648.608 216.068C648.608 217.019 647.837 217.791 646.885 217.791L633.157 217.791C632.205 217.791 631.434 217.019 631.434 216.068Z" fill="#C0D5FE"/>
<path d="M633.496 217.791L646.549 217.791L646.549 239.157L633.496 239.157L633.496 217.791Z" fill="#CEDFFF"/>
<path d="M634.182 191.6L645.86 191.6L645.86 214.345L634.182 214.345L634.182 191.6Z" fill="#C0D5FE"/>
<path d="M632.809 166.443C632.809 165.491 633.58 164.72 634.532 164.72L645.512 164.72C646.464 164.72 647.235 165.491 647.235 166.443C647.235 167.394 646.464 168.166 645.512 168.166L634.532 168.166C633.58 168.166 632.809 167.394 632.809 166.443Z" fill="#C0D5FE"/>
<path d="M634.182 168.166L645.86 168.166L645.86 191.6L634.182 191.6L634.182 168.166Z" fill="#CEDFFF"/>
<path d="M636.93 144.731L643.112 144.731L643.112 164.719L636.93 164.719L636.93 144.731Z" fill="#CEDFFF"/>
<path d="M636.93 129.213C636.93 127.506 638.314 126.122 640.021 126.122C641.728 126.122 643.112 127.506 643.112 129.213L643.112 144.732L636.93 144.732L636.93 129.213Z" fill="#C0D5FE"/>
<rect width="52.2102" height="20.6785" fill="black" fill-opacity="0" transform="translate(613.572 296.364)"/>
<path d="M613.572 297.366C613.572 296.813 614.02 296.366 614.572 296.366L664.782 296.366C665.335 296.366 665.782 296.813 665.782 297.366L665.782 316.043C665.782 316.595 665.335 317.043 664.782 317.043L614.572 317.043C614.02 317.043 613.572 316.595 613.572 316.043L613.572 297.366Z" fill="#CEDFFF"/>
<path d="M613.572 296.366L616.32 296.366L616.32 301.19L613.572 301.19L613.572 296.366Z" fill="#C0D5FE"/>
<path d="M663.035 296.364L665.783 296.364L665.783 301.189L663.035 301.189L663.035 296.364Z" fill="#C0D5FE"/>
<path d="M617.693 296.364L623.876 296.364L623.876 301.189L617.693 301.189L617.693 296.364Z" fill="#C0D5FE"/>
<path d="M625.25 296.364L631.433 296.364L631.433 301.189L625.25 301.189L625.25 296.364Z" fill="#C0D5FE"/>
<path d="M632.807 296.364L638.989 296.364L638.989 301.189L632.807 301.189L632.807 296.364Z" fill="#C0D5FE"/>
<path d="M640.363 296.364L646.546 296.364L646.546 301.189L640.363 301.189L640.363 296.364Z" fill="#C0D5FE"/>
<path d="M647.922 296.364L654.105 296.364L654.105 301.189L647.922 301.189L647.922 296.364Z" fill="#C0D5FE"/>
<path d="M655.479 296.364L661.661 296.364L661.661 301.189L655.479 301.189L655.479 296.364Z" fill="#C0D5FE"/>
<path d="M613.572 296.365C613.572 294.842 614.807 293.608 616.329 293.608L663.026 293.608C664.548 293.608 665.782 294.842 665.782 296.365L613.572 296.365Z" fill="#F6F8FE"/>
<path d="M619.756 284.647L660.287 284.647L660.287 296.365L619.756 296.365L619.756 284.647Z" fill="#CEDFFF"/>
<path d="M623.877 273.619L656.165 273.619L656.165 281.89L623.877 281.89L623.877 273.619Z" fill="#CEDFFF"/>
<path d="M618.381 284.648C618.381 283.125 619.615 281.891 621.138 281.891L658.903 281.891C660.426 281.891 661.66 283.125 661.66 284.648L618.381 284.648Z" fill="#F6F8FE"/>
<path d="M623.191 273.619C623.191 272.097 624.426 270.862 625.948 270.862L654.096 270.862C655.619 270.862 656.853 272.097 656.853 273.619L623.191 273.619Z" fill="#F6F8FE"/>
<path d="M625.252 266.97C625.252 265.313 626.595 263.97 628.252 263.97L651.792 263.97C653.449 263.97 654.792 265.313 654.792 266.97L654.792 270.862L625.252 270.862L625.252 266.97Z" fill="#CEDFFF"/>
<rect width="40.5318" height="4.13564" fill="black" fill-opacity="0" transform="translate(619.756 284.647)"/>
<path d="M619.756 284.647L621.817 284.647L621.817 288.783L619.756 288.783L619.756 284.647Z" fill="#C0D5FE"/>
<path d="M658.227 284.647L660.287 284.647L660.287 288.783L658.227 288.783L658.227 284.647Z" fill="#C0D5FE"/>
<path d="M623.191 284.647L628.687 284.647L628.687 288.783L623.191 288.783L623.191 284.647Z" fill="#C0D5FE"/>
<path d="M630.061 284.647L635.556 284.647L635.556 288.783L630.061 288.783L630.061 284.647Z" fill="#C0D5FE"/>
<path d="M636.93 284.647L642.425 284.647L642.425 288.783L636.93 288.783L636.93 284.647Z" fill="#C0D5FE"/>
<path d="M643.801 284.647L649.297 284.647L649.297 288.783L643.801 288.783L643.801 284.647Z" fill="#C0D5FE"/>
<path d="M650.67 284.647L656.853 284.647L656.853 288.783L650.67 288.783L650.67 284.647Z" fill="#C0D5FE"/>
<rect width="32.2882" height="2.75798" fill="black" fill-opacity="0" transform="translate(623.877 273.62)"/>
<path d="M623.877 273.621L625.251 273.621L625.251 276.378L623.877 276.378L623.877 273.621Z" fill="#C0D5FE"/>
<path d="M626.625 273.62L630.06 273.62L630.06 276.377L626.625 276.377L626.625 273.62Z" fill="#C0D5FE"/>
<path d="M631.434 273.62L634.868 273.62L634.868 276.377L631.434 276.377L631.434 273.62Z" fill="#C0D5FE"/>
<path d="M636.242 273.62L639.677 273.62L639.677 276.377L636.242 276.377L636.242 273.62Z" fill="#C0D5FE"/>
<path d="M641.051 273.62L644.486 273.62L644.486 276.377L641.051 276.377L641.051 273.62Z" fill="#C0D5FE"/>
<path d="M645.859 273.62L649.294 273.62L649.294 276.377L645.859 276.377L645.859 273.62Z" fill="#C0D5FE"/>
<path d="M650.67 273.62L653.418 273.62L653.418 276.377L650.67 276.377L650.67 273.62Z" fill="#C0D5FE"/>
<path d="M654.791 273.62L656.165 273.62L656.165 276.377L654.791 276.377L654.791 273.62Z" fill="#C0D5FE"/>
<path d="M623.877 317.042L656.165 317.042L650.669 321.866L629.373 321.866L623.877 317.042Z" fill="#C0D5FE"/>
</g>
<path d="M259.468 65.1097L317.084 29.6415L354.228 84.8302L427.833 130.048L442.205 166.478L458.982 181.996L511.057 208.836L583.087 302.46L606.584 340.358L671.851 378.442L683.998 470.123L689.998 477.123L690.998 492.123L697.998 495.123L698.83 504.392L571.522 522.039L429.817 503.068L57.0979 466.064L42.7043 395.079L47.7778 324.739L58.3344 285.206L105.445 234.68L163.115 195.904L190.574 133.482L227.275 113.394L259.468 65.1097Z" fill="#C0D5FE"/>
<path d="M259.188 63.1209L316.744 27.4922L315.823 84.8007L299.682 112.788L325.901 125.671L328.71 156.454L351.454 180.082L387.701 185.649L381.158 284.406L362.474 316.506L380.024 355.003L448.735 395.985L429.245 507.559L285.314 502.076L33.6392 492.488L15.9978 396.123L47.7097 323.907L58.2582 284.2L105.321 233.448L162.93 194.497L190.365 131.8L227.026 111.62L259.188 63.1209Z" fill="#D1E0FF"/>
<path d="M259.188 63.1209L316.744 27.4922L315.823 84.8007L299.682 112.788L325.901 125.671L328.71 156.454L351.454 180.082L387.701 185.649L381.158 284.406L362.474 316.506L380.024 355.003L448.735 395.985L429.245 507.559L285.314 502.076L33.6392 492.488L15.9978 396.123L47.7097 323.907L58.2582 284.2L105.321 233.448L162.93 194.497L190.365 131.8L227.026 111.62L259.188 63.1209Z" fill="url(#paint3_linear)"/>
<rect width="223" height="152.5" fill="black" fill-opacity="0" transform="translate(15.3164 344)"/>
<rect width="223" height="152.5" fill="black" fill-opacity="0" transform="translate(15.3164 344)"/>
<path d="M32.7383 364.93L32.7383 375.395L220.895 375.395L220.895 364.93L238.316 344C238.316 344 170.885 359.178 126.816 359.698C81.4998 360.232 15.3164 344 15.3164 344L32.7383 364.93Z" fill="#DCE8FF"/>
<path fill-rule="evenodd" clip-rule="evenodd" d="M73.6753 448.263C73.2915 448.463 72.3506 448.906 71.0672 448.906L71.0672 437.931C69.8274 437.931 68.9389 438.357 68.6163 438.525C68.2228 438.73 67.9538 438.936 67.8396 439.027C67.686 439.149 67.5837 439.248 67.5476 439.284C67.6258 439.201 67.8113 438.986 68.1762 438.536C68.379 438.286 68.6314 437.97 68.9226 437.606C69.5512 436.819 70.3605 435.807 71.242 434.741C73.9143 431.51 77.7771 427.131 82.7759 422.729C92.7351 413.958 107.565 404.791 126.817 404.791C144.351 404.791 158.65 413.547 168.279 421.811C173.137 425.979 176.943 430.137 179.54 433.256C180.841 434.819 181.846 436.132 182.536 437.067C182.881 437.535 183.148 437.91 183.333 438.175C183.426 438.308 183.499 438.414 183.551 438.49L183.614 438.583L183.634 438.613L183.641 438.623L183.644 438.628C183.645 438.629 183.646 438.631 179.083 441.674C174.52 444.718 174.521 444.719 174.521 444.72L174.521 444.72L174.493 444.678C174.464 444.636 174.415 444.565 174.347 444.468C174.212 444.274 173.999 443.974 173.711 443.583C173.135 442.802 172.262 441.661 171.113 440.281C168.809 437.513 165.429 433.823 161.14 430.143C152.477 422.708 140.643 415.767 126.817 415.767C111.226 415.767 98.8775 423.169 90.021 430.968C85.612 434.851 82.1576 438.757 79.6904 441.74C78.857 442.747 78.189 443.584 77.5953 444.327C77.2773 444.725 76.9806 445.096 76.6913 445.453C76.3258 445.904 75.9153 446.401 75.5357 446.805C75.3575 446.995 75.0494 447.312 74.6621 447.62C74.4691 447.774 74.1301 448.027 73.6753 448.263ZM67.5447 439.288C67.5282 439.305 67.5298 439.303 67.5476 439.284C67.5466 439.286 67.5456 439.287 67.5447 439.288Z" fill="#DCE8FF"/>
<path d="M36.2227 392.837L213.926 392.837L213.926 406.791L36.2227 406.791L36.2227 392.837Z" fill="#DCE8FF"/>
<path d="M67.582 375.395L81.5195 375.395L78.0352 494L57.1289 494C57.1289 494 62.0539 457.926 64.0977 434.697C66.1309 411.588 67.582 375.395 67.582 375.395Z" fill="#DCE8FF"/>
<path d="M182.566 375.395L168.629 375.395L172.41 496.5L193.316 496.5C193.316 496.5 188.095 457.926 186.051 434.697C184.018 411.588 182.566 375.395 182.566 375.395Z" fill="#DCE8FF"/>
<rect x="119.848" y="375.395" width="13.9375" height="17.4419" fill="#DCE8FF"/>
<path d="M91.3506 479.078C11.0474 480.949 -63.925 551.65 -65.4363 552.741L-73 585.471L448.388 595C448.388 595 453.323 545.904 435.165 545.904C291.444 545.904 208.474 476.35 91.3506 479.078Z" fill="#DCE8FF"/>
<path d="M91.3506 479.078C11.0474 480.949 -63.925 551.65 -65.4363 552.741L-73 585.471L448.388 595C448.388 595 453.323 545.904 435.165 545.904C291.444 545.904 208.474 476.35 91.3506 479.078Z" fill="url(#paint4_linear)"/>
<path d="M406.5 512.5C339.273 514.386 219.668 565.624 258 571L282 605.389L718.488 615C718.488 615 722.619 565.481 707.417 565.481C587.099 565.481 504.552 509.749 406.5 512.5Z" fill="#C4C4C4"/>
<path d="M406.5 512.5C339.273 514.386 219.668 565.624 258 571L282 605.389L718.488 615C718.488 615 722.619 565.481 707.417 565.481C587.099 565.481 504.552 509.749 406.5 512.5Z" fill="url(#paint5_linear)"/>
<rect width="177" height="506" fill="black" fill-opacity="0" transform="translate(356.133 127.715) rotate(0.921001)"/>
<g filter="url(#filter0_d)">
<path d="M498.964 619.532L502.26 633.643C502.556 634.91 501.581 636.118 500.28 636.097L370.718 634.014C369.416 633.993 368.481 632.755 368.818 631.497L372.565 617.5C372.565 617.5 358.447 615.321 360.419 609.032C384.288 532.9 373.318 441.732 373.783 412.787C373.783 412.787 365.528 410.586 365.694 400.249C366.343 359.92 368.744 308.775 381.795 301.243C395.742 293.195 417.797 297.685 440.916 298.056C464.036 298.428 487.589 294.67 497.85 301.04C510.651 308.987 511.574 349.846 510.925 390.175C510.759 400.512 504.427 407.648 504.427 407.648C503.961 436.593 489.966 534.599 511.376 611.459C513.145 617.808 498.964 619.532 498.964 619.532Z" fill="#FCC2C1"/>
</g>
<path d="M394.125 527.735C414.583 481.942 420.585 397.302 420.585 397.302C420.585 397.302 428.518 481.093 414.968 530.215C409.748 549.135 407.526 560.129 390.025 566.283C381.388 569.321 375.449 551.234 374.301 547.417C374.175 546.997 374.343 546.564 374.709 546.322C377.687 544.356 390.671 535.467 394.125 527.735Z" fill="#FFB0B1"/>
<path d="M392.824 393.476C392.174 388.555 389.986 369.739 392.558 356.364C393.705 350.401 398.159 348.173 405.465 347.372C409.688 346.909 409.53 355.115 409.391 357.547C409.382 357.707 409.656 357.808 409.769 357.694C410.432 357.027 411.906 356.035 414.431 356.716C417.215 357.466 416.473 372.378 413.13 384.21C411.181 391.107 409.711 397.319 402.414 397.005C400.496 396.922 396.247 395.692 394.175 395.061C393.448 394.839 392.924 394.23 392.824 393.476Z" fill="#FFB0B1"/>
<path d="M389.782 391.448C389.135 386.65 387.011 368.702 389.516 355.931C390.637 350.216 394.999 348.083 402.153 347.318C406.278 346.876 406.137 354.702 406.002 357.054C405.993 357.213 406.265 357.316 406.379 357.204C407.032 356.565 408.473 355.625 410.936 356.276C413.663 356.996 412.941 371.287 409.671 382.627C407.765 389.237 406.328 395.19 399.182 394.886C397.312 394.807 393.182 393.637 391.142 393.029C390.412 392.811 389.884 392.203 389.782 391.448Z" fill="#FFF5F5"/>
<path d="M475.588 379.544C477.542 364.731 477.151 333.586 476.354 331.916C476.354 331.916 488.922 348.983 493.515 364.297C498.669 381.479 504.118 409 504.118 409C504.118 409 490.259 461.984 487.269 496.759C483.451 541.168 498.479 620.182 498.479 620.182C498.479 620.182 469.231 562.009 462.058 528.459C450.902 476.276 461.846 402.107 461.846 402.107C461.846 402.107 473.635 394.357 475.588 379.544Z" fill="#FFB0B1"/>
<path d="M512.319 399.498C510.373 410.826 487.32 418.051 481.147 417.952C477.128 417.887 481.263 410.704 481.263 410.704L468.982 406.364C468.982 406.364 485.623 395.726 487.803 388.025C493.259 368.749 476.354 331.916 476.354 331.916C476.354 331.916 487.243 294.807 497.433 301.185C510.145 309.144 517.997 366.449 512.319 399.498Z" fill="#FCC2C1"/>
<path d="M440.009 313.889C426.947 314.388 412.083 309.549 405.729 307.135C404.321 306.6 402.755 307.684 402.951 309.178C404.101 317.95 409.942 341.205 439.562 341.681C473.606 342.228 476.615 317.324 476.715 309.431C476.731 308.192 475.56 307.357 474.359 307.664C468.158 309.252 450.789 313.478 440.009 313.889Z" fill="#FFF5F5"/>
<path d="M452.554 409.892C453.49 406.583 461.795 405.212 468.981 406.364C479.194 408 495.658 411.51 493.543 415.044C489.768 421.35 465.043 417.755 465.043 417.755C465.043 417.755 451.081 415.102 452.554 409.892Z" fill="#FFF5F5"/>
<rect width="65.8605" height="134.617" fill="black" fill-opacity="0" transform="translate(411.096 165.884) rotate(0.921001)"/>
<path d="M475.599 250.808C475.002 287.977 460.042 301.305 441.858 301.012C423.673 300.72 409.15 286.918 409.747 249.749C410.38 210.405 424.405 170.24 444.022 166.413C460.435 169.784 476.215 212.499 475.599 250.808Z" fill="#FCC2C1"/>
<rect width="65.8605" height="134.617" fill="black" fill-opacity="0" transform="translate(411.096 165.884) rotate(0.921001)"/>
<mask id="mask1" mask-type="alpha" maskUnits="userSpaceOnUse" x="409" y="166" width="67" height="136">
<path d="M475.599 250.808C475.002 287.977 460.042 301.305 441.858 301.012C423.673 300.72 409.15 286.918 409.747 249.749C410.38 210.405 424.405 170.24 444.022 166.413C460.435 169.784 476.215 212.499 475.599 250.808Z" fill="#FCC2C1"/>
</mask>
<g mask="url(#mask1)">
<path d="M475.594 251.235C475.001 288.092 460.044 301.306 441.859 301.013C420.251 300.665 415.368 284.341 415.368 284.341C415.368 284.341 434.419 291.826 447.215 287.932C479.277 278.176 475.171 213.518 475.594 251.235Z" fill="#FFB0B1"/>
</g>
<rect width="28.814" height="39.3495" fill="black" fill-opacity="0" transform="translate(430.217 128.906) rotate(0.921001)"/>
<ellipse cx="444.306" cy="148.81" rx="14.407" ry="19.6747" transform="rotate(0.921001 444.306 148.81)" fill="#FCC2C1"/>
<rect width="28.814" height="39.3495" fill="black" fill-opacity="0" transform="translate(430.217 128.906) rotate(0.921001)"/>
<mask id="mask2" mask-type="alpha" maskUnits="userSpaceOnUse" x="429" y="129" width="30" height="40">
<ellipse cx="444.306" cy="148.81" rx="14.407" ry="19.6747" transform="rotate(0.921001 444.306 148.81)" fill="#FCC2C1"/>
</mask>
<g mask="url(#mask2)">
<path d="M458.711 149.044C458.536 159.909 451.945 168.613 443.989 168.485C436.033 168.357 429.476 174.975 429.651 164.11C429.825 153.246 439.458 162.198 447.413 162.326C455.369 162.454 458.885 138.18 458.711 149.044Z" fill="#FFB0B1"/>
</g>
<path d="M437.85 166.313L450.197 166.512C450.16 168.799 448.276 170.624 445.989 170.587L441.925 170.522C439.637 170.485 437.813 168.601 437.85 166.313Z" fill="#FFB0B1"/>
<rect width="177" height="46.2005" fill="black" fill-opacity="0" transform="translate(355.334 177.414) rotate(0.921001)"/>
<path d="M531.879 207.179L519.222 226.255L367.968 223.824L354.902 204.334L531.879 207.179Z" fill="#FFB0B1"/>
<path d="M355.334 177.414C355.334 177.414 360.832 179.263 363.499 181.688C367.499 185.325 367.415 194.179 367.415 194.179L519.664 198.697C519.664 198.697 520.105 188.422 524.013 184.268C526.484 181.641 532.311 180.259 532.311 180.259L531.878 207.179L354.901 204.334L355.334 177.414Z" fill="#FFF5F5"/>
<path d="M448.98 242.091C443.225 246.971 442.49 261.664 442.49 261.664C442.49 261.664 442.244 246.939 436.633 241.893C431.771 237.521 418.162 238.489 418.162 238.489C418.162 238.489 432.091 232.499 442.956 232.673C454.81 232.864 467.551 239.283 467.551 239.283C467.551 239.283 454.517 237.396 448.98 242.091Z" fill="#FFF5F5" stroke="#FFF5F5" stroke-linecap="round" stroke-linejoin="round"/>
</g>
<path d="M236.234 582.053C263.294 576.762 301.729 568.837 306.214 587.973C310.767 607.394 273.984 594.62 253.257 598.471C249.955 599.085 246.439 599.722 242.801 600.368C225.454 603.451 218.943 585.433 236.234 582.053Z" fill="#DAE6FF"/>
<path d="M640 484.057L684 470.122L690 477.122L640 484.057Z" fill="#D1E0FF"/>
<path d="M655 501.122L691 492.122L698 495.122L655 501.122Z" fill="#D1E0FF"/>
<path d="M166.143 98.9352C166.143 98.9352 172.533 71.388 205.254 71.8228C222.282 72.0491 234.575 75.7122 242.753 89.3231C248.952 99.6416 246.254 117.823 246.254 117.823C246.254 117.823 249.012 117.419 250.754 118.323C252.075 119.009 254.007 120.959 254.007 120.959C254.007 120.959 260.718 116.941 265.754 116.914C272.433 116.88 280.201 122.558 281.262 130.516C282.198 137.544 279.731 142.948 272.367 146.343C265.42 149.546 256.254 145.823 256.254 145.823C256.254 145.823 253.584 152.84 238.878 153.871C224.84 154.855 219.254 145.823 219.254 145.823C219.254 145.823 215.124 147.694 210.254 147.823C207.375 147.899 200.254 145.823 200.254 145.823C200.254 145.823 189.435 152.604 181.254 152.823C172.102 153.067 158.846 145.448 158.846 145.448C151.903 148.626 145.254 153.823 134.254 153.823C122.577 153.823 109.254 144.823 109.254 144.823C109.254 144.823 101.32 152.611 87.2975 152.47C76.445 152.361 67.1231 143.652 67.2533 133.823C67.4157 121.564 77.9346 117.159 88.4351 116.914C95.4648 116.751 103.253 121.823 103.253 121.823C103.253 121.823 105.578 117.969 107.753 116.323C110.224 114.453 115.204 112.981 115.204 112.981C115.204 112.981 115.204 102.323 125.753 97.8231C133.457 94.5365 147.254 100.823 147.254 100.823C147.254 100.823 149.754 96.3232 156.254 95.8232C162.319 95.3567 166.143 98.9352 166.143 98.9352Z" fill="#FFFEFE" fill-opacity="0.95"/>
<path d="M718.726 332.388C718.726 332.388 715.769 319.642 700.629 319.843C692.75 319.948 687.062 321.643 683.278 327.941C680.41 332.715 681.658 341.128 681.658 341.128C681.658 341.128 680.382 340.941 679.576 341.359C678.965 341.677 678.071 342.579 678.071 342.579C678.071 342.579 674.966 340.719 672.636 340.707C669.545 340.691 665.951 343.319 665.46 347.001C665.027 350.253 666.168 352.753 669.576 354.324C672.79 355.806 677.031 354.083 677.031 354.083C677.031 354.083 678.267 357.33 685.071 357.807C691.567 358.263 694.151 354.083 694.151 354.083C694.151 354.083 696.062 354.949 698.316 355.009C699.648 355.044 702.943 354.083 702.943 354.083C702.943 354.083 707.949 357.221 711.734 357.322C715.969 357.435 722.102 353.91 722.102 353.91C725.315 355.381 728.391 357.785 733.481 357.785C738.884 357.785 745.048 353.621 745.048 353.621C745.048 353.621 748.72 357.224 755.208 357.159C760.229 357.108 764.543 353.079 764.482 348.531C764.407 342.859 759.54 340.82 754.681 340.707C751.429 340.632 747.825 342.979 747.825 342.979C747.825 342.979 746.749 341.195 745.743 340.434C744.6 339.568 742.296 338.888 742.296 338.888C742.296 338.888 742.296 333.956 737.415 331.874C733.85 330.353 727.466 333.262 727.466 333.262C727.466 333.262 726.309 331.18 723.302 330.948C720.495 330.733 718.726 332.388 718.726 332.388Z" fill="#FFFEFE" fill-opacity="0.95"/>
<defs>
<filter id="filter0_d" x="355.85" y="295.49" width="164.737" height="348.782" filterUnits="userSpaceOnUse" color-interpolation-filters="sRGB">
<feFlood flood-opacity="0" result="BackgroundImageFix"/>
<feColorMatrix in="SourceAlpha" type="matrix" values="0 0 0 0 0 0 0 0 0 0 0 0 0 0 0 0 0 0 255 0"/>
<feOffset dy="4"/>
<feGaussianBlur stdDeviation="2"/>
<feColorMatrix type="matrix" values="0 0 0 0 0 0 0 0 0 0 0 0 0 0 0 0 0 0 0.01 0"/>
<feBlend mode="normal" in2="BackgroundImageFix" result="effect1_dropShadow"/>
<feBlend mode="normal" in="SourceGraphic" in2="effect1_dropShadow" result="shape"/>
</filter>
<linearGradient id="paint0_linear" x1="25.0641" y1="75.6862" x2="128.859" y2="175.353" gradientUnits="userSpaceOnUse">
<stop stop-color="white" stop-opacity="0"/>
<stop offset="1" stop-color="#FFEDF2"/>
</linearGradient>
<linearGradient id="paint1_linear" x1="608" y1="286.622" x2="428.5" y2="544.122" gradientUnits="userSpaceOnUse">
<stop stop-color="white" stop-opacity="0.43"/>
<stop offset="1" stop-color="#D1E0FF"/>
</linearGradient>
<linearGradient id="paint2_linear" x1="643.736" y1="198.967" x2="481.102" y2="610.406" gradientUnits="userSpaceOnUse">
<stop stop-color="white" stop-opacity="0.38"/>
<stop offset="0.108465" stop-color="#FAFCFF" stop-opacity="0.447248"/>
<stop offset="1" stop-color="#D1E0FF"/>
</linearGradient>
<linearGradient id="paint3_linear" x1="237.134" y1="26.2131" x2="229.447" y2="504.348" gradientUnits="userSpaceOnUse">
<stop stop-color="#CCDDFE"/>
<stop offset="1" stop-color="#D2E0FF"/>
</linearGradient>
<linearGradient id="paint4_linear" x1="184.5" y1="494" x2="339.804" y2="543.44" gradientUnits="userSpaceOnUse">
<stop stop-color="#DCE8FF"/>
<stop offset="1" stop-color="#D2E0FF"/>
</linearGradient>
<linearGradient id="paint5_linear" x1="310.5" y1="529.5" x2="418.5" y2="559.5" gradientUnits="userSpaceOnUse">
<stop stop-color="#DCE8FF"/>
<stop offset="1" stop-color="#D9E5FF"/>
</linearGradient>
</defs>
</svg>
