<svg width="677" height="484" viewBox="0 0 677 484" fill="none" xmlns="http://www.w3.org/2000/svg">
<g filter="url(#filter0_d)">
<path d="M30.4356 29.4022C6.29703 33.6026 0 63 0 63H122.5H424L208 40C208 40 192.059 -0.000317839 140.634 0C72.4158 0.000421627 68.2178 32.5525 68.2178 32.5525C68.2178 32.5525 52.7563 25.5183 30.4356 29.4022Z" transform="translate(35.9991 3.99902)" fill="#FFE8E8"/>
</g>
<path d="M262.374 33.9492L315.621 0L351.119 50.9239L420.5 92L434.461 125.766L502.37 176.69L568 250.5L590.5 285.5L646 318L676 456H0L17.7489 344.122L68.6804 279.31L77.9406 242.274L121.155 194.437L174.402 157.401L199.096 98.7614L233.05 79.4721L262.374 33.9492Z" transform="translate(0.998535 26.999)" fill="#B8C9FF"/>
<path d="M262.083 34.0981L315.271 0V53.4721L300.625 79.8206L325.292 91.445L328.375 120.118L349.958 141.817L383.875 146.467L379.25 238.687L362.292 268.91L379.25 304.558L444 341.756L420.875 458H0L17.7292 345.631L68.6042 280.535L77.8542 243.337L121.021 195.289L174.208 158.091L198.875 99.1946L232.792 79.8206L262.083 34.0981Z" transform="translate(0.998535 24.999)" fill="#D2DAFF"/>
<path d="M70.1247 163.509L71.5992 169.429C71.9135 170.691 70.9589 171.912 69.6585 171.912H6.7537C5.45328 171.912 4.4987 170.691 4.81298 169.429L6.2875 163.509C6.2875 163.509 -0.8585 162.517 0.0860105 159.307C11.5201 120.44 5.24097 74.2193 5.24097 59.5128C5.24097 59.5128 1.05494 58.4624 1.05494 53.2101C1.05494 32.7193 1.85211 6.72002 8.38052 2.78777C15.3574 -1.41458 26.5298 0.686073 38.2061 0.686073C49.8824 0.686073 61.7442 -1.41517 66.9767 1.73675C73.505 5.66919 74.3023 26.416 74.3023 46.9067C74.3023 52.1591 71.1628 55.8357 71.1628 55.8357C71.1628 70.5422 64.8921 120.44 76.3262 159.307C77.2707 162.517 70.1247 163.509 70.1247 163.509Z" transform="translate(400.278 311.087)" fill="#FCC2C1"/>
<path d="M10.0268 66.3652C20.0536 42.9742 22.4128 0 22.4128 0C22.4128 0 27.1313 42.4302 20.6434 67.4531C18.1445 77.091 17.1045 82.6845 8.25735 85.9483C4.11394 87.4769 1.05058 79.34 0.222941 76.8581C0.0838702 76.4411 0.246843 75.9939 0.607876 75.7431C2.52782 74.4093 8.42945 70.0915 10.0268 66.3652Z" transform="translate(406.557 362.196)" fill="#FFB0B1"/>
<path d="M0.855248 22.8905C0.410219 19.716 -0.612354 11.0166 0.504081 4.67795C1.0384 1.64432 3.28491 0.478448 6.99267 0.012492C8.97178 -0.236223 9.11201 3.29395 9.08202 4.80838C9.07884 4.96873 9.38525 5.08947 9.51401 4.99385C9.91471 4.69631 10.5954 4.41829 11.6274 4.67795C13.0493 5.03571 12.7936 12.6044 11.1907 18.6326C10.2563 22.1463 9.55978 25.3087 5.84736 25.2088C5.02849 25.1868 3.36922 24.7686 2.23092 24.4553C1.49799 24.2535 0.960787 23.6433 0.855248 22.8905Z" transform="translate(413.882 336.984)" fill="#FFB0B1"/>
<path d="M0.829969 21.8858C0.390299 18.8007 -0.593392 10.5237 0.493635 4.48344C1.01688 1.57595 3.21683 0.458554 6.84775 0.0119726C8.77842 -0.225487 8.92209 3.1311 8.89413 4.59168C8.89107 4.7514 9.19473 4.87406 9.32441 4.78074C9.71778 4.49765 10.3823 4.23617 11.3864 4.48344C12.7788 4.82633 12.5285 12.0803 10.9587 17.8579C10.0438 21.2255 9.36166 24.2564 5.72618 24.1607C4.93134 24.1397 3.32794 23.7457 2.21424 23.4464C1.47845 23.2486 0.937465 22.6401 0.829969 21.8858Z" transform="translate(412.342 336.984)" fill="#FFF5F5"/>
<path d="M8.70309 24.1607C9.57518 16.6323 9.12168 0.840371 8.70308 0C8.70308 0 15.232 8.55281 17.6926 16.2822C20.4533 24.9542 23.4484 38.8672 23.4484 38.8672C23.4484 38.8672 16.8353 65.8511 15.5996 83.5119C14.0216 106.065 22.3077 146.014 22.3077 146.014C22.3077 146.014 6.96228 116.75 3.04145 99.794C-3.05709 73.4199 1.90076 35.7158 1.90076 35.7158C1.90076 35.7158 7.83099 31.689 8.70309 24.1607Z" transform="translate(448.086 328.581)" fill="#FFB0B1"/>
<path d="M21.9768 50.0927C21.08 55.8533 9.4186 59.7056 6.27907 59.7056C4.23563 59.7056 6.27907 56.029 6.27907 56.029L0 53.9281C0 53.9281 8.37341 48.3971 9.4186 44.4739C12.0349 34.6534 3.13953 16.1114 3.13953 16.1114C3.13953 16.1114 8.37209 -2.79752 13.6047 0.354403C20.1329 4.28684 24.593 33.2853 21.9768 50.0927Z" transform="translate(453.65 312.47)" fill="#FCC2C1"/>
<path d="M19.049 3.75955C13.3092 4.07039 6.85203 2.36764 3.10872 1.14327C1.67782 0.675244 0.139845 1.80315 0.466475 3.27279C1.61215 8.42763 5.55244 17.8579 19.049 17.8579C34.9268 17.8579 37.3583 7.21394 37.6418 2.36102C37.714 1.12448 36.5385 0.306492 35.3411 0.623515C31.5717 1.6215 23.9707 3.49302 19.049 3.75955Z" transform="translate(419.115 315.975)" fill="#FFF5F5"/>
<path d="M0.0493235 2.08716C0.498097 0.401367 4.7093 -0.36161 8.37209 0.163891C13.5778 0.910759 21.9767 2.55616 20.9302 4.36574C19.0628 7.59488 6.46308 5.97315 6.46308 5.97315C6.46308 5.97315 -0.657344 4.74172 0.0493235 2.08716Z" transform="translate(445.278 366.234)" fill="#FFF5F5"/>
<path d="M33.4884 42.5438C33.4884 61.3988 25.9917 68.2801 16.7442 68.2801C7.49663 68.2801 0 61.3988 0 42.5438C0 22.585 6.80233 2.10093 16.7442 0C25.1163 1.5757 33.4884 23.1102 33.4884 42.5438Z" transform="translate(422.254 244.908)" fill="#FCC2C1"/>
<mask id="mask0" mask-type="alpha" maskUnits="userSpaceOnUse" x="422" y="244" width="34" height="70">
<path d="M33.4884 42.5438C33.4884 61.3988 25.9917 68.2801 16.7442 68.2801C7.49663 68.2801 0 61.3988 0 42.5438C0 22.585 6.80233 2.10093 16.7442 0C25.1163 1.5757 33.4884 23.1102 33.4884 42.5438Z" transform="translate(422.254 244.908)" fill="#FCC2C1"/>
</mask>
<g mask="url(#mask0)">
<path d="M30.3488 5.93517C30.3488 24.6318 22.8522 31.4553 13.6047 31.4553C2.61628 31.4549 0 23.2156 0 23.2156C0 23.2156 9.7472 26.8563 16.2209 24.7774C32.4419 19.5683 29.8256 -13.1898 30.3488 5.93517Z" transform="translate(425.394 281.733)" fill="#FFB0B1"/>
</g>
<ellipse cx="7.32558" cy="9.9794" rx="7.32558" ry="9.9794" transform="translate(431.673 226)" fill="#FCC2C1"/>
<mask id="mask1" mask-type="alpha" maskUnits="userSpaceOnUse" x="431" y="225" width="16" height="21">
<ellipse cx="7.32558" cy="9.9794" rx="7.32558" ry="9.9794" transform="translate(431.673 226)" fill="#FCC2C1"/>
</mask>
<g mask="url(#mask1)">
<path d="M14.6511 1.41741C14.6511 6.92889 11.3714 11.3968 7.32555 11.3968C3.27974 11.3968 0 14.8066 0 9.29517C0 3.78369 4.97026 8.24522 9.01607 8.24522C13.0619 8.24522 14.6511 -4.09406 14.6511 1.41741Z" transform="translate(431.673 234.562)" fill="#FFB0B1"/>
</g>
<path d="M0 0H6.27907C6.27907 1.16031 5.33845 2.10093 4.17814 2.10093H2.10093C0.940617 2.10093 0 1.16031 0 0Z" transform="translate(435.859 244.908)" fill="#FFB0B1"/>
<path d="M90 9.77739L83.7209 0L6.80233 -7.88918e-05L0 9.77739H90Z" transform="translate(393.999 274.644) scale(1 -1)" fill="#FFB0B1"/>
<path d="M0 0C0 0 2.81055 0.892827 4.18605 2.10093C6.24928 3.91308 6.27907 8.40371 6.27907 8.40371L83.7209 9.45417C83.7209 9.45417 83.8612 4.23925 85.814 2.10093C87.049 0.748536 90 0 90 0V13.656H0V0Z" transform="translate(393.999 251.211)" fill="#FFF5F5"/>
<path d="M15.6977 4.72709C12.8114 7.24909 12.5581 14.7065 12.5581 14.7065C12.5581 14.7065 12.3127 7.24046 9.4186 4.72709C6.91115 2.54949 0 3.15139 0 3.15139C0 3.15139 7.03256 0 12.5581 0C18.586 0 25.1163 3.15139 25.1163 3.15139C25.1163 3.15139 18.4745 2.3007 15.6977 4.72709Z" transform="translate(426.44 278.523)" fill="#FFF5F5" stroke="#FFF5F5" stroke-linecap="round" stroke-linejoin="round"/>
<defs>
<filter id="filter0_d" x="19.9991" y="-0.000976562" width="456" height="95" filterUnits="userSpaceOnUse" color-interpolation-filters="sRGB">
<feFlood flood-opacity="0" result="BackgroundImageFix"/>
<feColorMatrix in="SourceAlpha" type="matrix" values="0 0 0 0 0 0 0 0 0 0 0 0 0 0 0 0 0 0 255 0"/>
<feOffset dy="12"/>
<feGaussianBlur stdDeviation="8"/>
<feColorMatrix type="matrix" values="0 0 0 0 0.743578 0 0 0 0 0.770409 0 0 0 0 0.877729 0 0 0 0.03 0"/>
<feBlend mode="normal" in2="BackgroundImageFix" result="effect1_dropShadow"/>
<feBlend mode="normal" in="SourceGraphic" in2="effect1_dropShadow" result="shape"/>
</filter>
</defs>
</svg>
